<svg xmlns="http://www.w3.org/2000/svg" xmlns:xlink="http://www.w3.org/1999/xlink" viewBox="0 0 120 120" version="1.1">
    <title>h5/sports-icon/color/icon-cmd</title>
    <defs>
        <linearGradient x1="85.6578674%" y1="77.6417024%" x2="14.0511328%" y2="5.64305065%" id="linearGradient-1">
            <stop stop-color="#FFFFFF" offset="9%"/>
            <stop stop-color="#FFFFFF" offset="13%"/>
            <stop stop-color="#FFFFFF" offset="83%"/>
            <stop stop-color="#FFFFFF" offset="100%"/>
        </linearGradient>
        <linearGradient x1="85.6639839%" y1="21.1648798%" x2="14.0342052%" y2="93.1663476%" id="linearGradient-2">
            <stop stop-color="#FFFFFF" offset="9%"/>
            <stop stop-color="#FFFFFF" offset="13%"/>
            <stop stop-color="#FFFFFF" offset="83%"/>
            <stop stop-color="#FFFFFF" offset="100%"/>
        </linearGradient>
        <radialGradient cx="51.3635086%" cy="89.3522743%" fx="51.3635086%" fy="89.3522743%" r="64.9363178%" gradientTransform="translate(0.5136, 0.8935), scale(0.6494, 1), translate(-0.5136, -0.8935)" id="radialGradient-3">
            <stop stop-color="#FFFFFF" offset="0%"/>
            <stop stop-color="#FFFFFF" offset="100%"/>
        </radialGradient>
        <radialGradient cx="31.0447761%" cy="-33.5763547%" fx="31.0447761%" fy="-33.5763547%" r="51.4286284%" gradientTransform="translate(0.3104, -0.3358), scale(0.9468, 1), translate(-0.3104, 0.3358)" id="radialGradient-4">
            <stop stop-color="#FFFFFF" offset="0%"/>
            <stop stop-color="#FFFFFF" offset="100%"/>
        </radialGradient>
        <radialGradient cx="37.7454085%" cy="-48.6424032%" fx="37.7454085%" fy="-48.6424032%" r="55.6711574%" gradientTransform="translate(0.3775, -0.4864), scale(0.8222, 1), translate(-0.3775, 0.4864)" id="radialGradient-5">
            <stop stop-color="#FFFFFF" offset="0%"/>
            <stop stop-color="#FFFFFF" offset="100%"/>
        </radialGradient>
        <radialGradient cx="61.0400218%" cy="272.96215%" fx="61.0400218%" fy="272.96215%" r="61.5425046%" gradientTransform="translate(0.6104, 2.7296), scale(0.7025, 1), translate(-0.6104, -2.7296)" id="radialGradient-6">
            <stop stop-color="#FFFFFF" offset="0%"/>
            <stop stop-color="#FFFFFF" offset="100%"/>
        </radialGradient>
        <linearGradient x1="50.0095672%" y1="99.9829336%" x2="50.0095672%" y2="-0.0197516661%" id="linearGradient-7">
            <stop stop-color="#FFFFFF" offset="0%"/>
            <stop stop-color="#FFFFFF" offset="99%"/>
        </linearGradient>
        <linearGradient x1="50.0039361%" y1="-556.89087%" x2="50.0039361%" y2="-457.89087%" id="linearGradient-8">
            <stop stop-color="#FFFFFF" offset="0%"/>
            <stop stop-color="#FFFFFF" offset="100%"/>
        </linearGradient>
        <linearGradient x1="50.0095672%" y1="99.9829336%" x2="50.0095672%" y2="-0.0197516661%" id="linearGradient-9">
            <stop stop-color="#FFFFFF" offset="0%"/>
            <stop stop-color="#FFFFFF" offset="99%"/>
        </linearGradient>
        <polygon id="path-10" points="64.8535958 0 53.3097124 12.7918565 53.3097124 0 37.9698675 0 29.2859553 20.6357685 35.6018914 20.6357685 42.2098246 4.84794562 43.3458132 20.6357685 53.2097135 20.6357685 65.8895853 6.32792902 60.1656432 20.6357685 72.3055204 20.6357685 80.0974417 0"/>
        <linearGradient x1="49.9987928%" y1="-556.929638%" x2="49.9987928%" y2="-456.929638%" id="linearGradient-11">
            <stop stop-color="#FFFFFF" offset="0%"/>
            <stop stop-color="#FFFFFF" offset="99%"/>
        </linearGradient>
        <linearGradient x1="50.0095672%" y1="99.9829336%" x2="50.0095672%" y2="-0.0197516661%" id="linearGradient-12">
            <stop stop-color="#FFFFFF" offset="0%"/>
            <stop stop-color="#FFFFFF" offset="99%"/>
        </linearGradient>
        <path d="M107.381166,0.00399995514 L85.0293918,0.00399995514 L77.7254657,20.6397685 L99.7292433,20.6397685 C106.98117,20.6397685 109.549144,17.7318011 110.289137,16.0038205 C111.029129,14.2758399 111.621123,13.0438537 113.497104,6.87992283 C115.373085,0.711992014 110.92913,0.0119998654 107.381166,0.0119998654 L107.381166,0.0119998654 L107.381166,0.00399995514 Z M102.98921,6.87192292 C102.249218,8.94389968 101.881222,10.3078844 100.129239,14.0278427 C98.5732549,17.3198057 96.3812771,17.1838073 94.605295,17.1838073 L88.7813539,17.1838073 L93.717304,3.76395778 L101.121229,3.76395778 C103.737203,3.76395778 103.737203,4.79994616 102.99721,6.87192292 L102.99321,6.87192292 L102.98921,6.87192292 Z" id="path-13"/>
        <linearGradient x1="50.005782%" y1="-824.944412%" x2="50.005782%" y2="-724.947656%" id="linearGradient-14">
            <stop stop-color="#FFFFFF" offset="0%"/>
            <stop stop-color="#FFFFFF" offset="99%"/>
        </linearGradient>
        <linearGradient x1="50.0095672%" y1="99.9829336%" x2="50.0095672%" y2="-0.0197516661%" id="linearGradient-15">
            <stop stop-color="#FFFFFF" offset="0%"/>
            <stop stop-color="#FFFFFF" offset="99%"/>
        </linearGradient>
        <path d="M37.5119593,4.25995222 C39.2879414,-0.143998385 33.6639982,0.00799991027 30.8480267,0.00799991027 L13.7161999,0.00799991027 C5.24428549,0.00799991027 4.94828849,4.92794473 4.94828849,4.92794473 L14.0161968,4.92794473 C14.6841901,3.29996299 15.2401845,2.67197003 16.7921688,2.67197003 L26.1920738,2.67197003 C28.2640528,2.67197003 28.448051,3.11596505 28.0400551,3.8959563 C27.6360592,4.6719476 27.1880637,5.74393558 26.5240704,6.70792476 C25.8560772,7.667914 25.1920839,8.07990937 23.9000969,8.07990937 L15.9441773,8.07990937 L14.8361885,11.3358729 L22.6441096,11.3358729 C24.1240947,11.3358729 24.4560913,11.7398683 24.2360935,12.3718612 C24.0160958,12.9998542 23.496101,14.0358426 22.9761063,15.1838297 C22.4561115,16.3318168 21.6441197,16.5558143 20.5721306,16.5558143 L9.54424203,16.5558143 C8.5082525,16.5558143 9.54424203,14.6278359 9.54424203,14.6278359 L0.696331464,14.6278359 C-1.55964573,19.3637828 2.10431723,19.5477807 5.43228359,19.5477807 L25.1160846,19.5477807 C31.0360248,19.5477807 32.0360147,17.3278056 33.6999979,13.7038463 C35.3639811,10.075887 32.5560094,9.85588945 32.5560094,9.85588945 C35.1079836,9.52389318 35.7359773,8.67590269 37.5119593,4.26795213 L37.5119593,4.26795213 L37.5119593,4.25995222 Z" id="path-16"/>
        <linearGradient x1="50.0153072%" y1="-825.061425%" x2="50.0153072%" y2="-725.061425%" id="linearGradient-17">
            <stop stop-color="#FFFFFF" offset="0%"/>
            <stop stop-color="#FFFFFF" offset="99%"/>
        </linearGradient>
        <linearGradient x1="50.0095672%" y1="99.9829336%" x2="50.0095672%" y2="-0.0197516661%" id="linearGradient-18">
            <stop stop-color="#FFFFFF" offset="0%"/>
            <stop stop-color="#FFFFFF" offset="99%"/>
        </linearGradient>
        <path d="M66.039671,7.88391157 L50.4998281,7.88391157 C50.4998281,7.88391157 51.6078169,4.77594643 51.9798131,3.95995558 C52.3478094,3.14796469 52.8318045,2.29597425 54.5317873,2.29597425 L64.1516901,2.29597425 C66.035671,2.29597425 65.8916725,3.63995917 65.8916725,3.63995917 L75.4755756,3.63995917 C76.1155691,0.531994033 70.987621,2.27371125e-14 68.3716474,2.27371125e-14 L52.0638123,2.27371125e-14 C45.3558801,2.27371125e-14 42.887905,1.29598546 41.7799162,3.88395644 C40.8879252,5.96793306 38.143953,12.1518637 37.0879636,14.8358336 C35.3479812,19.2517841 38.8479458,19.5357809 42.0639133,19.5357809 L62.8957028,19.5357809 C68.4836463,19.5357809 69.999631,17.2798062 71.8836119,12.5038598 C73.7675929,7.73191328 68.219649,7.87991162 66.039671,7.87991162 L66.035671,7.87991162 L66.039671,7.88391157 Z M58.5277469,16.6678131 L48.8838444,16.6678131 C46.6638668,16.6678131 48.1158522,13.7798454 49.1038422,11.8078676 L62.375708,11.8078676 C62.375708,11.8078676 61.487717,16.6678131 58.5277469,16.6678131 Z" id="path-19"/>
        <linearGradient x1="50.0017466%" y1="-824.912999%" x2="50.0017466%" y2="-724.912999%" id="linearGradient-20">
            <stop stop-color="#FFFFFF" offset="0%"/>
            <stop stop-color="#FFFFFF" offset="99%"/>
        </linearGradient>
        <linearGradient x1="50.0095672%" y1="99.9829336%" x2="50.0095672%" y2="-0.0197516661%" id="linearGradient-21">
            <stop stop-color="#FFFFFF" offset="0%"/>
            <stop stop-color="#FFFFFF" offset="99%"/>
        </linearGradient>
        <path d="M108.223245,0 L88.8714402,0 C80.9155206,0 79.9555303,3.99595518 79.2515375,6.73592445 C78.5475446,9.47589372 81.0275195,9.7718904 81.0275195,9.7718904 C76.4755655,10.9518772 76.0715696,13.2638512 75.3675767,16.2838174 C74.7955825,18.7517897 76.8835614,19.5397808 80.8075217,19.5397808 L100.563322,19.5397808 C105.599271,19.5397808 106.70726,16.7998116 108.187245,13.4718489 C109.66723,10.1438862 106.74326,9.7718904 106.74326,9.7718904 C109.443232,9.43989412 110.775219,7.92391112 112.035206,4.88794518 C113.295193,1.85197923 112.035206,0.00399995514 108.223245,0.00399995514 L108.223245,0.00399995514 L108.223245,0 Z M98.2673452,14.2478402 C97.9473485,15.3558278 97.7793502,16.8358112 95.7313709,16.8358112 L86.6474627,16.8358112 C85.3874754,16.8358112 85.2194771,16.491815 85.5114742,15.3798275 C85.8994703,13.8998441 86.1794674,11.9038665 88.6194428,11.9038665 L97.7233507,11.9038665 C99.0033378,11.9038665 98.591342,13.1358527 98.2633453,14.2478402 L98.2673452,14.2478402 L98.2673452,14.2478402 Z M101.895309,5.11994257 C101.575312,6.22793015 101.407314,7.70791355 99.3593342,7.70791355 L90.275426,7.70791355 C89.0154388,7.70791355 88.8474405,7.36391741 89.1394375,6.25192988 C89.5274336,4.77194648 89.8074308,2.77596886 92.2474061,2.77596886 L101.351314,2.77596886 C102.631301,2.77596886 102.219305,4.00795505 101.891309,5.11994257 L101.895309,5.11994257 L101.895309,5.11994257 Z" id="path-22"/>
        <linearGradient x1="84.6558906%" y1="84.6945472%" x2="20.0611375%" y2="-0.727954696%" id="linearGradient-23">
            <stop stop-color="#FFFFFF" offset="9%"/>
            <stop stop-color="#FFFFFF" offset="13%"/>
            <stop stop-color="#FFFFFF" offset="83%"/>
            <stop stop-color="#FFFFFF" offset="100%"/>
        </linearGradient>
    </defs>
    <g id="h5/sports-icon/color/icon-cmd" stroke="none" stroke-width="1" fill="none" fill-rule="evenodd">
        <g id="資產-4" transform="translate(0, 6.4899)" fill-rule="nonzero">
            <polygon id="Path" fill="url(#linearGradient-1)" points="108.351243 15.2030353 115.451172 17.4190105 110.563221 12.0990701 113.967187 7.31112385 107.531252 8.7951072 102.959298 3.81516306 103.579292 9.71109693 96.2073661 11.4150778 104.019287 13.8510505 104.70328 20.3309778"/>
            <polygon id="Path" fill="url(#linearGradient-2)" points="98.1033469 18.4909985 101.039317 19.4069882 99.0193376 17.2070129 100.427323 15.2270351 97.7673503 15.8430282 95.8753694 13.7830513 96.1353668 16.2190239 93.0873976 16.923016 96.315365 17.9310047 96.5993621 20.6069747"/>
            <path d="M54.2077906,51.0906328 L55.9717728,47.3586747 L53.9597931,44.294709 L56.6117663,46.974679 L64.9836817,46.974679 L68.1876493,43.3027202 L65.5876756,47.1946765 L68.1876493,51.8626241 C68.1876493,51.8626241 60.3677283,53.8226022 54.2117905,51.0866329 L54.2037906,51.0866329 L54.2077906,51.0906328 Z" id="Path" fill="url(#radialGradient-3)"/>
            <polygon id="Path" fill="url(#radialGradient-4)" points="38.4199502 28.7588833 46.4158693 31.2988548 49.5798374 37.3827866 47.1158623 30.8948593 52.3078098 25.1189241 59.8597335 25.2989221 52.7998048 24.1789347 47.8158552 17.0830142 38.8999453 20.2549787"/>
            <polygon id="Path" fill="url(#radialGradient-5)" points="63.2156995 39.0667677 67.419657 32.8108378 65.0556809 24.4109321 73.8955916 18.2950006 81.2995168 24.2229342 88.4794442 21.6829626 81.8515112 25.2589225 77.2115581 33.3948313 78.9355406 36.094801 76.5835644 33.8548261 67.7396538 33.5788292"/>
            <path d="M56.4917675,2.68717571 L58.2557497,7.07112654 L54.8997836,10.6390865 L58.8517436,7.6631199 L66.2796686,8.35511214 L69.2956381,12.0710705 L67.2356589,8.13111465 L69.5916351,2.68317575 C69.5916351,2.68317575 63.2956987,0.583199308 56.4797676,2.68317575 L56.4877675,2.68317575 L56.4917675,2.68717571 Z" id="Path" fill="url(#radialGradient-6)"/>
            <g id="Group" transform="translate(0, 64.2825)">
                <g transform="translate(6.058, 0)">
                    <path d="M9.47415553,13.7998452 C9.5461548,12.4278606 10.6981432,9.95188838 12.4701252,6.58392615 C14.2461073,3.21996388 15.9460901,3.21996388 18.2780665,3.21996388 L31.0779372,3.21996388 L32.6699211,0 L11.8741313,0 C4.43420647,0 1.44223671,7.69591368 0.182249445,13.9878431 C-1.12973729,20.5597694 4.99420081,20.2757726 7.28617764,20.239773 C10.0981492,20.1957735 23.0100187,20.239773 23.0100187,20.239773 L24.6020026,16.763812 L14.0181096,16.763812 C9.35415674,16.763812 9.39415633,15.1718298 9.46615561,13.8038452 L9.46615561,13.8038452 L9.47415553,13.7998452 Z" id="Path" fill="url(#linearGradient-7)"/>
                    <g id="Path">
                        <use fill="url(#linearGradient-8)" xlink:href="#path-10"/>
                        <use fill="url(#linearGradient-9)" xlink:href="#path-10"/>
                    </g>
                    <g id="Shape">
                        <use fill="url(#linearGradient-11)" xlink:href="#path-13"/>
                        <use fill="url(#linearGradient-12)" xlink:href="#path-13"/>
                    </g>
                </g>
                <g transform="translate(0, 23.6797)">
                    <g id="Path">
                        <use fill="url(#linearGradient-14)" xlink:href="#path-16"/>
                        <use fill="url(#linearGradient-15)" xlink:href="#path-16"/>
                    </g>
                    <g id="Shape">
                        <use fill="url(#linearGradient-17)" xlink:href="#path-19"/>
                        <use fill="url(#linearGradient-18)" xlink:href="#path-19"/>
                    </g>
                    <g id="Shape">
                        <use fill="url(#linearGradient-20)" xlink:href="#path-22"/>
                        <use fill="url(#linearGradient-21)" xlink:href="#path-22"/>
                    </g>
                </g>
            </g>
            <polygon id="Path" fill="url(#linearGradient-23)" points="12.3922132 59.7305359 18.5001515 62.398506 14.6681902 57.1785645 18.1681549 53.2466086 12.2922143 53.9426008 8.70825048 49.0586556 8.68425072 54.3665961 1.94831881 55.1625871 8.66825089 58.0985542 8.64425113 63.9384887"/>
            <path d="M20.7321289,49.7026484 C20.7561287,52.5826161 22.2721134,54.6145933 24.7000888,55.4705837 C28.2280532,56.7185697 31.9000161,57.934556 35.5919787,58.2665523 C44.6478872,59.0865431 53.4077987,57.1465649 61.9917119,54.370596 C62.2397094,54.2905969 62.475707,54.1585984 62.6957048,54.0146 C62.7837039,53.9586006 62.8157036,53.8066023 62.9357024,53.5746049 C48.8398448,52.8386132 40.9919242,44.9427018 37.8039564,31.2588552 C30.6680285,36.806793 26.9000666,43.6267165 27.2840627,52.5626163 C27.1080645,52.5946159 26.9320663,52.6226156 26.7560681,52.6546153 C26.2000737,50.3386412 25.3680821,48.0506669 25.1280845,45.7026932 C23.4921011,29.5588743 30.3120321,13.1950579 45.4398792,4.77515229 C56.1797707,-1.20478064 67.4036572,-2.11277045 78.00755,5.19114762 C87.0714584,11.4310776 90.8354204,20.5309756 89.3234356,31.3428543 C87.8674504,41.7747373 81.8275114,49.0866553 71.975611,52.8666129 C65.743674,55.2585861 59.411738,57.5145608 52.9478033,59.1305426 C44.7758859,61.1745197 36.4079705,61.5465155 28.1080544,59.4305393 C25.3520823,58.7265472 22.8721073,57.4985609 21.2001242,55.0465884 C20.0481359,53.3546074 19.7561388,51.5706274 20.724129,49.6986484 L20.7321289,49.7026484 Z M88.5274437,26.9709033 C88.9594393,15.3150341 78.4115459,2.38317912 62.8157036,2.78717459 C51.2918201,3.08717122 38.6239481,12.8630616 39.5919383,29.0468801 C40.3479307,41.7067381 51.0838222,51.9826228 64.2516891,51.6746263 C78.0635495,51.3546298 88.7194418,40.64275 88.5274437,26.9669034 L88.5274437,26.9709033 Z M48.5838474,6.51913273 C35.4759799,8.65910873 23.0401056,32.3108434 26.4360713,48.4186628 C26.6920687,47.6426715 26.8920667,47.1906766 26.9880657,46.7146819 C28.2840526,40.3147537 31.3240219,34.9708136 36.3839707,30.7668608 C37.0239643,30.2348667 37.5239592,29.1468789 37.5399591,28.3068884 C37.7239572,19.6469855 40.8959251,12.4550662 47.731856,7.0031273 C47.9838535,6.80312954 48.2998503,6.67913093 48.5838474,6.52313268 L48.5838474,6.51913273 Z" id="Shape" fill="#FFFFFF"/>
        </g>
    </g>
</svg>