<?xml version="1.0" encoding="UTF-8"?>
<svg viewBox="0 0 30 30" version="1.1" xmlns="http://www.w3.org/2000/svg" xmlns:xlink="http://www.w3.org/1999/xlink">
    <title>leftmenu/sports/color/icon-sportbook</title>
    <g id="leftmenu/sports/color/icon-sportbook" stroke="none" stroke-width="1" fill="none" fill-rule="evenodd">
        <g id="sportbook" transform="translate(-0, 4)">
            <g id="football" transform="translate(17, 7)">
                <path d="M7.98155822,0.0402230599 C7.97345508,0.04057466 7.96514054,0.0403636999 7.95668509,0.0402230599 L7.95668509,0.0402230599 C7.9253999,0.0395901796 7.89200085,0.0390276193 7.85972919,0.0611081102 L7.85972919,0.0611081102 C7.20182424,0.102878211 6.65362884,0.206248662 6.2495285,0.307790792 L6.2495285,0.307790792 C6.22092087,0.310955194 6.1914677,0.316510476 6.16060528,0.325511441 L6.16060528,0.325511441 C6.10620851,0.341192809 6.0530096,0.358632177 5.99917653,0.375298025 L5.99917653,0.375298025 C5.66053551,0.472972554 5.47352901,0.554121874 5.47352901,0.554121874 L5.47352901,0.554121874 C5.47352901,0.554121874 5.4720493,0.554965714 5.46979452,0.556301795 L5.46979452,0.556301795 C4.06527279,1.0877103 2.87439226,1.94863848 1.89630737,3.14386811 L1.89630737,3.14386811 C1.51116134,3.61444979 1.18611952,4.11379235 0.917729246,4.64126293 L0.917729246,4.64126293 C0.917024625,4.64252869 0.916320003,4.64379445 0.915685844,4.64498989 L0.915685844,4.64498989 C0.913924291,4.64843558 0.912444586,4.65174062 0.910683032,4.65511598 L0.910683032,4.65511598 C0.886021285,4.70384776 0.861711849,4.75272019 0.838036572,4.80187389 L0.838036572,4.80187389 C0.818589023,4.84188599 0.799775633,4.88168713 0.781314554,4.92155859 L0.781314554,4.92155859 C0.773704643,4.93801348 0.766165195,4.95439805 0.758625746,4.97085294 L0.758625746,4.97085294 C0.734809545,5.023382 0.711557041,5.07577043 0.689150082,5.12801821 L0.689150082,5.12801821 C0.684358657,5.1391991 0.679637694,5.1504503 0.674846269,5.16170151 L0.674846269,5.16170151 C0.653919015,5.21113649 0.633414534,5.26050116 0.61382606,5.30958454 L0.61382606,5.30958454 C0.6012838,5.34087696 0.589093851,5.37231001 0.576974364,5.40367275 L0.576974364,5.40367275 C0.567814286,5.42744092 0.558583747,5.45113877 0.549705518,5.47483662 L0.549705518,5.47483662 C0.466771586,5.69437577 0.392081723,5.9180638 0.326551938,6.14639296 L0.326551938,6.14639296 C0.317955558,6.17620865 0.312459511,6.20461794 0.309218253,6.23232404 L0.309218253,6.23232404 C0.144759631,6.85564083 0.0740861105,7.42206871 0.0478037343,7.87246853 L0.0478037343,7.87246853 C0.0367411792,7.9053783 0.0412507558,7.93793648 0.0401233617,7.96796314 L0.0401233617,7.96796314 C0.0385731947,8.01493692 0.0382913462,8.0615591 0.0374458006,8.10832193 L0.0374458006,8.10832193 C0.023001063,8.60949281 0.0620370855,8.91707264 0.0620370855,8.91707264 L0.0620370855,8.91707264 C0.0620370855,8.91707264 0.0626712447,8.91784617 0.0627417068,8.91798681 L0.0627417068,8.91798681 C0.14701442,9.94212779 0.430694973,10.9141616 0.929355498,11.8304317 L0.929355498,11.8304317 C0.963247785,11.8928759 1.00355213,11.9473036 1.05090268,11.9945586 L1.05090268,11.9945586 L12.0188976,1.048753 C11.9747178,1.00459202 11.9241965,0.966478557 11.8658538,0.934623582 L11.8658538,0.934623582 C10.8597955,0.38429899 9.78503655,0.0955649272 8.64798909,0.0443016219 L8.64798909,0.0443016219 L8.64714354,0.0434577815 C8.63854716,0.0433171414 8.63023263,0.0433171414 8.62170671,0.0431765013 L8.62170671,0.0431765013 C8.50128693,0.0381837789 8.38023298,0.0355116175 8.25854487,0.0355116175 L8.25854487,0.0355116175 C8.16659179,0.0355116175 8.07428639,0.0370586583 7.98155822,0.0402230599 L7.98155822,0.0402230599 Z" id="Clip-2" fill="#FFF5E3"></path>
                <path d="M0.929566885,11.8734675 C0.978185757,11.9219884 1.03378038,11.9634069 1.09747815,11.9986372 L1.09747815,11.9986372 C2.00178918,12.4980501 2.95556464,12.7973322 3.95591556,12.9090004 L3.95591556,12.9090004 C3.95683157,12.9092113 3.95781804,12.9094926 3.95880451,12.9097036 L3.95880451,12.9097036 C4.96133975,13.1311414 6.13826879,12.9004917 6.87621872,12.697759 L6.87621872,12.697759 C6.87706426,12.697548 6.87783935,12.6974777 6.87861443,12.6972668 L6.87861443,12.6972668 C6.88136246,12.6964932 6.88411048,12.6955791 6.88678804,12.6948056 L6.88678804,12.6948056 C7.00269825,12.6628099 7.10712313,12.6317285 7.19851252,12.6031785 L7.19851252,12.6031785 C7.19956945,12.6028973 7.20062639,12.6025457 7.20175378,12.6021941 L7.20175378,12.6021941 C7.44928726,12.5247014 7.59838513,12.4668983 7.59838513,12.4668983 L7.59838513,12.4668983 L7.59986484,12.465281 C9.01319433,11.9456862 10.2055546,11.0891882 11.1777206,9.89227089 L11.1777206,9.89227089 C11.7221111,9.22205064 12.1439679,8.49135515 12.4494212,7.70102828 L12.4494212,7.70102828 L12.4494212,7.70095796 C12.4497031,7.70018444 12.4501259,7.6993406 12.4503372,7.69849676 L12.4503372,7.69849676 C12.4513942,7.69589492 12.4523807,7.69329308 12.4534376,7.69076156 L12.4534376,7.69076156 C12.5222086,7.51735235 12.5818901,7.34253675 12.634173,7.1686353 L12.634173,7.1686353 C12.6636261,7.07384389 12.6921633,6.97870089 12.7185866,6.88229212 L12.7185866,6.88229212 C12.7264784,6.85346091 12.7314812,6.82575481 12.7347929,6.79861128 L12.7347929,6.79861128 C12.8879776,6.17058305 12.9480818,5.58052764 12.9701364,5.15291151 L12.9701364,5.15291151 C12.9726731,5.14841102 12.9745051,5.14426214 12.9752097,5.14018358 L12.9752097,5.14018358 C12.9809876,5.10284364 12.9837356,5.06473018 12.9845812,5.026898 L12.9845812,5.026898 C12.9874701,4.87353001 12.9856381,4.72135745 12.9804943,4.57009906 L12.9804943,4.57009906 C12.9800011,4.55280033 12.9795783,4.53697832 12.979226,4.52467232 L12.979226,4.52467232 C12.9788737,4.51602295 12.9786623,4.50737359 12.9782396,4.4986539 L12.9782396,4.4986539 C12.9778872,4.48824654 12.9775349,4.48212869 12.9775349,4.48212869 L12.9775349,4.48212869 L12.9772531,4.48191773 C12.9232791,3.28689906 12.6115546,2.15587162 12.0214342,1.09361718 L12.0214342,1.09361718 C11.986485,1.03089171 11.9456874,0.975690482 11.8974913,0.927661898 L11.8974913,0.927661898 L0.929566885,11.8734675 Z" id="Clip-5" fill="#F6E3D0"></path>
                <path d="M7.94646808,0.00513336254 L7.89404425,0.0050630425 C7.8580381,0.00632880313 7.82069317,0.0158220078 7.78637811,0.0654679523 L7.78637811,0.0654679523 C8.84175996,0.722889957 9.79821297,1.48030705 10.6567941,2.33771923 L10.6567941,2.33771923 L11.9835961,1.01352266 C11.9394868,0.969361679 11.8890359,0.93145918 11.8306932,0.899533884 L11.8306932,0.899533884 C10.7159118,0.289788863 9.5173509,0 8.24247951,0 L8.24247951,0 C8.14425529,0 8.04553784,0.00175800087 7.94646808,0.00513336254 L7.94646808,0.00513336254 Z M6.12544468,0.290492063 C4.41617422,0.784209027 2.99579851,1.72220797 1.86114676,3.10877842 L1.86114676,3.10877842 C1.12671994,4.0062027 0.608259552,5.00755999 0.291391333,6.11130326 L0.291391333,6.11130326 C0.252566697,6.24652869 0.268138829,6.35664986 0.330215969,6.47654552 L0.330215969,6.47654552 C1.01412145,7.79771833 1.9025785,8.96432771 2.94569994,10.01512 L2.94569994,10.01512 L2.95478955,10.0241913 L3.63425591,9.34602486 C3.63235344,9.34412622 3.63016911,9.34286046 3.62826663,9.34089149 L3.62826663,9.34089149 C3.47564565,9.18428878 3.47000868,8.96165555 3.61452652,8.79098882 L3.61452652,8.79098882 C3.61804962,8.78691026 3.62171365,8.7828317 3.62530722,8.77875314 L3.62530722,8.77875314 C3.86664003,8.50401276 3.86656957,8.50408308 3.61833147,8.25620496 L3.61833147,8.25620496 C3.46556956,8.10375112 3.31055287,7.95347721 3.16103222,7.79806993 L3.16103222,7.79806993 C2.97916945,7.60926064 2.97909899,7.33191842 3.1556771,7.16610378 L3.1556771,7.16610378 C3.3313392,7.0012033 3.58972385,7.0099933 3.77292539,7.19015323 L3.77292539,7.19015323 C3.96810551,7.38205661 4.16476532,7.57248326 4.35289922,7.77113736 L4.35289922,7.77113736 C4.4497142,7.87317173 4.52644746,7.88041469 4.63199974,7.77324696 L4.63199974,7.77324696 C5.01017001,7.38929957 5.39179293,7.0085869 5.77644573,6.63110896 L5.77644573,6.63110896 C5.87805212,6.53132483 5.87459948,6.45678559 5.77792543,6.36424442 L5.77792543,6.36424442 C5.57661511,6.17128625 5.38016668,5.97312439 5.18555027,5.77341549 L5.18555027,5.77341549 C4.99812099,5.58094956 4.9932591,5.3357436 5.16765288,5.15902935 L5.16765288,5.15902935 C5.34014419,4.9840731 5.59091893,4.98744846 5.78257593,5.17316368 L5.78257593,5.17316368 C5.97902436,5.36373097 6.17004721,5.55978323 6.36494547,5.75182724 L6.36494547,5.75182724 C6.49945769,5.88445083 6.52116002,5.88360699 6.66363446,5.7428966 L6.66363446,5.7428966 C6.84958403,5.55929099 7.03384251,5.37392737 7.21880562,5.18933728 L7.21880562,5.18933728 C7.41116724,4.99673071 7.60190824,4.80243645 7.7973702,4.6130646 L7.7973702,4.6130646 C7.89221224,4.52108599 7.89270547,4.44746092 7.79948407,4.35822479 L7.79948407,4.35822479 C7.59810329,4.16533694 7.40228901,3.96661252 7.20675659,3.76774746 L7.20675659,3.76774746 C7.02066609,3.57837561 7.01531097,3.31031564 7.19033891,3.13922699 L7.19033891,3.13922699 C7.36043451,2.97299043 7.62833154,2.97615483 7.81202633,3.15350196 L7.81202633,3.15350196 C8.01256156,3.34730397 8.21218079,3.54251239 8.40341502,3.74538569 L8.40341502,3.74538569 C8.49691827,3.84446662 8.57273553,3.85297534 8.66666155,3.74573729 L8.66666155,3.74573729 C8.7130961,3.69271598 8.76544947,3.6439842 8.81977577,3.59890906 L8.81977577,3.59890906 C8.9871938,3.46016763 9.20999507,3.47345812 9.36487084,3.62703707 L9.36487084,3.62703707 L10.0423643,2.95090994 C9.73197857,2.64269723 9.40778228,2.3456654 9.06900034,2.0606583 L9.06900034,2.0606583 C8.27291915,1.39100061 7.41687468,0.811774481 6.49114315,0.330715123 L6.49114315,0.330715123 C6.41462128,0.290984304 6.34190435,0.269536693 6.26383231,0.269536693 L6.26383231,0.269536693 C6.2199344,0.269536693 6.1743454,0.276287416 6.12544468,0.290492063 L6.12544468,0.290492063 Z M0.00503321873,7.88027405 L0.00503321873,7.93287344 C-0.0423173356,9.310021 0.243688468,10.6001124 0.894194893,11.795342 L0.894194893,11.795342 C0.928157642,11.8577159 0.968321058,11.9120732 1.01560115,11.9594689 L1.01560115,11.9594689 L2.34233268,10.635413 C1.48382203,9.77870403 0.724169763,8.823547 0.0641509495,7.76980128 L0.0641509495,7.76980128 C0.0158843874,7.80629738 0.00651292355,7.84412955 0.00503321873,7.88027405 L0.00503321873,7.88027405 Z" id="Clip-8" fill="#FC6E51"></path>
                <path d="M10.6567941,2.33764891 C11.516573,3.19632686 12.2782687,4.15535149 12.942938,5.21493378 L12.942938,5.21493378 C12.9683749,5.17548424 12.9818331,5.16303759 12.9842288,5.14911422 L12.9842288,5.14911422 C12.9904295,5.11226653 12.9938117,5.07464531 12.99508,5.03737569 L12.99508,5.03737569 C13.0419373,3.66001717 12.7548041,2.37020709 12.1033817,1.17539938 L12.1033817,1.17539938 C12.0698417,1.11400999 12.0303125,1.06028548 11.9835961,1.01345234 L11.9835961,1.01345234 L10.6567941,2.33764891 Z M9.36909857,3.63076403 C9.51805553,3.78209275 9.5298227,4.00289766 9.39749481,4.16786846 L9.39749481,4.16786846 C9.38720734,4.18059639 9.37621525,4.19262111 9.36529362,4.20478648 L9.36529362,4.20478648 C9.12987963,4.46672861 9.12987963,4.46672861 9.36790072,4.70434 L9.36790072,4.70434 C9.52432666,4.8605208 9.68286646,5.014592 9.83647391,5.17344496 L9.83647391,5.17344496 C10.0198868,5.36316841 10.0215075,5.6316503 9.84499983,5.80555175 L9.84499983,5.80555175 C9.67638394,5.97185863 9.41186909,5.96447503 9.2272583,5.78403382 L9.2272583,5.78403382 C9.03158495,5.59276332 8.8353479,5.40177411 8.64714354,5.20333097 L8.64714354,5.20333097 C8.55082181,5.10171852 8.474159,5.09243628 8.36811349,5.20009625 L8.36811349,5.20009625 C7.98994322,5.58411396 7.60824983,5.96482663 7.22359704,6.34230457 L7.22359704,6.34230457 C7.12255434,6.44145582 7.12396358,6.5161357 7.22106041,6.6091691 L7.22106041,6.6091691 C7.42244119,6.80205696 7.61867823,7.00028914 7.81350603,7.19992772 L7.81350603,7.19992772 C8.00079438,7.39183109 8.00607904,7.63914665 7.83231942,7.81431386 L7.83231942,7.81431386 C7.65891211,7.98912947 7.40820783,7.98589474 7.21655083,7.80017953 L7.21655083,7.80017953 C7.01622698,7.60602592 6.818017,7.4097627 6.62438705,7.20906932 L6.62438705,7.20906932 C6.53313859,7.11441855 6.45873057,7.10387055 6.35719464,7.20703004 L6.35719464,7.20703004 C5.97514894,7.59491535 5.58915737,7.97879242 5.20175656,8.36126309 L5.20175656,8.36126309 C5.1073373,8.45450746 5.10761915,8.52735901 5.20048824,8.61617322 L5.20048824,8.61617322 C5.40186902,8.80906107 5.59768329,9.00778549 5.79328618,9.20658023 L5.79328618,9.20658023 C5.97536033,9.3918032 5.98473179,9.65262021 5.81949809,9.82300565 L5.81949809,9.82300565 C5.64750002,10.0003528 5.37946206,10.0022514 5.1860435,9.81787229 L5.1860435,9.81787229 C4.98050545,9.62167939 4.77891329,9.42105633 4.58260578,9.21579215 L4.58260578,9.21579215 C4.49643059,9.12557155 4.42639123,9.12761083 4.34275268,9.21895655 L4.34275268,9.21895655 C4.29504981,9.2710637 4.24368292,9.32035804 4.18999077,9.36613639 L4.18999077,9.36613639 C4.01714715,9.51366782 3.79314803,9.50382301 3.63425591,9.34602486 L3.63425591,9.34602486 L2.95486001,10.0240506 C3.2660208,10.3395766 3.59824976,10.6315454 3.93653847,10.9178183 L3.93653847,10.9178183 C4.73452214,11.5931016 5.59641497,12.1738747 6.53060195,12.6514181 L6.53060195,12.6514181 C6.64200258,12.708307 6.74311575,12.7201911 6.86614263,12.6848201 L6.86614263,12.6848201 C8.5815433,12.1913141 10.0062172,11.2500101 11.143617,9.85816567 L11.143617,9.85816567 C11.8737456,8.96474963 12.3898807,7.96803346 12.7059034,6.86970483 L12.7059034,6.86970483 C12.7464191,6.7288538 12.7305652,6.61458375 12.6653172,6.48990633 L12.6653172,6.48990633 C11.9701378,5.16282663 11.0883747,3.98988845 10.0423643,2.95083962 L10.0423643,2.95083962 L9.36909857,3.63076403 Z M1.01560115,11.9593986 C1.06274032,12.0065131 1.11706662,12.0465955 1.17942561,12.0804194 L1.17942561,12.0804194 C2.37700005,12.729403 3.66934606,13.0162384 5.04941742,12.9683505 L5.04941742,12.9683505 L5.10219356,12.9682802 C5.13848156,12.9668034 5.17681296,12.9575212 5.21493298,12.9101255 L5.21493298,12.9101255 C4.15877604,12.2505236 3.20105471,11.4922626 2.34233268,10.6353427 L2.34233268,10.6353427 L1.01560115,11.9593986 Z" id="Clip-11" fill="#D54E32"></path>
            </g>
            <g id="tennis" transform="translate(14.0523, 0)">
                <path d="M3.69450265,0.0738678159 C1.30955536,0.455568678 -0.320624162,2.73887244 0.0534167545,5.17362795 L0.0534167545,5.17362795 C0.427309095,7.60830762 2.66390292,9.27260832 5.0488502,8.89075578 L5.0488502,8.89075578 C7.4337232,8.50897908 9.06397701,6.22575115 8.6899361,3.79099564 L8.6899361,3.79099564 C8.35192494,1.59058459 6.49226927,0.0195666402 4.37706232,0.0193388803 L4.37706232,0.0193388803 C4.1518206,0.0193388803 3.92405308,0.0370855949 3.69450265,0.0738678159 L3.69450265,0.0738678159 Z" id="Clip-14" fill="#FDFFEE"></path>
                <path d="M4.10026461,0.00887325223 C4.14379747,1.1158285 3.7770368,2.35899173 2.99337093,3.45684623 L2.99337093,3.45684623 C2.2094822,4.55515576 1.16187048,5.29292369 0.117081713,5.58824321 L0.117081713,5.58824321 C0.35985544,6.56672613 0.925114097,7.46413648 1.78507391,8.1054364 L1.78507391,8.1054364 C2.64488515,8.74582624 3.65735856,9.01960731 4.64219678,8.95590202 L4.64219678,8.95590202 C4.59881249,7.85152532 4.96527602,6.6064661 5.74923904,5.50853576 L5.74923904,5.50853576 C6.53305348,4.41136382 7.58088806,3.67352005 8.62627114,3.37630454 L8.62627114,3.37630454 C8.38372027,2.40070353 7.81786731,1.50094215 6.95753606,0.860324788 L6.95753606,0.860324788 C6.17788175,0.279620734 5.27334904,0 4.37698803,0 L4.37698803,0 C4.28464784,0 4.19223336,0.00295776102 4.10026461,0.00887325223 L4.10026461,0.00887325223 Z M0.848300133,1.86102872 C0.159500256,2.82570882 -0.0985768336,3.97718194 0.0383362567,5.07564315 L0.0383362567,5.07564315 C0.953789329,4.80315136 1.88075707,4.1357626 2.58315168,3.15166755 L2.58315168,3.15166755 C3.28524914,2.1687101 3.6238546,1.06304412 3.59852233,0.0891874213 L3.59852233,0.0891874213 C2.53256144,0.29281683 1.53739716,0.895666056 0.848300133,1.86102872 L0.848300133,1.86102872 Z M6.15923542,5.81295604 C5.45706368,6.79629269 5.11860679,7.90051772 5.14483051,8.87543617 L5.14483051,8.87543617 C6.21079141,8.67157925 7.20536138,8.06910922 7.89482985,7.10473247 L7.89482985,7.10473247 C8.58414975,6.13990069 8.83977533,4.98774502 8.70501659,3.88890461 L8.70501659,3.88890461 C7.78852349,4.16162392 6.86140717,4.82961939 6.15923542,5.81295604 L6.15923542,5.81295604 Z" id="Clip-17" fill="#D6E826"></path>
            </g>
            <g id="soccer" transform="translate(4.2619, 3.0098)">
                <path d="M18.8852107,9.46766784 C18.8852107,4.23882865 14.7330966,0 9.61122465,0 C7.39810589,0 5.36647312,0.791841586 3.77224908,2.11251292 L3.93382584,2.74812486 L3.65182796,2.8228269 L3.52501806,2.32418133 C1.57190788,4.05992296 0.337238559,6.61647691 0.337238559,9.46766784 C0.337238559,14.696507 4.48935275,18.9353357 9.61122465,18.9353357 C14.7330966,18.9353357 18.8852107,14.696507 18.8852107,9.46766784" id="bg" fill="#EDEDED"></path>
                <path d="M12.7624395,8.53909498 L13.6671208,3.86987643 L13.9529074,3.92759039 L13.0482261,8.59680894 L12.7624395,8.53909498 Z M13.8497806,11.5035827 L18.1602028,10.7058256 L18.2122045,10.9984908 L13.9017823,11.7962479 L13.8497806,11.5035827 Z M12.1550149,14.8515232 L12.4378299,14.780234 L13.0755196,17.4187706 L12.7927045,17.4900598 L12.1550149,14.8515232 Z M4.54467514,15.5503778 L8.92091673,13.8372364 L9.0252916,14.1149611 L4.64905002,15.8281026 L4.54467514,15.5503778 Z M4.83106345,6.34621481 L5.02079543,6.12044022 L9.06794044,9.66435033 L8.87828275,9.89012491 L4.83106345,6.34621481 Z M1.85185541,8.01015147 L2.14306502,8.00036816 L2.30397319,13.0180698 L2.01276358,13.0278531 L1.85185541,8.01015147 Z M5.74246039,3.05139996 L10.7066185,1.47257053 L10.7932385,1.75651411 L5.82908039,3.33534354 L5.74246039,3.05139996 Z M3.93383327,2.74814003 L3.77218222,2.11252809 C3.68868232,2.18169383 3.60614817,2.25207301 3.52502549,2.32412066 L3.65183539,2.82284207 L3.93383327,2.74814003 Z M16.0115068,3.43329042 L15.7668758,3.59482884 L18.3230573,7.63093815 L18.4272093,7.24756882 L16.0115068,3.43329042 Z" id="Combined-Shape" fill="#B3B4B8"></path>
                <path d="M1.12774637,5.75198096 C1.14765559,5.70966245 1.16749053,5.66726809 1.18739976,5.62494958 C1.96920842,4.65435398 2.75525151,3.68724701 3.52836846,2.70952249 C3.64908673,2.55693315 3.7578446,2.53031344 3.93465044,2.5675507 C4.70464728,2.72961999 5.47754136,2.87735559 6.24932112,3.03032413 C6.39834318,3.09258847 6.33014665,3.147193 6.31239177,3.26724714 C6.06025774,4.34644508 5.80804941,5.42571887 5.55584109,6.50499266 C5.52137138,6.62618439 5.48682738,6.74737612 5.45235767,6.86849201 C4.34576115,7.36850269 3.23923891,7.86851338 2.13264239,8.36852407 C2.03792498,8.413952 1.9988494,8.42517627 1.90636064,8.40454789 C1.64679778,7.52033363 1.38730922,6.63619522 1.12774637,5.75198096 M5.70276822,17.7440467 C5.48554963,17.715076 5.1843854,17.6934617 4.9671668,17.6645668 C4.10958421,17.1643286 3.58065247,16.7111868 2.97007803,16.0774709 C2.28826124,15.3698871 1.67389811,14.5023576 1.29829714,13.6695626 C1.55808285,13.4029863 1.8446866,13.122683 2.10447232,12.8561067 C2.21092726,12.7177752 2.31775364,12.7376452 2.4247286,12.8554241 C3.29531162,13.6605377 4.16916332,14.5247303 5.03647766,15.2706889 C5.11953183,15.3421298 5.1862426,15.4357159 5.23371274,15.5353692 C5.55240898,16.2041989 5.60143917,16.9748054 5.78530238,17.6944476 C5.7889425,17.7362353 5.77252481,17.7440467 5.70276822,17.7440467 M10.4019702,18.9146239 C10.5162254,18.9008211 10.6306292,18.888535 10.7446615,18.8729879 C12.4258027,18.6438005 13.9568818,18.0464876 15.2824798,16.9450687 C14.4997054,17.1148736 13.716931,17.2846027 12.9341566,17.4544076 C12.8455308,17.4943751 12.7569793,17.5343426 12.6683536,17.5743101 C11.9014025,18.0044725 11.1344515,18.4346348 10.3675005,18.8647972 C10.3426882,18.8847431 10.3179503,18.9046889 10.2932123,18.9246347 C10.3294649,18.9212978 10.3657176,18.9179608 10.4019702,18.9146239 M15.1294759,11.7156531 C14.2875681,12.830799 13.4457346,13.9458691 12.6038269,15.061015 C12.5348131,15.1589998 12.4388328,15.1817517 12.328292,15.1637019 C11.1639736,14.8692925 9.99965519,14.574883 8.83533676,14.2804736 C8.74425947,14.2432363 8.67584007,14.1888593 8.68646327,14.0748723 C8.68468036,12.6035835 8.68297173,11.1323705 8.68118882,9.66108165 C8.71662427,9.59320518 8.75205973,9.52532871 8.78749518,9.4573764 C10.1529117,9.02198108 11.5183282,8.58658576 12.8836704,8.15119044 C13.0202863,8.12077874 13.0429442,8.11448405 13.1176781,8.19775597 C13.7907289,9.28082174 14.4637054,10.3638875 15.1367562,11.4468774 C15.1686258,11.5449381 15.1747917,11.6086434 15.1294759,11.7156531 M10.3971563,1.66167665 C10.7266986,1.16416867 11.0562409,0.666660691 11.3857832,0.169152713 C12.7795778,0.436563251 14.037945,1.01734314 15.1716568,1.88221829 C15.2602825,1.94979141 15.323056,2.05270578 15.3978642,2.13916296 C15.6645587,2.67011622 15.9313275,3.20099363 16.1980963,3.73194689 C16.1993592,3.81703896 16.3100486,3.92457955 16.149809,3.97645386 C15.370229,4.05540292 14.5905747,4.13442781 13.8109947,4.21337687 C13.7140486,4.21337687 13.656401,4.21337687 13.5271396,4.10902153 C12.520535,3.380051 11.513856,2.65115631 10.5071771,1.92218578 C10.439352,1.84907638 10.3106106,1.80273836 10.3971563,1.66167665 M18.0446327,13.3861802 C17.9723503,12.9683797 17.9442694,12.7274372 17.9057881,12.3970039 C17.8582437,11.9880766 17.837963,11.5758124 17.8058706,11.1649891 C17.8073563,11.053429 17.8088421,10.9419448 17.8103278,10.8304605 C17.9541497,9.74966992 18.0979716,8.66887934 18.2417935,7.5881646 C18.3137045,7.15709214 18.355603,7.13191338 18.4490575,7.26751464 C18.5188884,7.42131741 18.5851534,7.50557524 18.7024544,7.89228152 C19.1665326,9.53193434 18.8751001,10.9681853 18.3876955,12.5508067 C18.2993668,12.8376322 18.1602994,13.1081521 18.0446327,13.3861802" id="Combined-Shape" fill="#344D5B"></path>
                <path d="M18.0163512,5.63860071 C18.5438715,6.82700773 18.8376069,8.14661731 18.8376069,9.5363027 C18.8376069,14.7575579 14.6915843,18.9901677 9.57721553,18.9901677 C7.63562002,18.9901677 5.83390912,18.3797345 4.34532285,17.3371671 L4.10123228,17.1602405 C2.09147892,15.653089 0.699323082,13.3378599 0.384812701,10.6833999 C0.432191863,10.7901455 0.481457366,10.895832 0.532565772,11.0004152 L0.423219683,10.7668235 L0,6.98864473 C0.572167456,6.78402941 1.18675346,6.67155924 1.82734031,6.67155924 C4.87998964,6.67155924 7.35475132,9.19792902 7.35475132,12.314407 C7.35475132,13.6473643 6.90092491,14.8715676 6.14377992,15.8371578 C5.72132518,15.7069594 5.31162541,15.5467775 4.91704954,15.3590368 C5.31169571,15.5468165 5.72137122,15.7069692 6.14377992,15.8371578 C6.99221021,16.0986301 7.89191419,16.2395402 8.82393353,16.2395402 C13.9383023,16.2395402 18.0843992,12.0068545 18.0843992,6.78567513 C18.0843992,6.39737622 18.0609241,6.0146136 18.0163512,5.63860071 Z" id="Combined-Shape" fill="#000000" opacity="0.1"></path>
            </g>
            <g id="cricket" transform="translate(0, 9.5763)">
                <path d="M10.9222372,5.61180881 C10.9222372,8.70758254 8.47719076,11.2171918 5.4611655,11.2171918 C2.44506595,11.2171918 1.9535727e-05,8.70758254 1.9535727e-05,5.61180881 C1.9535727e-05,2.51603508 2.44506595,0.00642585643 5.4611655,0.00642585643 C8.47719076,0.00642585643 10.9222372,2.51603508 10.9222372,5.61180881" id="Fill-61" fill="#FFFFFF"></path>
                <path d="M9.03094961,1.37888049 L1.33580991,9.31087164 C-0.538406235,7.08285496 -0.42801402,3.74181587 1.58890969,1.65038637 C3.61534229,-0.440891454 6.86611816,-0.559428797 9.03094961,1.37888049" id="Fill-63" fill="#EE5461"></path>
                <path d="M9.56289745,1.93784132 C11.4689832,4.16312777 11.3680256,7.53253089 9.33230698,9.63230275 C7.29658836,11.7320746 4.02790905,11.8384018 1.86775775,9.87514124 L9.56289745,1.93784132 Z" id="Fill-66" fill="#EE5461"></path>
                <path d="M7.22336995,1.32564107 L6.75342301,1.85265066 C6.71865615,1.88981208 6.71865615,1.94866363 6.75342301,1.98574921 L6.98067051,2.22532661 C7.0184089,2.26180547 7.07717084,2.26180547 7.11490923,2.22532661 L7.58485616,1.69831701 C7.62029162,1.65941128 7.62029162,1.59881542 7.58485616,1.55990969 L7.35248278,1.32564107 C7.31645302,1.28984476 7.25939971,1.28984476 7.22336995,1.32564107" id="Fill-68" fill="#FFFFFF"></path>
                <path d="M6.21629728,2.43800368 C6.190445,2.43800368 6.16585562,2.44975883 6.14914078,2.47015969 L5.67399367,2.95993202 C5.63922681,2.99709344 5.63922681,3.055945 5.67399367,3.09303058 L5.89091511,3.35384307 C5.92694487,3.38971521 5.98399818,3.38971521 6.02002795,3.35384307 L6.49517506,2.86414657 L6.49517506,2.84283563 C6.53529067,2.8083286 6.54205089,2.74742938 6.51070128,2.70442831 L6.28345378,2.47015969 C6.26673895,2.44975883 6.24214956,2.43800368 6.21629728,2.43800368" id="Fill-70" fill="#FFFFFF"></path>
                <path d="M9.25301922,3.42309223 L8.77274623,3.91817334 C8.73797937,3.95533476 8.73797937,4.01411048 8.77274623,4.0512719 L9.00511961,4.29084929 C9.042858,4.32732815 9.10161994,4.32732815 9.13943262,4.29084929 L9.61450544,3.79576818 C9.6492723,3.75860676 9.6492723,3.69975521 9.61450544,3.66266963 L9.38213206,3.42309223 C9.3461023,3.38729593 9.28904898,3.38729593 9.25301922,3.42309223" id="Fill-72" fill="#FFFFFF"></path>
                <path d="M5.0387927,3.6147314 L4.56364559,4.10450373 C4.52821014,4.14340946 4.52821014,4.20400533 4.56364559,4.24291106 L4.79609326,4.48248845 C4.83204873,4.51828476 4.88917633,4.51828476 4.9252061,4.48248845 L5.40547909,3.98740734 C5.44024595,3.95024592 5.44024595,3.89139437 5.40547909,3.85430879 L5.17310571,3.6147314 C5.13529303,3.57825253 5.07653109,3.57825253 5.0387927,3.6147314" id="Fill-74" fill="#FFFFFF"></path>
                <path d="M8.1581528,4.55166936 L7.68300569,5.0414417 C7.64757023,5.08034743 7.64757023,5.1409433 7.68300569,5.17984903 L7.91025319,5.41404181 C7.94799158,5.45059651 8.00675352,5.45059651 8.0445662,5.41404181 L8.51963902,4.92434531 C8.55440588,4.88718389 8.55440588,4.82833234 8.51963902,4.79124676 L8.28726563,4.55166936 C8.25123587,4.51587306 8.19418256,4.51587306 8.1581528,4.55166936" id="Fill-76" fill="#FFFFFF"></path>
                <path d="M3.94908188,4.72201276 L3.47393477,5.21178509 C3.43849931,5.25069083 3.43849931,5.31128669 3.47393477,5.35019242 L3.70118227,5.5843852 C3.73892066,5.6209399 3.79768259,5.6209399 3.83549527,5.5843852 L4.31056809,5.0946887 C4.34533496,5.05752729 4.34533496,4.99867573 4.31056809,4.96159015 L4.07819471,4.72201276 C4.04216495,4.68621645 3.98511164,4.68621645 3.94908188,4.72201276" id="Fill-78" fill="#FFFFFF"></path>
                <path d="M7.06327152,5.68024649 L6.58812441,6.17001883 C6.55268895,6.20892456 6.55268895,6.26952043 6.58812441,6.30842616 L6.82057208,6.54261894 C6.85652755,6.57849108 6.91365515,6.57849108 6.94968491,6.54261894 L7.42475774,6.05292244 C7.4595246,6.01576102 7.4595246,5.95690947 7.42475774,5.91982389 L7.19758453,5.68024649 C7.15977185,5.64376763 7.10100991,5.64376763 7.06327152,5.68024649" id="Fill-80" fill="#FFFFFF"></path>
                <path d="M2.85420803,5.85058989 L2.37906091,6.34036223 C2.34429405,6.3774478 2.34429405,6.43629936 2.37906091,6.47346078 L2.60630842,6.71296233 C2.6440468,6.74951703 2.70280874,6.74951703 2.74062142,6.71296233 L3.21569424,6.22326584 C3.2511297,6.1843601 3.2511297,6.12376424 3.21569424,6.08485851 L2.98332086,5.85058989 C2.9472911,5.81479358 2.89023779,5.81479358 2.85420803,5.85058989" id="Fill-82" fill="#FFFFFF"></path>
                <path d="M5.96839767,6.80882363 L5.49325056,7.29859596 C5.4584837,7.33568154 5.4584837,7.39453309 5.49325056,7.43169451 L5.72569823,7.67119607 C5.7616537,7.70706821 5.8187813,7.70706821 5.85481106,7.67119607 L6.32988389,7.18149957 C6.36531934,7.142518 6.36531934,7.08199798 6.32988389,7.04309224 L6.10271067,6.80882363 C6.064898,6.77234476 6.00613606,6.77234476 5.96839767,6.80882363" id="Fill-84" fill="#FFFFFF"></path>
                <path d="M1.74383766,6.9791746 L1.26869055,7.46894694 C1.23392369,7.50603252 1.23392369,7.56488407 1.26869055,7.60204549 L1.50113822,7.84154705 C1.5370937,7.87741919 1.5942213,7.87741919 1.63025106,7.84154705 L2.10532388,7.35185055 L2.12085011,7.35185055 C2.152274,7.30877364 2.14543949,7.24795026 2.10532388,7.21344322 L1.87815067,6.9791746 C1.84033799,6.94269574 1.78157605,6.94269574 1.74383766,6.9791746" id="Fill-86" fill="#FFFFFF"></path>
                <path d="M4.95357675,7.88410066 C4.92846735,7.88410066 4.90469513,7.89585581 4.88902033,7.91610499 L4.40874733,8.40587732 C4.37398047,8.4429629 4.37398047,8.50181446 4.40874733,8.53897588 L4.64112072,8.77847743 C4.67722477,8.80881328 4.72900362,8.80881328 4.76510767,8.77847743 L5.21952838,8.31001603 L5.24018049,8.31001603 C5.26543847,8.29257291 5.28141042,8.26405721 5.2834162,8.23281129 C5.28542198,8.20156536 5.27331301,8.17107783 5.25050655,8.15037361 L5.01813316,7.91610499 C5.00245836,7.89585581 4.97868615,7.88410066 4.95357675,7.88410066" id="Fill-88" fill="#FFFFFF"></path>
                <path d="M3.76316088,9.06065394 L3.28801377,9.55042628 C3.25257832,9.58933201 3.25257832,9.64992788 3.28801377,9.68883361 L3.51526127,9.928411 C3.55299966,9.96488986 3.6117616,9.96488986 3.64957428,9.928411 L4.1246471,9.43332989 C4.15324804,9.39783694 4.15324804,9.34634183 4.1246471,9.31084889 L3.89227372,9.06065394 C3.85624396,9.02485764 3.79919064,9.02485764 3.76316088,9.06065394" id="Fill-90" fill="#FFFFFF"></path>
                <path d="M10.4196629,3.35017243 C10.4458866,3.57352014 10.4597042,3.80081151 10.4597042,4.03143983 C10.4597042,7.13252234 8.01681214,9.64645442 5.00331267,9.64645442 C2.79190254,9.64645442 0.887748264,8.29256533 0.0307599789,6.34644456 C0.357553622,9.12619455 2.65773811,11.2801159 5.44718447,11.2801159 C8.46068393,11.2801159 10.903576,8.76618383 10.903576,5.66517716 C10.903576,4.83981446 10.7304846,4.05601187 10.4196629,3.35017243" id="Fill-92" fill="#000000" opacity="0.1"></path>
            </g>
        </g>
    </g>
</svg>
