<?xml version="1.0" encoding="UTF-8"?>
<svg viewBox="0 0 18 18" version="1.1" xmlns="http://www.w3.org/2000/svg" xmlns:xlink="http://www.w3.org/1999/xlink">
    <title>icon-search-type01</title>
    <g id="icon-search-type01" stroke="none" stroke-width="1" fill="none" fill-rule="evenodd">
        <path d="M16.7,15.9 L12.5,11.6 C13.6,10.3 14.2,8.7 14.2,7.1 C14.2,3.2 11,-4.61852778e-14 7.1,-4.61852778e-14 C3.2,-4.61852778e-14 2.78888024e-13,3.2 2.78888024e-13,7.1 C2.78888024e-13,11 3.2,14.2 7.1,14.2 C8.6,14.2 10,13.8 11.1,12.9 L15.3,17.3 C15.5,17.5 15.7,17.6 16,17.6 C16.2,17.6 16.5,17.5 16.6,17.3 C17,16.9 17,16.3 16.7,15.9 Z M7.1,1.8 C10,1.8 12.3,4.1 12.3,7 C12.3,9.9 10,12.2 7.1,12.2 C4.2,12.2 1.9,9.9 1.9,7 C1.9,4.1 4.2,1.8 7.1,1.8 Z" id="Shape" fill="#FFFFFF" fill-rule="nonzero"></path>
    </g>
</svg>