<?xml version="1.0" encoding="UTF-8"?>
<svg width="120px" height="110px" viewBox="0 0 120 110" version="1.1" xmlns="http://www.w3.org/2000/svg" xmlns:xlink="http://www.w3.org/1999/xlink">
	<title>img/deposit</title>
	<defs>
		<filter x="0.0%" y="0.0%" width="100.0%" height="100.0%" filterUnits="objectBoundingBox" id="filter-1">
			<feGaussianBlur stdDeviation="0" in="SourceGraphic"/>
		</filter>
		<linearGradient x1="70.7886575%" y1="44.7856762%" x2="50%" y2="50%" id="linearGradient-2">
			<stop stop-color="#303030" offset="0%"/>
			<stop stop-color="#898989" offset="100%"/>
		</linearGradient>
		<linearGradient x1="87.2275647%" y1="78.5807865%" x2="87.2275647%" y2="0%" id="linearGradient-3">
			<stop stop-color="#383838" offset="0%"/>
			<stop stop-color="#939393" offset="100%"/>
		</linearGradient>
		<linearGradient x1="11.2173818%" y1="28.052464%" x2="95.8583159%" y2="73.8799565%" id="linearGradient-4">
			<stop stop-color="#878585" offset="0%"/>
			<stop stop-color="#5D5D5D" offset="100%"/>
		</linearGradient>
		<linearGradient x1="12.8878042%" y1="33.4357909%" x2="94.9494661%" y2="68.4099022%" id="linearGradient-5">
			<stop stop-color="#8E8E8E" offset="0%"/>
			<stop stop-color="#5F5F5F" offset="100%"/>
		</linearGradient>
		<linearGradient x1="12.8878042%" y1="33.434054%" x2="95.8583159%" y2="68.7992187%" id="linearGradient-6">
			<stop stop-color="#838383" offset="0%"/>
			<stop stop-color="#FFFFFF" offset="100%"/>
		</linearGradient>
	</defs>
	<g id="other-page" stroke="none" stroke-width="1" fill="none" fill-rule="evenodd">
		<g id="交易記錄-存款empty" transform="translate(-1038.000000, -599.000000)">
			<g id="编组-2" transform="translate(1038.000000, 509.000000)">
				<g id="img/deposit" transform="translate(0.000000, 90.000000)">
					<ellipse id="椭圆形" fill-opacity="0.2" fill="#000000" filter="url(#filter-1)" cx="59.7411218" cy="92.3996017" rx="59.7411218" ry="17.5240624"/>
					<path d="M21.5068038,22.3033521 C22.3866468,22.3033521 23.0999004,23.0166058 23.0999004,23.8964487 L23.0989658,26.2853521 L25.4895453,26.2860936 C26.3693883,26.2860936 27.0826419,26.9993472 27.0826419,27.8791902 C27.0826419,28.7590331 26.3693883,29.4722868 25.4895453,29.4722868 L23.0989658,29.4713521 L23.0999004,31.8619316 C23.0999004,32.7417746 22.3866468,33.4550282 21.5068038,33.4550282 C20.6269609,33.4550282 19.9137073,32.7417746 19.9137073,31.8619316 L19.9129658,29.4713521 L17.5240624,29.4722868 C16.6442194,29.4722868 15.9309658,28.7590331 15.9309658,27.8791902 C15.9309658,26.9993472 16.6442194,26.2860936 17.5240624,26.2860936 L19.9129658,26.2853521 L19.9137073,23.8964487 C19.9137073,23.0166058 20.6269609,22.3033521 21.5068038,22.3033521 Z" id="形状结合" fill="#5F5F5F"/>
					<path d="M42.2170594,1.33226763e-14 C42.8455187,1.33611583e-14 43.3549855,0.509466882 43.3549855,1.13792613 L43.354318,2.844 L45.0618747,2.84481532 C45.690334,2.84481532 46.1998009,3.35428221 46.1998009,3.98274145 C46.1998009,4.6112007 45.690334,5.12066758 45.0618747,5.12066758 L43.354318,5.12 L43.3549855,6.82755678 C43.3549855,7.45601603 42.8455187,7.96548291 42.2170594,7.96548291 C41.5886002,7.96548291 41.0791333,7.45601603 41.0791333,6.82755678 L41.078318,5.12 L39.3722441,5.12066758 C38.7437848,5.12066758 38.234318,4.6112007 38.234318,3.98274145 C38.234318,3.35428221 38.7437848,2.84481532 39.3722441,2.84481532 L41.078318,2.844 L41.0791333,1.13792613 C41.0791333,0.509466882 41.5886002,1.32841943e-14 42.2170594,1.33226763e-14 Z" id="形状结合备份" fill="#9E9E9E"/>
					<path d="M92.3909725,5.57583804 C93.495542,5.57583804 94.3909725,6.47126854 94.3909725,7.57583804 L94.3905705,11.549838 L98.3650846,11.5499502 C99.4696541,11.5499502 100.365085,12.4453807 100.365085,13.5499502 L100.365085,14.32924 C100.365085,15.4338095 99.4696541,16.32924 98.3650846,16.32924 L94.3905705,16.328838 L94.3909725,20.3033521 C94.3909725,21.4079216 93.495542,22.3033521 92.3909725,22.3033521 L91.6116827,22.3033521 C90.5071132,22.3033521 89.6116827,21.4079216 89.6116827,20.3033521 L89.6115705,16.328838 L85.6375705,16.32924 C84.533001,16.32924 83.6375705,15.4338095 83.6375705,14.32924 L83.6375705,13.5499502 C83.6375705,12.4453807 84.533001,11.5499502 85.6375705,11.5499502 L89.6115705,11.549838 L89.6116827,7.57583804 C89.6116827,6.47126854 90.5071132,5.57583804 91.6116827,5.57583804 L92.3909725,5.57583804 Z" id="形状结合备份-2" fill="#828282"/>
					<g id="deposit" transform="translate(18.320611, 16.727514)" fill-rule="nonzero">
						<path d="M43.4122501,0 C54.410287,0 63.3259574,8.91567043 63.3259574,19.9137073 C63.3259574,30.9117441 54.410287,39.8274145 43.4122501,39.8274145 C43.0109411,39.8274145 42.6124046,39.8155437 42.2169728,39.792134 C52.6591578,39.1742677 60.9363125,30.510604 60.9363125,19.9137073 C60.9363125,9.3168105 52.6591578,0.653146802 42.2173831,0.0352509765 C42.6124046,0.0118708425 43.0109411,0 43.4122501,0 Z" id="形状结合" fill="url(#linearGradient-2)"/>
						<path d="M39.0308662,0 C50.0289031,0 58.9445735,8.91567043 58.9445735,19.9137073 C58.9445735,30.9117441 50.0289031,39.8274145 39.0308662,39.8274145 C28.0380286,39.8148728 19.1297007,30.9065449 19.117159,19.9137073 C19.117159,8.91567043 28.0328294,0 39.0308662,0 Z M41.022237,7.96548291 L37.0394955,7.96548291 L37.0394955,9.95685363 C33.7441697,9.96669539 31.0752251,12.63564 31.0653833,15.9309658 C31.0752251,19.2262917 33.7441697,21.8952362 37.0394955,21.905078 L37.0394955,21.905078 L37.0394955,25.8878194 C35.9396918,25.8878194 35.0481248,24.9962524 35.0481248,23.8964487 L35.0481248,23.8964487 L31.0653833,23.8964487 C31.0752251,27.1917746 33.7441697,29.8607191 37.0394955,29.8705609 L37.0394955,29.8705609 L37.0394955,31.8619316 L41.022237,31.8619316 L41.022237,29.8705609 C44.321648,29.8705609 46.9963492,27.1958598 46.9963492,23.8964487 C46.9963492,20.5970377 44.321648,17.9223365 41.022237,17.9223365 L41.022237,17.9223365 L41.022237,13.9395951 C42.1220407,13.9395951 43.0136077,14.8311621 43.0136077,15.9309658 L43.0136077,15.9309658 L46.9963492,15.9309658 C46.9865074,12.63564 44.3175628,9.96669539 41.022237,9.95685363 L41.022237,9.95685363 L41.022237,7.96548291 Z M40.6239628,23.0999004 C41.5038058,23.0999004 42.2170594,23.8131541 42.2170594,24.692997 C42.2170594,25.57284 41.5038058,26.2860936 40.6239628,26.2860936 L40.6239628,26.2860936 Z M36.6412214,14.3378692 L36.6412214,17.5240624 C35.7613784,17.5240624 35.0481248,16.8108088 35.0481248,15.9309658 C35.0481248,15.0511229 35.7613784,14.3378692 36.6412214,14.3378692 L36.6412214,14.3378692 Z" id="形状结合" fill="url(#linearGradient-3)"/>
						<path d="M80.0232085,42.473575 C82.8956476,42.4819822 85.2220883,44.7618941 85.2306671,47.5768843 L85.2306671,47.5768843 L85.2306671,54.3812969 C85.2220883,57.1962871 82.8956476,59.4761991 80.0232085,59.4846063 L80.0232085,59.4846063 L66.1366524,59.4846063 C63.2642134,59.4761991 60.9377726,57.1962871 60.9291938,54.3812969 L60.9291938,54.3812969 L60.9291938,47.5768843 C60.9377726,44.7618941 63.2642134,42.4819822 66.1366524,42.473575 L66.1366524,42.473575 Z M69.6082914,45.8757812 C66.7322915,45.8757812 64.4008329,48.1606107 64.4008329,50.9790906 C64.4008329,53.7975706 66.7322915,56.0824 69.6082914,56.0824 C72.4842914,56.0824 74.81575,53.7975706 74.81575,50.9790906 C74.81575,48.1606107 72.4842914,45.8757812 69.6082914,45.8757812 Z M69.839734,49.7640169 C70.7344896,49.7640169 71.4598323,50.4893596 71.4598323,51.3841152 C71.4598323,52.2788707 70.7344896,53.0042134 69.839734,53.0042134 C68.9449785,53.0042134 68.2196358,52.2788707 68.2196358,51.3841152 C68.2196358,50.4893596 68.9449785,49.7640169 69.839734,49.7640169 Z" id="形状结合" fill="url(#linearGradient-4)"/>
						<path d="M58.3190356,54.392869 L58.3190356,47.5653122 C58.3190356,42.8518679 62.1472331,39.0308662 66.869554,39.0308662 L77.130176,39.0308662 L77.130176,28.7895311 C77.130176,27.8468422 76.3645365,27.0826419 75.4200723,27.0826419 L1.88561432,27.0826419 C0.941150135,27.0826419 0.17551064,27.8468422 0.17551064,28.7895311 L0.17551064,73.1686501 C0.17551064,74.111339 0.941150135,74.8755393 1.88561432,74.8755393 L75.4200723,74.8755393 C76.3645365,74.8755393 77.130176,74.111339 77.130176,73.1686501 L77.130176,62.927315 L66.869554,62.927315 C62.1472331,62.927315 58.3190356,59.1063134 58.3190356,54.392869 L58.3190356,54.392869 Z M8.72602902,69.7548717 L5.30582167,69.7548717 L5.30582167,32.2033095 L8.72602902,32.2033095 L8.72602902,69.7548717 Z" id="形状" fill="url(#linearGradient-5)"/>
						<path d="M60.3140547,42.085618 C59.0688152,43.5681637 58.3190356,45.4793423 58.3190356,47.5653122 L58.3190356,47.5653122 L58.3190356,54.392869 C58.3190356,59.1063134 62.1472331,62.927315 66.869554,62.927315 L66.869554,62.927315 L77.130176,62.927315 L77.130176,73.1686501 C77.130176,74.111339 76.3645365,74.8755393 75.4200723,74.8755393 L75.4200723,74.8755393 L75.3578479,74.8752502 C75.3603155,74.8377337 75.3615688,74.7998863 75.3615688,74.7617467 L75.3615688,64.5204115 L65.1009467,64.5204115 C60.3786258,64.5204115 56.5504284,60.6994099 56.5504284,55.9859656 L56.5504284,49.1584088 C56.5504284,46.2446432 58.0133693,43.6719235 60.2461131,42.1320848 Z M5.30521219,33.7956419 L5.30582167,69.7548717 L6.95721219,69.7546419 L6.95742179,71.3479683 L3.53721444,71.3479683 L3.53721444,33.796406 L5.30521219,33.7956419 Z M75.4200723,27.0826419 C76.3645365,27.0826419 77.130176,27.8468422 77.130176,28.7895311 L77.130176,28.7895311 L77.130176,39.0308662 L75.3612122,39.0306419 L75.3615688,30.3826277 C75.3615688,29.4399388 74.5959293,28.6757385 73.6514651,28.6757385 L0.179231543,28.6760276 C0.237756281,27.7862566 0.979361539,27.0826419 1.88561432,27.0826419 L1.88561432,27.0826419 Z" id="形状结合" fill-opacity="0.4" fill="url(#linearGradient-6)"/>
					</g>
				</g>
			</g>
		</g>
    </g>
</svg>