<svg xmlns="http://www.w3.org/2000/svg" viewBox="0 0 40 48.958" id="icon-bell_3d270736">
  <path d="M19.688 0h.625c1.6.652 1.9 1.105 1.9 2.905v1.714c.712.163 1.343.281 1.959.453a15.513 15.513 0 0 1 11.372 15.114c.016 3.923 0 7.846.018 11.769a1.289 1.289 0 0 0 .329.806c.982 1.029 2.028 2 3 3.041A13.384 13.384 0 0 1 40 37.4v.833a2.493 2.493 0 0 1-2.73 1.811Q20 40 2.73 40.041A2.5 2.5 0 0 1 0 38.229V37.4a13.5 13.5 0 0 1 1.115-1.6c.956-1.029 1.967-2.009 2.977-2.987a1.145 1.145 0 0 0 .368-.913c-.01-4.062-.114-8.127.025-12.185.217-6.34 3.3-10.941 8.965-13.744a35.288 35.288 0 0 1 4.338-1.5V2.219a2 2 0 0 1 .8-1.673 6.932 6.932 0 0 1 1.1-.546M7.644 35.421l.092.129h24.542c-1.161-.862-1.18-2.056-1.17-3.312.032-3.956.02-7.912 0-11.868a12.015 12.015 0 0 0-.173-2.174 10.654 10.654 0 0 0-7.367-8.656 10.613 10.613 0 0 0-11.158 2.4 10.765 10.765 0 0 0-3.527 8.267q-.013 6.455 0 12.91a2.48 2.48 0 0 1-.825 1.992c-.129.114-.278.206-.417.308m12.671 13.541c.3-.07.608-.128.906-.211a4.3 4.3 0 0 0 3.166-4.229h-8.825a4.455 4.455 0 0 0 1.664 3.425 5.334 5.334 0 0 0 2.465 1.015z" style="fill:#38A6FB"/>
</svg>
