<svg xmlns="http://www.w3.org/2000/svg" viewBox="-223 25 512 512" id="calendar_c4db3b67">
  <g>
    <path stroke="#2196F3" fill="#2196F3" d="M-126,77.8c0,6.9,0,13.2,0,19.4c0.1,27.6,23.8,50.6,51.4,51.4c24.1,0.7,49-16,54.2-44.4c0.4-2.3,0.4-4.8,0.4-7.1   c0-6.2,0-12.4,0-18.9c35.4,0,70.2,0,106,0c0,5.3,0.2,10.8,0,16.2c-1.3,26,18.5,50.7,46.3,54c29.2,3.4,54.5-15.6,59.2-44.5   c1.3-8.2,0.2-16.8,0.2-26.6c15.3,0.7,30.1,0,44.4,2.3c16.2,2.6,26.5,18.3,26.5,36.5c0,57.4,0,114.8,0,172.2c0,70.3,0,140.6,0,210.8   c0,10.9-3.2,20.5-11.4,28.2c-7.7,7.3-17,9.8-27.2,9.8c-127.3,0-254.6,0-381.9,0c-2.5,0-5.1-0.3-7.6-0.7c-19.6-3.5-31-17.3-31-37.3   c0-99.5,0-199.1,0-298.6c0-28.5-0.1-57,0-85.6c0-17.1,9.9-30.6,25.5-35.2c3-0.9,6.1-1.7,9.1-1.7C-150.2,77.7-138.4,77.8-126,77.8z    M227.1,201.8c-129.6,0-258.8,0-387.9,0c0,100.2,0,199.9,0,299.6c129.5,0,258.6,0,387.9,0C227.1,401.5,227.1,301.8,227.1,201.8z"/>
    <path stroke="#2196F3" fill="#2196F3" d="M-38.3,78c-0.5,7.9-0.5,15.8-1.5,23.6c-2,15.6-15,28.8-33.6,28.9c-17.7,0.1-32.2-12-33.7-28.6c-1.4-16-1.3-32.3,0-48.3   c1.3-16.4,16.3-28.8,33.7-28.7c17.8,0.1,31.7,12.9,33.6,28.9C-38.8,61.9-38.8,70-38.3,78z"/>
    <path stroke="#2196F3" fill="#2196F3" d="M173.7,77.7c-0.5,8.2-0.3,16.6-1.6,24.7c-2.5,15.9-15.6,28.2-33.7,28.1c-17.5,0-31.6-11.4-33.3-27.7   c-1.7-16.3-1.4-33-0.1-49.3c1.2-15.8,15.6-28.3,33.3-28.5c17.4-0.2,31.7,12.3,33.9,28.6C173.2,61.5,173.2,69.6,173.7,77.7z"/>
    <path stroke="#2196F3" fill="#2196F3" d="M-73.1,237.2c0,17.5,0,34.6,0,52.1c-17.4,0-34.8,0-52.5,0c0-17.2,0-34.6,0-52.1C-108.1,237.2-90.6,237.2-73.1,237.2z"/>
    <path stroke="#2196F3" fill="#2196F3" d="M-37.3,237c17.5,0,34.7,0,52.3,0c0,17.3,0,34.7,0,52.4c-17.3,0-34.6,0-52.3,0C-37.3,272.1-37.3,254.9-37.3,237z"/>
    <path stroke="#2196F3" fill="#2196F3" d="M50.9,289.3c0-17.6,0-34.8,0-52.3c17.4,0,34.7,0,52.3,0c0,17.2,0,34.6,0,52.3C86,289.3,68.7,289.3,50.9,289.3z"/>
    <path stroke="#2196F3" fill="#2196F3" d="M139.3,237c17.4,0,34.6,0,52.2,0c0,17.3,0,34.6,0,52.3c-17.2,0-34.6,0-52.2,0C139.3,272,139.3,254.6,139.3,237z"/>
    <path stroke="#2196F3" fill="#2196F3" d="M-73.2,325.4c0,17.6,0,34.8,0,52.3c-17.5,0-34.7,0-52.3,0c0-17.2,0-34.6,0-52.3C-108.3,325.4-91,325.4-73.2,325.4z"/>
    <path stroke="#2196F3" fill="#2196F3" d="M-37.3,325.3c17.6,0,34.8,0,52.3,0c0,17.4,0,34.7,0,52.3c-17.2,0-34.6,0-52.3,0C-37.3,360.4-37.3,343.1-37.3,325.3z"/>
    <path stroke="#2196F3" fill="#2196F3" d="M51.1,325.3c17.6,0,34.8,0,52.3,0c0,17.5,0,34.7,0,52.3c-17.2,0-34.6,0-52.3,0C51.1,360.4,51.1,343.1,51.1,325.3z"/>
    <path stroke="#2196F3" fill="#2196F3" d="M139.4,325.3c17.6,0,34.8,0,52.3,0c0,17.4,0,34.7,0,52.3c-17.2,0-34.6,0-52.3,0C139.4,360.4,139.4,343.1,139.4,325.3z"/>
    <path stroke="#2196F3" fill="#2196F3" d="M-125.7,466c0-17.6,0-34.8,0-52.3c17.4,0,34.7,0,52.3,0c0,17.2,0,34.6,0,52.3C-90.6,466-107.9,466-125.7,466z"/>
    <path stroke="#2196F3" fill="#2196F3" d="M15.1,413.7c0,17.4,0,34.7,0,52.3c-17.3,0-34.7,0-52.4,0c0-17.3,0-34.6,0-52.3C-19.9,413.7-2.5,413.7,15.1,413.7z"/>
    <path stroke="#2196F3" fill="#2196F3" d="M50.9,466c0-17.6,0-34.8,0-52.3c17.4,0,34.7,0,52.3,0c0,17.2,0,34.6,0,52.3C86,466,68.7,466,50.9,466z"/>
    <path stroke="#2196F3" fill="#2196F3" d="M191.7,466.1c-17.4,0-34.7,0-52.3,0c0-17.3,0-34.7,0-52.4c17.3,0,34.6,0,52.3,0C191.7,431.2,191.7,448.5,191.7,466.1z"/>
  </g>
</svg>
