<svg viewBox="0 0 52 52" id="icon-deposit_7625b392"  xmlns="http://www.w3.org/2000/svg">
  <g id="icon-deposit_7625b392_icon-deposit">
    <g id="icon-deposit_7625b392_Union" filter="url(#icon-deposit_7625b392_filter0_d_4322_3487)">
      <path fill-rule="evenodd" clip-rule="evenodd" d="M24.8382 5.63715L19.8254 17.306H14.8126C13.9806 17.306 13.1694 17.3684 12.379 17.5348L14.459 12.5428L14.5422 12.3556L14.667 12.0228C14.6856 11.9793 14.7023 11.9377 14.7184 11.898C14.756 11.8045 14.7896 11.7213 14.8334 11.6484C17.2462 6.05315 19.9502 4.30595 24.8382 5.63715ZM38.9614 17.8677L38.9198 17.8469C37.6718 17.4933 36.403 17.3061 35.1134 17.3061H22.0926L26.7726 6.42768L26.835 6.28208C26.9641 6.32818 27.0973 6.38246 27.2327 6.43766L27.2327 6.43767C27.4028 6.50699 27.5765 6.57778 27.7502 6.63568L32.347 8.57008C34.9054 9.63088 36.6942 10.7333 37.7966 12.0645C37.9838 12.3141 38.1502 12.5429 38.3166 12.8133C38.5038 13.1045 38.6494 13.3957 38.7326 13.7077C38.8158 13.8949 38.8782 14.0613 38.9198 14.2485C39.2318 15.3093 39.2526 16.5157 38.9614 17.8677ZM35.1137 20.4268C36.1329 20.4268 37.1105 20.5724 38.0465 20.8428C42.2065 22.1116 45.2641 25.9804 45.2641 30.5772V34.6332C45.2641 35.0492 45.2433 35.4652 45.2225 35.8604C44.8273 43.1404 40.7713 46.8012 33.0753 46.8012H16.8514C16.3314 46.8012 15.853 46.7596 15.3746 46.6972C8.7602 46.2604 5.2242 42.7244 4.7666 36.11C4.7042 35.6108 4.6626 35.1324 4.6626 34.6332V30.5772C4.6626 26.3964 7.2002 22.798 10.8194 21.238C12.0674 20.6972 13.3986 20.4268 14.813 20.4268H35.1137ZM26.5233 34.7164H30.1633C31.0161 34.7164 31.7233 34.03 31.7233 33.1564C31.7233 32.3036 31.0161 31.5964 30.1633 31.5964H26.5233V28.0812C26.5233 27.2284 25.8161 26.5212 24.9633 26.5212C24.1105 26.5212 23.4033 27.2284 23.4033 28.0812V31.5964H19.7634C18.9106 31.5964 18.2034 32.3036 18.2034 33.1564C18.2034 34.03 18.9106 34.7164 19.7634 34.7164H23.4033V38.4812C23.4033 39.334 24.1105 40.0412 24.9633 40.0412C25.8161 40.0412 26.5233 39.334 26.5233 38.4812V34.7164Z" fill="#FFAB49"/>
    </g>
  </g>
  <defs>
    <filter id="icon-deposit_7625b392_filter0_d_4322_3487" x="4.6626" y="5.21289" width="40.6016" height="43.5884" filterUnits="userSpaceOnUse" color-interpolation-filters="sRGB">
      <feFlood flood-opacity="0" result="BackgroundImageFix"/>
      <feColorMatrix in="SourceAlpha" type="matrix" values="0 0 0 0 0 0 0 0 0 0 0 0 0 0 0 0 0 0 127 0" result="hardAlpha"/>
      <feOffset dy="2"/>
      <feComposite in2="hardAlpha" operator="out"/>
      <feColorMatrix type="matrix" values="0 0 0 0 0.0666667 0 0 0 0 0 0 0 0 0 0 0 0 0 0.3 0"/>
      <feBlend mode="normal" in2="BackgroundImageFix" result="effect1_dropShadow_4322_3487"/>
      <feBlend mode="normal" in="SourceGraphic" in2="effect1_dropShadow_4322_3487" result="shape"/>
    </filter>
  </defs>
</svg>
