<svg xmlns="http://www.w3.org/2000/svg" viewBox="0 0 80 80" id="eyes_27cd1e8b" fill="#4c84f8">
  <g>
    <g>
      <path d="M39.9,17.4C19,17.4,2,40.1,2,40.1S19,62.7,39.9,62.7c20.9,0,37.8-22.7,37.8-22.7S60.8,17.4,39.9,17.4z M39.9,57.8    c-9.8,0-17.7-7.9-17.7-17.7c0-9.8,7.9-17.7,17.7-17.7c9.8,0,17.7,7.9,17.7,17.7C57.6,49.9,49.7,57.8,39.9,57.8z"/>
    </g>
    <g>
      <path d="M39.9,31.1c-0.4,0-0.8,0-1.2,0.1c0.3,0.7,0.5,1.5,0.5,2.3c0,3.2-2.6,5.8-5.8,5.8c-0.7,0-1.4-0.1-2-0.4    c-0.1,0.4-0.1,0.8-0.1,1.3c0,5,3.8,9,8.6,9c4.7,0,8.6-4,8.6-9C48.4,35.1,44.6,31.1,39.9,31.1z"/>
    </g>
  </g>
</svg>
