<svg xmlns="http://www.w3.org/2000/svg" viewBox="0 0 20 21" id="eyes-hide_2e21a0e3">
  <g id="eyes-hide_2e21a0e3_icon-hide-eyes-default" clip-path="url(#eyes-hide_2e21a0e3_clip0_152_2423)">
    <g id="eyes-hide_2e21a0e3_Clip path group">
      <mask id="eyes-hide_2e21a0e3_mask0_152_2423" style="mask-type:luminance" maskUnits="userSpaceOnUse" x="0" y="0" width="20" height="21">
        <g id="eyes-hide_2e21a0e3_icon-hide-eyes-default_clip0_133_5695">
          <path id="eyes-hide_2e21a0e3_Vector" d="M20 0.690186H0V20.6902H20V0.690186Z" fill="white"/>
        </g>
      </mask>
      <g mask="url(#eyes-hide_2e21a0e3_mask0_152_2423)">
        <g id="eyes-hide_2e21a0e3_icon-hide-eyes-default_Eye09">
          <path id="eyes-hide_2e21a0e3_icon-hide-eyes-default_Path 636" d="M10.0002 6.52352C11.1052 6.52352 12.165 6.96251 12.9464 7.74391C13.7278 8.52531 14.1668 9.58512 14.1668 10.6902C14.1663 11.2131 14.0644 11.731 13.8668 12.2152L16.3001 14.6485C17.5701 13.59 18.5531 12.2287 19.1585 10.6902C18.4345 8.84861 17.173 7.26758 15.5381 6.15286C13.9032 5.03815 11.9706 4.44137 9.99182 4.44019C8.86072 4.43986 7.73827 4.63727 6.67516 5.02352L8.47516 6.82352C8.95931 6.62587 9.47721 6.52398 10.0002 6.52352ZM1.66683 4.24852L3.56683 6.14852L3.95016 6.53186C2.55718 7.61341 1.4807 9.04968 0.833496 10.6902C1.30798 11.8982 2.01647 13.0005 2.91827 13.9339C3.82007 14.8672 4.8974 15.6132 6.08837 16.1289C7.27933 16.6446 8.56046 16.9199 9.85816 16.939C11.1558 16.9581 12.4445 16.7206 13.6501 16.2402L14.0001 16.5902L16.4418 19.0235L17.5001 17.9652L2.72516 3.19019L1.66683 4.24852ZM6.27516 8.85686L7.56683 10.1485C7.52365 10.3259 7.50128 10.5077 7.50016 10.6902C7.50016 11.3532 7.76355 11.9891 8.23239 12.458C8.70123 12.9268 9.33712 13.1902 10.0002 13.1902C10.1827 13.1891 10.3644 13.1667 10.5418 13.1235L11.8335 14.4152C11.0558 14.8067 10.1744 14.943 9.31483 14.8047C8.45521 14.6664 7.66108 14.2606 7.04542 13.6449C6.42975 13.0293 6.02391 12.2352 5.88562 11.3755C5.74734 10.5159 5.88364 9.63454 6.27516 8.85686ZM9.86682 8.20686L12.4918 10.8319L12.5085 10.6985C12.5085 10.0355 12.2451 9.3996 11.7762 8.93076C11.3074 8.46192 10.6715 8.19852 10.0085 8.19852L9.86682 8.20686Z" fill="#999999"/>
        </g>
      </g>
    </g>
  </g>
  <defs>
    <clipPath id="eyes-hide_2e21a0e3_clip0_152_2423">
      <rect width="20" height="20" fill="white" transform="translate(0 0.690186)"/>
    </clipPath>
  </defs>
</svg>
