<svg xmlns="http://www.w3.org/2000/svg" viewBox="0 0 1024 1024" id="mcPayeeName_d3e50d87" class="icon" fill="#a5a5a5">
  <defs>
    <style type="text/css"/>
  </defs>
  <path d="M93.55 161.73c4.05-0.97 8.24-1.15 12.39-1.23 269.69 0 539.38 0.01 809.06 0 8.19-0.14 16.71 0.26 24.15 4.06 14.22 6.53 23.61 21.8 23.34 37.4 0.04 205.67-0.01 411.33 0.02 616.99 0.13 7.23-0.77 14.65-4.05 21.18-5.87 12.62-18.66 21.74-32.54 23.01-6.97 0.65-13.98 0.26-20.96 0.36H112c-7.23-0.01-14.68 0.25-21.6-2.15-12.31-3.94-22.36-14.16-26.18-26.5-1.59-4.77-1.91-9.83-1.97-14.82v-610.1c-0.03-7.43-0.23-15.11 2.44-22.18 4.42-12.81 15.67-22.93 28.86-26.02m5.57 27.36c-5.08 1.52-8.9 6.56-8.87 11.88 0 207.36-0.01 414.72 0.01 622.07 0 5.08 3.45 9.88 8.19 11.64 3.05 1.18 6.38 0.76 9.57 0.83 271.35-0.03 542.71 0.02 814.06-0.03 6.62 0.05 12.53-5.9 12.43-12.51-0.02-207.33-0.02-414.65 0-621.98 0.08-6.65-5.91-12.63-12.58-12.48-271.33-0.03-542.66 0.01-813.99-0.01-2.94 0.04-5.97-0.29-8.82 0.59z" p-id="3838"/>
  <path d="M278.55 308.63c13.61-9.15 30.02-14.29 46.46-13.92 18.67-0.04 37.05 7.09 51.46 18.84 19.84 16.02 32.36 40.24 35.42 65.43 4.81 35.33-10.91 72.16-38.43 94.48-4.94 3.92-10.61 6.93-14.99 11.55 1.66 2.11 4.16 3.17 6.69 3.82 31.85 6.8 61.46 24.75 81.29 50.71 12.32 16.12 20.74 35.32 23.53 55.46 1.57 9.85 0.87 19.84 1.01 29.76-92.74-0.01-185.49-0.01-278.23 0 0.06-9.96-0.41-19.97 1.09-29.85 2.93-21.85 12.41-42.66 26.53-59.55 17.2-20.83 41.08-35.54 66.71-43.63 2.35-0.93 5.52-0.86 7.24-2.71-0.35-4.27-4.75-6.37-8.03-8.24-19.24-10.01-34.33-27.24-42.58-47.23-10.62-25.58-10.9-55.37-0.4-81.03 7.12-17.64 19.35-33.33 35.23-43.89m28.7 16.65c-14.75 4.89-26.84 16.15-34.28 29.62-10.86 19.64-12.49 44.07-4.55 65.03 5.55 15.09 16.3 28.45 30.57 36.08 7.31 3.92 14.25 9.12 18.53 16.38 5.36 8.62 5.93 19.89 1.81 29.13-2.71 5.92-7.81 10.53-13.63 13.3-4.73 2.33-10.01 3.11-14.88 5.06-18.52 6.51-35.68 17.48-48.37 32.56-10.75 12.54-18.1 28-20.76 44.32 73.45-0.01 146.91-0.02 220.36 0.01a87.508 87.508 0 0 0-6.45-21.36c-13.75-30.85-43.98-52.72-76.73-59.35-7.88-1.93-15.42-5.94-20.75-12.15-7.96-8.86-9.44-22.94-3.32-33.19 5.06-8.54 13.93-13.55 21.67-19.3 12.77-10.34 21.7-25.07 25.98-40.85 4.11-15.19 2.81-31.59-2.71-46.26-5.91-15.52-17.29-29.34-32.46-36.52-12.35-5.98-27.03-6.95-40.03-2.51zM547.21 375.75c0.24-9.36-0.06-18.71 0.16-28.06 51.54 0.26 103.09 0.03 154.63 0.11 42.45-0.04 84.89 0.09 127.34-0.07-0.07 9.31-0.11 18.62 0.02 27.93-94.05 0.03-188.1-0.14-282.15 0.09zM547.25 554.6c0.1-9.34 0.04-18.67 0.03-28.01 55.25 0.16 110.51 0.02 165.76 0.07 38.79-0.08 77.59 0.15 116.39-0.11-0.26 9.32-0.18 18.67-0.04 28-94.05-0.05-188.1-0.14-282.14 0.05zM185.94 697.81c214.47-0.04 428.93 0.09 643.39-0.06-0.05 9.3-0.1 18.61 0.03 27.92-214.47-0.03-428.94 0-643.42-0.01 0.01-9.29 0.01-18.57 0-27.85z" p-id="3839"/>
</svg>
