<svg viewBox="0 0 52 52" id="icon-deposit_7625b392"  xmlns="http://www.w3.org/2000/svg">
  <g id="icon-deposit_7625b392_icon-deposit">
    <g id="icon-deposit_7625b392_Union" filter="url(#icon-deposit_7625b392_filter0_d_4322_3487)">
       <path fill-rule="evenodd" clip-rule="evenodd" d="M14.5635 9.36011H35.3635C41.6035 9.36011 45.7635 12.4801 45.7635 19.7601V32.2609C45.7635 39.5409 41.6035 42.6609 35.3635 42.6609H22.4883C21.8227 42.6609 21.3027 42.0577 21.4691 41.4129C21.6979 40.5809 21.8227 39.7281 21.8435 38.8545C21.9891 33.3009 17.9747 28.2257 12.5043 27.2481C10.0291 26.8113 7.67869 27.1649 5.64029 28.1009C4.95389 28.4129 4.16349 27.9345 4.16349 27.1649V19.7601C4.16349 12.4801 8.32349 9.36011 14.5635 9.36011ZM19.7635 26.0001C19.7635 28.8705 22.0931 31.2001 24.9635 31.2001C27.8339 31.2001 30.1635 28.8705 30.1635 26.0001C30.1635 23.1297 27.8339 20.8001 24.9635 20.8001C22.0931 20.8001 19.7635 23.1297 19.7635 26.0001ZM38.4835 31.7201C39.3363 31.7201 40.0435 31.0129 40.0435 30.1601V21.8401C40.0435 20.9873 39.3363 20.2801 38.4835 20.2801C37.6307 20.2801 36.9235 20.9873 36.9235 21.8401V30.1601C36.9235 31.0129 37.6307 31.7201 38.4835 31.7201ZM3.9347 33.2593C5.4531 31.3873 7.8035 30.1601 10.4035 30.1601C15.0003 30.1601 18.7235 33.9041 18.7235 38.4801C18.7235 39.4577 18.5571 40.3937 18.2451 41.2465C17.1219 44.4913 14.0227 46.8001 10.4035 46.8001C5.8275 46.8001 2.0835 43.0769 2.0835 38.4801C2.0835 36.5041 2.7699 34.6945 3.9347 33.2593ZM15.1043 42.4321C15.1875 42.3489 15.2707 42.2241 15.3123 42.0993C15.4163 41.8497 15.4163 41.5585 15.3331 41.3297C15.2707 41.2049 15.1875 41.0801 15.1043 40.9969L13.6067 39.4993C13.2323 39.1041 12.5875 39.1041 12.1923 39.4993C11.8595 39.8321 11.8179 40.3105 12.0259 40.7057H7.8451C7.6163 40.7057 7.4499 40.5185 7.4499 40.2897V40.0817C7.4499 39.4993 6.9923 39.0625 6.4307 39.0625C5.8691 39.0625 5.4115 39.4993 5.4115 40.0817V40.2897C5.4115 41.6417 6.4931 42.7233 7.8243 42.7233H12.0051C11.7971 43.0977 11.8387 43.5969 12.1715 43.9089C12.3587 44.1169 12.6291 44.2001 12.8995 44.2001C13.1699 44.2001 13.4195 44.1169 13.6067 43.9089L15.1043 42.4321ZM14.3763 37.8977C14.9379 37.8977 15.3955 37.4609 15.3955 36.8785H15.3747V36.6705C15.3747 35.3185 14.2931 34.2369 12.9619 34.2369H8.7811C8.9891 33.8625 8.9475 33.3633 8.6147 33.0513C8.2403 32.6353 7.5955 32.6353 7.2003 33.0513L5.7027 34.5281C5.62276 34.5921 5.56741 34.6929 5.51773 34.7833C5.50278 34.8105 5.48834 34.8368 5.4739 34.8609C5.3907 35.1105 5.3907 35.3809 5.4739 35.6305C5.5363 35.7553 5.6195 35.8801 5.7027 35.9633L7.2003 37.4609C7.3875 37.6481 7.6579 37.7521 7.9075 37.7521C8.1987 37.7521 8.4483 37.6481 8.6355 37.4609C8.9683 37.1281 9.0099 36.6497 8.8019 36.2545H12.9619C13.1907 36.2545 13.3571 36.4417 13.3571 36.6705V36.8785C13.3571 37.4609 13.8147 37.8977 14.3763 37.8977Z" fill="#FFAB49"></path> 
    </g>
  </g>
  <defs>
    <filter id="icon-deposit_7625b392_filter0_d_4322_3487" x="4.6626" y="5.21289" width="40.6016" height="43.5884" filterUnits="userSpaceOnUse" color-interpolation-filters="sRGB">
      <feFlood flood-opacity="0" result="BackgroundImageFix"/>
      <feColorMatrix in="SourceAlpha" type="matrix" values="0 0 0 0 0 0 0 0 0 0 0 0 0 0 0 0 0 0 127 0" result="hardAlpha"/>
      <feOffset dy="2"/>
      <feComposite in2="hardAlpha" operator="out"/>
      <feColorMatrix type="matrix" values="0 0 0 0 0.0666667 0 0 0 0 0 0 0 0 0 0 0 0 0 0.3 0"/>
      <feBlend mode="normal" in2="BackgroundImageFix" result="effect1_dropShadow_4322_3487"/>
      <feBlend mode="normal" in="SourceGraphic" in2="effect1_dropShadow_4322_3487" result="shape"/>
    </filter>
  </defs>
</svg>
