<?xml version="1.0" encoding="UTF-8"?>
<svg viewBox="0 0 18 15" version="1.1" xmlns="http://www.w3.org/2000/svg" xmlns:xlink="http://www.w3.org/1999/xlink">
    <title>Combined Shape</title>
    <g id="首頁" stroke="none" stroke-width="1" fill="none" fill-rule="evenodd">
        <g id="LeftMenu_未登入" transform="translate(-140.000000, -126.000000)" fill="#00B5FF">
            <g id="theme-icon/login_w-copy" transform="translate(140.375000, 126.625000)">
                <path d="M7.31165275,2.44350911e-07 C10.5574864,-0.000827118722 13.4154741,2.09948587 14.3301415,5.15783344 C13.9211766,5.06019184 13.5020032,5.00976553 13.0811312,5.00757825 C12.9687203,5.00757825 12.8563094,5.02291041 12.7438984,5.02291041 C11.8371297,2.82491956 9.64734459,1.40078827 7.23274987,1.4387235 C4.81815516,1.47665872 2.67587942,2.96885018 1.84117065,5.19420104 C1.00646189,7.4195519 1.65117403,9.91989604 3.46375195,11.48695 C3.6300952,10.7127594 4.03446621,10.0073863 4.622209,9.46617104 C4.88136203,9.22305604 5.26634662,9.16207722 5.59019198,9.31284942 C6.13069365,9.5727673 6.7244912,9.70806197 7.32631629,9.70841921 C7.4605849,9.70841921 7.59173098,9.68388775 7.72287706,9.68388775 L7.72287706,9.68388775 L7.72287706,9.69308705 C7.51642977,11.326989 8.10389093,12.9611831 9.30912014,14.1056834 C7.33671456,14.651972 5.22133882,14.359337 3.47936458,13.2992116 L3.47936458,13.2992116 L3.36383113,13.2992116 L3.36383113,13.2256172 C0.63213272,11.5040377 -0.617157807,8.22022541 0.295892271,5.16141182 C1.20894235,2.10259824 4.06581907,0.000828096415 7.31165275,2.44350911e-07 Z M13.0811312,6.58679096 C15.1752083,6.58679096 16.8732765,8.25298177 16.875,10.30944 C16.875,12.3650029 15.1784584,14.0315236 13.0852937,14.0320877 C10.9921291,14.0326515 9.2946573,12.3670452 9.2935075,10.3114826 C9.29235886,8.25591994 10.9879672,6.58848418 13.0811312,6.58679096 Z M13.2372575,7.89308276 L12.9250049,7.89308276 C12.6111417,7.89308276 12.3567053,8.14295691 12.3567053,8.4511819 L12.3567053,8.4511819 L12.3567053,9.61642624 L11.1701455,9.61642624 C11.0191682,9.6156048 10.8741324,9.67413966 10.7673737,9.77898056 C10.660615,9.88382147 10.6010093,10.0262518 10.6018371,10.1745169 L10.6018371,10.1745169 L10.6018371,10.4811602 C10.6010093,10.6294253 10.660615,10.7718557 10.7673737,10.8766966 C10.8741324,10.9815375 11.0191682,11.0400723 11.1701455,11.0392509 L11.1701455,11.0392509 L12.3567053,11.0392509 L12.3567053,12.1922295 C12.3533304,12.3437047 12.4124714,12.4900833 12.5206802,12.5980809 C12.6288891,12.7060785 12.7769695,12.7665166 12.93125,12.7656615 L12.93125,12.7656615 L13.2435026,12.7656615 C13.5590903,12.7656615 13.8149248,12.5144138 13.8149248,12.2044952 L13.8149248,12.2044952 L13.8149248,11.0392509 L15.0014846,11.0392509 C15.1560143,11.0417898 15.304932,10.9824129 15.4139214,10.8748029 C15.5229108,10.7671929 15.5825702,10.6206323 15.5791518,10.4688945 L15.5791518,10.4688945 L15.5635392,10.1745169 C15.5635392,9.86629196 15.3091028,9.61642624 14.9952395,9.61642624 L14.9952395,9.61642624 L13.8086797,9.61642624 L13.8086797,8.4511819 C13.808682,8.30263421 13.7483793,8.16021497 13.6411261,8.05546406 C13.533873,7.95071315 13.3885203,7.892275 13.2372575,7.89308276 L13.2372575,7.89308276 Z M7.31538745,3.38875268 C8.73898922,3.38875268 9.90654576,4.4965754 9.95548296,5.89377723 L9.95548296,5.89377723 L9.95548296,5.98883663 C9.1188862,6.57449257 8.46911389,7.38168876 8.08196752,8.31625887 C7.8362558,8.38539494 7.58191464,8.4204869 7.32631629,8.42051758 C6.63479735,8.42952269 5.96796472,8.16835847 5.4725448,7.69449013 C4.97712487,7.22062179 4.69370935,6.57287523 4.68465952,5.89377723 L4.68465952,5.89377723 C4.72422915,4.4965754 5.89178569,3.38875268 7.31538745,3.38875268 Z" id="Combined-Shape"></path>
            </g>
        </g>
    </g>
</svg>