<?xml version="1.0" encoding="UTF-8"?>
<svg viewBox="0 0 30 30" version="1.1" xmlns="http://www.w3.org/2000/svg" xmlns:xlink="http://www.w3.org/1999/xlink">
    <title>leftmenu/games/icon-slot</title>
    <defs>
        <linearGradient x1="50%" y1="1.33055874e-13%" x2="50%" y2="104.53891%" id="linearGradient-1">
            <stop stop-color="#ffb80c" stop-opacity="0.7" offset="0%"></stop>
            <stop stop-color="#ffb80c" stop-opacity="0.995478029" offset="100%"></stop>
            <stop stop-color="#FFFFFF" offset="100%"></stop>
            <stop stop-color="#ffb80c" stop-opacity="0.995478029" offset="100%"></stop>
        </linearGradient>
        <path d="M23.5626523,5.37837901 L25.4761905,7.05481456 C19.7087307,14.0890327 19.0451131,21.9241168 19.0451131,25.5 L8.53676054,25.5 C8.53676054,24.1498432 8.26830682,22.7546445 10.0293632,19.3116897 C11.1160639,17.1870329 12.3284009,15.8324817 13.5643619,14.7987164 C13.8328156,14.6877597 19.2094068,12.4038085 21.6233426,6.15617479 C22.4609183,5.95623294 23.1717837,5.66510881 23.5626523,5.37837901 Z M6.6029273,6.84740235 C9.9339011,4.08776532 15.2933112,4.97761643 17.284164,5.95645266 C18.0218749,6.32008317 18.9324699,6.43653282 19.8398435,6.40357538 C19.2288428,8.14592583 17.539732,10.5177636 13.2208485,12.9906708 C11.703548,12.7226169 10.1733618,12.2348466 9.28316927,12.4567601 C7.67459456,12.8577424 6.64158464,14.5495581 6.64158464,15.4394092 L4,15.4394092 L4,5.91250939 L6.6029273,5.91250939 Z" id="path-2"></path>
        <filter x="-18.6%" y="-9.8%" width="137.3%" height="139.0%" filterUnits="objectBoundingBox" id="filter-3">
            <feOffset dx="0" dy="2" in="SourceAlpha" result="shadowOffsetOuter1"></feOffset>
            <feGaussianBlur stdDeviation="1" in="shadowOffsetOuter1" result="shadowBlurOuter1"></feGaussianBlur>
            <feColorMatrix values="0 0 0 0 0   0 0 0 0 0   0 0 0 0 0  0 0 0 0.05 0" type="matrix" in="shadowBlurOuter1"></feColorMatrix>
        </filter>
    </defs>
    <g id="leftmenu/games/icon-slot" stroke="none" stroke-width="1" fill="none" fill-rule="evenodd">
        <g id="Combined-Shape">
            <use fill="black" fill-opacity="1" filter="url(#filter-3)" xlink:href="#path-2"></use>
            <use fill="url(#linearGradient-1)" fill-rule="evenodd" xlink:href="#path-2"></use>
        </g>
    </g>
</svg>
