<?xml version="1.0" encoding="UTF-8"?>
<svg viewBox="0 0 30 30" version="1.1" xmlns="http://www.w3.org/2000/svg" xmlns:xlink="http://www.w3.org/1999/xlink">
    <title>leftmenu/history/icon-bet-records</title>
    <defs>
        <linearGradient x1="50%" y1="1.33055874e-13%" x2="50%" y2="104.53891%" id="linearGradient-1">
            <stop stop-color="#ffb80c" stop-opacity="0.7" offset="0%"></stop>
            <stop stop-color="#ffb80c" stop-opacity="0.995478029" offset="100%"></stop>
            <stop stop-color="#FFFFFF" offset="100%"></stop>
            <stop stop-color="#ffb80c" stop-opacity="0.995478029" offset="100%"></stop>
        </linearGradient>
        <path d="M21.7347082,14.5384615 C25.151891,14.5384615 27.92,17.3269231 27.92,20.7692308 C27.92,24.2115385 25.151891,27 21.7347082,27 C18.3175253,27 15.5494163,24.2115385 15.5494163,20.7692308 C15.5494163,17.3269231 18.3175253,14.5384615 21.7347082,14.5384615 Z M11.5404309,3 C12.9865292,3 14.2083152,3.93269231 14.6760302,5.22115385 L18.8568293,5.22115385 C20.0786154,5.22115385 21.0808617,6.22115385 21.0808617,7.44230769 L21.0808617,11.9278846 C16.5277997,12.2644231 12.9244854,16.0961538 12.929258,20.7692308 C12.929258,22.5817308 13.4781072,24.2692308 14.4087645,25.6778846 L4.22403241,25.6778846 C3.00224636,25.6778846 2,24.6778846 2,23.4567308 L2,7.44230769 C2,6.22115385 3.00224636,5.22115385 4.22403241,5.22115385 L8.40483152,5.22115385 C8.86777389,3.93269231 10.0943325,3 11.5404309,3 Z M22.4410532,16.1634615 L20.9949549,16.2019231 C20.9138207,16.2019231 20.8517768,16.2692308 20.8517768,16.3509615 L20.8708672,17.0769231 C20.6370098,17.125 20.4174701,17.1971154 20.2122482,17.2884615 C19.7970319,17.4759615 19.4772675,17.7451923 19.2625005,18.0961538 C19.052506,18.4423077 18.9522813,18.8221154 18.9618266,19.2163462 C18.9713718,19.5817308 19.076369,19.9086538 19.2672731,20.1971154 C19.4581771,20.4855769 19.7445332,20.7211538 20.1120236,20.9038462 C20.3888345,21.0432692 20.861322,21.1826923 21.5247137,21.3221154 C22.1594697,21.4567308 22.5746861,21.5576923 22.7560449,21.625 C23.018538,21.7163462 23.2046695,21.8317308 23.3096667,21.9615385 C23.414664,22.0865385 23.4671626,22.2355769 23.4719352,22.4086538 C23.4767078,22.5769231 23.4242092,22.7451923 23.3239845,22.8942308 C23.2189873,23.0480769 23.0519462,23.1778846 22.8228614,23.2740385 C22.5794587,23.375 22.28833,23.4326923 21.963793,23.4423077 C21.5963027,23.4519231 21.2622206,23.3990385 20.9663193,23.2788462 C20.6799632,23.1634615 20.4699687,23.0096154 20.3363358,22.8221154 C20.1979304,22.6298077 20.107251,22.3701923 20.0595249,22.0528846 L20.0499797,21.9951923 C20.0404345,21.9230769 19.9736181,21.8701923 19.9020291,21.8701923 L19.8877113,21.8701923 L18.9045553,21.9855769 C18.8281937,21.9951923 18.7709225,22.0625 18.7756951,22.1394231 L18.7804677,22.1971154 C18.8091033,22.7067308 18.9618266,23.1634615 19.2386375,23.5625 C19.5106758,23.9615385 19.8924839,24.2596154 20.3601989,24.4471154 C20.5749659,24.5336538 20.8183686,24.5961538 21.0856343,24.6394231 L21.1094973,25.4423077 C21.1094973,25.5240385 21.1763138,25.5865385 21.257448,25.5865385 L22.7035463,25.5432692 C22.7846805,25.5432692 22.8467244,25.4759615 22.8467244,25.3942308 L22.8228614,24.5961538 C23.0519462,24.5432692 23.2667133,24.4615385 23.4671626,24.3653846 C23.8966967,24.1490385 24.2260063,23.8557692 24.4503185,23.4855769 C24.6698582,23.1153846 24.7796281,22.7163462 24.7796281,22.3028846 C24.7653103,21.8798077 24.6459952,21.5096154 24.4216829,21.1923077 C24.2021433,20.875 23.8632885,20.6201923 23.414664,20.4278846 C23.1187627,20.3028846 22.5794587,20.1634615 21.8110698,20.0096154 C20.8708672,19.8221154 20.5797385,19.6682692 20.4938317,19.5913462 C20.3506537,19.4711538 20.2790646,19.3221154 20.274292,19.125 C20.2695194,18.8942308 20.3601989,18.7019231 20.5654207,18.5288462 C20.7754172,18.3509615 21.1429055,18.25 21.6535739,18.2355769 C22.1403793,18.2211538 22.5078696,18.3125 22.7512723,18.5 C22.9851298,18.6826923 23.1330805,18.9711538 23.1855791,19.3605769 L23.1951243,19.4182692 C23.2046695,19.4903846 23.2714859,19.5432692 23.3430749,19.5432692 L24.3500939,19.4375 C24.4264555,19.4326923 24.4837268,19.3605769 24.4789542,19.2836538 L24.4741816,19.2259615 C24.4455459,18.7740385 24.3071405,18.3701923 24.0637378,18.0192308 C23.8155625,17.6634615 23.4719352,17.3990385 23.0328558,17.2259615 C22.899223,17.1730769 22.7608175,17.1298077 22.6128669,17.0961538 L22.5890039,16.3076923 C22.5890039,16.2259615 22.5221874,16.1634615 22.4410532,16.1634615 Z M9.22094642,19.9471154 L6.11875529,19.9471154 C5.52695268,19.9471154 5.0449199,20.4326923 5.0449199,21.0288462 C5.0449199,21.625 5.52695268,22.1105769 6.11875529,22.1105769 L9.22094642,22.1105769 C9.81274903,22.1105769 10.2947818,21.625 10.2947818,21.0288462 C10.2947818,20.4326923 9.81274903,19.9471154 9.22094642,19.9471154 Z M11.6072473,15.2451923 L6.11875529,15.2451923 C5.52695268,15.2451923 5.0449199,15.7307692 5.0449199,16.3269231 C5.0449199,16.9230769 5.52695268,17.4086538 6.11875529,17.4086538 L11.6072473,17.4086538 C12.1990499,17.4086538 12.6810827,16.9230769 12.6810827,16.3269231 C12.6810827,15.7307692 12.1990499,15.2451923 11.6072473,15.2451923 Z M14.9480685,10.5480769 L6.11875529,10.5480769 C5.52695268,10.5480769 5.0449199,11.0336538 5.0449199,11.6298077 C5.0449199,12.2259615 5.52695268,12.7115385 6.11875529,12.7115385 L14.9480685,12.7115385 C15.5398711,12.7115385 16.0219039,12.2259615 16.0219039,11.6298077 C16.0219039,11.0336538 15.5398711,10.5480769 14.9480685,10.5480769 Z M11.5356583,4.40865385 C10.4856859,4.40865385 9.62661757,5.27403846 9.62661757,6.33173077 C9.62661757,7.38942308 10.4856859,8.25480769 11.5356583,8.25480769 C12.5856306,8.25480769 13.444699,7.38942308 13.444699,6.33173077 C13.444699,5.27403846 12.5856306,4.40865385 11.5356583,4.40865385 Z" id="path-2"></path>
        <filter x="-15.4%" y="-8.3%" width="130.9%" height="133.3%" filterUnits="objectBoundingBox" id="filter-3">
            <feOffset dx="0" dy="2" in="SourceAlpha" result="shadowOffsetOuter1"></feOffset>
            <feGaussianBlur stdDeviation="1" in="shadowOffsetOuter1" result="shadowBlurOuter1"></feGaussianBlur>
            <feColorMatrix values="0 0 0 0 0   0 0 0 0 0   0 0 0 0 0  0 0 0 0.05 0" type="matrix" in="shadowBlurOuter1"></feColorMatrix>
        </filter>
    </defs>
    <g id="leftmenu/history/icon-bet-records" stroke="none" stroke-width="1" fill="none" fill-rule="evenodd">
        <g id="Combined-Shape">
            <use fill="black" fill-opacity="1" filter="url(#filter-3)" xlink:href="#path-2"></use>
            <use fill="url(#linearGradient-1)" fill-rule="evenodd" xlink:href="#path-2"></use>
        </g>
    </g>
</svg>