<?xml version="1.0" encoding="UTF-8"?>
<svg viewBox="0 0 30 30" version="1.1" xmlns="http://www.w3.org/2000/svg" xmlns:xlink="http://www.w3.org/1999/xlink">
    <title>leftmenu/my/icon-info</title>
    <defs>
        <linearGradient x1="50%" y1="1.33055874e-13%" x2="50%" y2="104.53891%" id="linearGradient-1">
            <stop stop-color="#ffb80c" stop-opacity="0.7" offset="0%"></stop>
            <stop stop-color="#ffb80c" stop-opacity="0.995478029" offset="100%"></stop>
            <stop stop-color="#FFFFFF" offset="100%"></stop>
            <stop stop-color="#ffb80c" stop-opacity="0.995478029" offset="100%"></stop>
        </linearGradient>
        <path d="M15.5,3 C22.405,3 28,8.595 28,15.5 C28,19.915 25.705,23.795 22.25,26.02 L22.25,26.145 L22.055,26.145 C20.15,27.32 17.905,28 15.5,28 C13.095,28 10.85,27.32 8.945,26.145 L8.75,26.145 L8.75,26.02 C5.29,23.795 3,19.915 3,15.5 C3,8.595 8.595,3 15.5,3 Z M15.505,5.5 C9.99,5.5 5.505,9.985 5.505,15.5 C5.505,18.48 6.82,21.155 8.9,22.99 C9.19,21.615 9.895,20.4 10.88,19.475 C11.325,19.06 11.985,18.935 12.535,19.205 C13.43,19.645 14.435,19.895 15.5,19.895 C16.565,19.895 17.57,19.645 18.465,19.205 C19.01,18.935 19.675,19.055 20.12,19.475 C21.105,20.4 21.81,21.62 22.1,22.99 C24.18,21.155 25.5,18.48 25.505,15.5 C25.505,9.985 21.02,5.5 15.505,5.5 Z M15.5,8.855 C17.99,8.855 20.01,10.825 20.01,13.255 C20.01,15.685 17.99,17.655 15.5,17.655 C13.01,17.655 10.99,15.685 10.99,13.255 C10.99,10.825 13.01,8.855 15.5,8.855 Z" id="path-2"></path>
        <filter x="-16.0%" y="-8.0%" width="132.0%" height="132.0%" filterUnits="objectBoundingBox" id="filter-3">
            <feOffset dx="0" dy="2" in="SourceAlpha" result="shadowOffsetOuter1"></feOffset>
            <feGaussianBlur stdDeviation="1" in="shadowOffsetOuter1" result="shadowBlurOuter1"></feGaussianBlur>
            <feColorMatrix values="0 0 0 0 0   0 0 0 0 0   0 0 0 0 0  0 0 0 0.05 0" type="matrix" in="shadowBlurOuter1"></feColorMatrix>
        </filter>
    </defs>
    <g id="leftmenu/my/icon-info" stroke="none" stroke-width="1" fill="none" fill-rule="evenodd">
        <g id="Combined-Shape">
            <use fill="black" fill-opacity="1" filter="url(#filter-3)" xlink:href="#path-2"></use>
            <use fill="url(#linearGradient-1)" fill-rule="evenodd" xlink:href="#path-2"></use>
        </g>
    </g>
</svg>
