<?xml version="1.0" encoding="UTF-8"?>
<svg viewBox="0 0 30 30" version="1.1" xmlns="http://www.w3.org/2000/svg" xmlns:xlink="http://www.w3.org/1999/xlink">
    <title>leftmenu/other/icon-vip</title>
    <defs>
        <linearGradient x1="50%" y1="1.33055874e-13%" x2="50%" y2="104.53891%" id="linearGradient-1">
            <stop stop-color="#ffb80c" stop-opacity="0.7" offset="0%"></stop>
            <stop stop-color="#ffb80c" stop-opacity="0.995478029" offset="100%"></stop>
            <stop stop-color="#FFFFFF" offset="100%"></stop>
            <stop stop-color="#ffb80c" stop-opacity="0.995478029" offset="100%"></stop>
        </linearGradient>
        <path d="M26.9673727,16.6779712 C26.4474918,15.9726891 26.4474918,15.0323129 26.9673727,14.3270308 L27.612225,13.4466787 C28.4270383,12.3312325 27.9021586,10.7756102 26.5574666,10.3304322 L25.4977094,9.98529412 C24.6479041,9.70518207 24.0730358,8.94487795 24.0580393,8.08453381 L24.0430427,7.01410564 C24.0230473,5.65356142 22.6383645,4.69317727 21.2836749,5.09333733 L20.2089211,5.40346138 C19.3491181,5.65856343 18.4143323,5.36844738 17.874456,4.67817127 L17.1996106,3.81782713 C16.3448064,2.72739096 14.640197,2.72739096 13.7853928,3.81782713 L13.1205452,4.67817127 C12.5806688,5.36844738 11.645883,5.65856343 10.78608,5.40346138 L9.71632509,5.09333733 C8.36163547,4.69317727 6.97695271,5.65356142 6.95695729,7.01410564 L6.94196073,8.08453381 C6.92696416,8.94487795 6.35209587,9.70518207 5.50229057,9.98529412 L4.44253337,10.3304322 C3.09784145,10.7706082 2.5729617,12.3262305 3.38777502,13.4466787 L4.03262728,14.3270308 C4.55250817,15.0323129 4.55250817,15.9726891 4.03262728,16.6779712 L3.38777502,17.5583233 C2.5729617,18.6737695 3.09784145,20.2293918 4.44253337,20.6745698 L5.50229057,21.0197079 C6.35209587,21.2998199 6.92696416,22.060124 6.94196073,22.9204682 L6.95695729,23.9908964 C6.97695271,25.3514406 8.36163547,26.3118247 9.71632509,25.9116647 L10.78608,25.5965386 C11.645883,25.3414366 12.5806688,25.6315526 13.1205452,26.3218287 L13.7953905,27.1821729 C14.6501947,28.272609 16.3548042,28.272609 17.2096083,27.1821729 L17.874456,26.3268307 C18.4143323,25.6365546 19.3491181,25.3464386 20.2089211,25.6015406 L21.2786761,25.9116647 C22.6333657,26.3118247 24.0180484,25.3514406 24.0380439,23.9908964 L24.0530404,22.9204682 C24.068037,22.060124 24.6429053,21.2998199 25.4927106,21.0197079 L26.5524678,20.6745698 C27.8971597,20.2343938 28.4220394,18.6787715 27.6072261,17.5583233 L26.9673727,16.6779712 Z M21.3686554,14.1169468 L18.7992441,16.6229492 L19.4041055,20.1643657 C19.4340987,20.3544418 19.3591158,20.5395158 19.2041513,20.6545618 C19.1191708,20.7195878 19.0141949,20.7495998 18.9092189,20.7495998 C18.8292372,20.7495998 18.7492556,20.7295918 18.6792716,20.6945778 L15.5,19.0239096 L12.3207284,20.6945778 C12.1557662,20.7846138 11.9458143,20.7696078 11.7958487,20.6545618 C11.6408842,20.5445178 11.5659013,20.3544418 11.5958945,20.1643657 L12.2007559,16.6229492 L9.63134456,14.1169468 C9.49637549,13.9818928 9.44638694,13.7868147 9.5063732,13.6017407 C9.56635945,13.4216687 9.72132395,13.2866146 9.91128043,13.2616046 L13.4654661,12.7463986 L15.0551019,9.52511004 C15.225063,9.18497399 15.7849347,9.18497399 15.9498969,9.52511004 L17.5395327,12.7463986 L21.0937184,13.2616046 C21.2836749,13.2866146 21.4386394,13.4216687 21.4986257,13.6017407 C21.5536131,13.7868147 21.5086234,13.9818928 21.3686554,14.1169468 Z" id="path-2"></path>
        <filter x="-16.0%" y="-8.0%" width="132.0%" height="132.0%" filterUnits="objectBoundingBox" id="filter-3">
            <feOffset dx="0" dy="2" in="SourceAlpha" result="shadowOffsetOuter1"></feOffset>
            <feGaussianBlur stdDeviation="1" in="shadowOffsetOuter1" result="shadowBlurOuter1"></feGaussianBlur>
            <feColorMatrix values="0 0 0 0 0   0 0 0 0 0   0 0 0 0 0  0 0 0 0.05 0" type="matrix" in="shadowBlurOuter1"></feColorMatrix>
        </filter>
    </defs>
    <g id="leftmenu/other/icon-vip" stroke="none" stroke-width="1" fill="none" fill-rule="evenodd">
        <g id="Shape">
            <use fill="black" fill-opacity="1" filter="url(#filter-3)" xlink:href="#path-2"></use>
            <use fill="url(#linearGradient-1)" fill-rule="evenodd" xlink:href="#path-2"></use>
        </g>
    </g>
</svg>
