<?xml version="1.0" encoding="UTF-8"?>
<svg viewBox="0 0 30 30" version="1.1" xmlns="http://www.w3.org/2000/svg" xmlns:xlink="http://www.w3.org/1999/xlink">
    <title>leftmenu/funds/icon-voucher</title>
    <defs>
        <linearGradient x1="50%" y1="1.33055874e-13%" x2="50%" y2="104.53891%" id="linearGradient-1">
            <stop stop-color="#ffb80c" stop-opacity="0.7" offset="0%"></stop>
            <stop stop-color="#ffb80c" stop-opacity="0.995478029" offset="100%"></stop>
            <stop stop-color="#FFFFFF" offset="100%"></stop>
            <stop stop-color="#ffb80c" stop-opacity="0.995478029" offset="100%"></stop>
        </linearGradient>
        <path d="M6.03223278,10.656735 C6.02817525,10.6950194 6.02096188,10.7328424 6.02096188,10.7720492 L6.02096188,11.4639344 C6.02096188,12.0372765 6.47495385,12.5017621 7.03534315,12.5017621 C7.59528161,12.5017621 8.04972442,12.0372765 8.04972442,11.4639344 L8.04972442,10.7720492 C8.04972442,10.7328424 8.04251104,10.6950194 8.03845352,10.656735 L20.3846007,10.656735 C21.3813993,10.656735 22.1892977,11.4833072 22.1892977,12.5031459 L22.1892977,15.0801874 C20.9102756,15.3002069 19.9351171,16.4353597 19.9351171,17.8062148 C19.9351171,19.1770699 20.9102756,20.3122228 22.1892977,20.5322423 L22.1892977,23.1097451 C22.1892977,24.1291225 21.3813993,24.9556946 20.3846007,24.9556946 L8.03845352,24.9556946 C8.04251104,24.9174103 8.04972442,24.8800485 8.04972442,24.8403804 L8.04972442,24.1484953 C8.04972442,23.5756144 7.59528161,23.1106676 7.03534315,23.1106676 C6.47495385,23.1106676 6.02096188,23.5756144 6.02096188,24.1484953 L6.02096188,24.8403804 C6.02096188,24.8800485 6.02817525,24.9174103 6.03223278,24.9556946 L2.80424616,24.9556946 C1.80789833,24.9556946 1,24.1291225 1,23.1097451 L1,20.5737554 C2.49362007,20.5737554 3.70501672,19.3348197 3.70501672,17.8062148 C3.70501672,16.2780712 2.49362007,15.0386743 1,15.0386743 L1,12.5031459 C1,11.4833072 1.80789833,10.656735 2.80424616,10.656735 Z M7.03534315,18.6521597 C6.47495385,18.6521597 6.02096188,19.1166453 6.02096188,19.6899875 L6.02096188,20.3818726 C6.02096188,20.9547535 6.47495385,21.4197003 7.03534315,21.4197003 C7.59573245,21.4197003 8.04972442,20.9547535 8.04972442,20.3818726 L8.04972442,19.6899875 C8.04972442,19.1166453 7.59573245,18.6521597 7.03534315,18.6521597 Z M23.0664444,5.10993799 C24.0023802,4.76445668 25.0347949,5.2603077 25.3724712,6.21787673 L26.228609,8.64500981 C25.0983628,9.29630436 24.5573595,10.7026762 25.0122531,11.9918889 C25.4671468,13.2815628 26.7610464,14.0108097 28.0369127,13.7737237 L28.8925996,16.2008568 C29.2302759,17.1584258 28.7451762,18.2147038 27.8092404,18.5601851 L23.9924618,19.9688633 L23.9924618,18.9716262 L22.4880217,18.7128611 C22.0534157,18.6381375 21.7382812,18.2571395 21.7382812,17.8064916 C21.7382812,17.3558437 22.0534157,16.9743844 22.4880217,16.8996608 L23.9924618,16.6408958 L23.9924618,12.5029614 C23.9924618,10.4678965 22.3739602,8.81198476 20.3844204,8.81198476 L13.0362424,8.81198476 Z M7.03534315,14.1931906 C6.47495385,14.1931906 6.02096188,14.6576762 6.02096188,15.2310183 L6.02096188,15.9229035 C6.02096188,16.4962456 6.47495385,16.9607312 7.03534315,16.9607312 C7.59573245,16.9607312 8.04972442,16.4962456 8.04972442,15.9229035 L8.04972442,15.2310183 C8.04972442,14.6576762 7.59573245,14.1931906 7.03534315,14.1931906 Z" id="path-2"></path>
        <filter x="-14.3%" y="-10.0%" width="128.6%" height="140.1%" filterUnits="objectBoundingBox" id="filter-3">
            <feOffset dx="0" dy="2" in="SourceAlpha" result="shadowOffsetOuter1"></feOffset>
            <feGaussianBlur stdDeviation="1" in="shadowOffsetOuter1" result="shadowBlurOuter1"></feGaussianBlur>
            <feColorMatrix values="0 0 0 0 0   0 0 0 0 0   0 0 0 0 0  0 0 0 0.05 0" type="matrix" in="shadowBlurOuter1"></feColorMatrix>
        </filter>
    </defs>
    <g id="leftmenu/funds/icon-voucher" stroke="none" stroke-width="1" fill="none" fill-rule="evenodd">
        <g id="Combined-Shape">
            <use fill="black" fill-opacity="1" filter="url(#filter-3)" xlink:href="#path-2"></use>
            <use fill="url(#linearGradient-1)" fill-rule="evenodd" xlink:href="#path-2"></use>
        </g>
    </g>
</svg>
