<?xml version="1.0" encoding="UTF-8"?>
<svg width="15px" height="15px" viewBox="0 0 15 15" version="1.1" xmlns="http://www.w3.org/2000/svg" xmlns:xlink="http://www.w3.org/1999/xlink">
    <title>icon-cross-type04</title>
    <g id="icon-set最新整理" stroke="none" stroke-width="1" fill="none" fill-rule="evenodd">
        <g id="images/h5/icon-set" transform="translate(-226.000000, -179.000000)" fill="#FFFFFF" fill-rule="nonzero">
            <g id="icon-cross-type04" transform="translate(226.000000, 179.000000)">
                <path d="M8.03033009,6.96966991 L12.2729708,6.96966991 C12.565864,6.96966991 12.8033009,7.20710679 12.8033009,7.5 C12.8033009,7.79289321 12.565864,8.03033009 12.2729708,8.03033009 L8.03033009,8.03033009 L8.03033009,12.2729708 C8.03033009,12.565864 7.79289321,12.8033009 7.5,12.8033009 C7.20710679,12.8033009 6.96966991,12.565864 6.96966991,12.2729708 L6.96966991,8.03033009 L2.72702923,8.03033009 C2.43413601,8.03033009 2.19669914,7.79289321 2.19669914,7.5 C2.19669914,7.20710679 2.43413601,6.96966991 2.72702923,6.96966991 L6.96966991,6.96966991 L6.96966991,2.72702923 C6.96966991,2.43413601 7.20710679,2.19669914 7.5,2.19669914 C7.79289321,2.19669914 8.03033009,2.43413601 8.03033009,2.72702923 L8.03033009,6.96966991 Z" id="Combined-Shape" transform="translate(7.500000, 7.500000) rotate(45.000000) translate(-7.500000, -7.500000) "></path>
            </g>
        </g>
    </g>
</svg>