<?xml version="1.0" encoding="UTF-8"?>
<svg width="20px" height="20px" viewBox="0 0 20 20" version="1.1" xmlns="http://www.w3.org/2000/svg" xmlns:xlink="http://www.w3.org/1999/xlink">
    <title>icon/slot/star-active</title>
    <defs>
        <linearGradient x1="59.0376751%" y1="27.3141025%" x2="76.2299179%" y2="85.9083779%" id="linearGradient-1">
            <stop stop-color="#D7D7D7" offset="0%"></stop>
            <stop stop-color="#898989" offset="16.4308348%"></stop>
            <stop stop-color="#585858" offset="48.4019886%"></stop>
            <stop stop-color="#DADADA" offset="69.8180726%"></stop>
            <stop stop-color="#A2A2A2" offset="100%"></stop>
        </linearGradient>
        <path d="M9.53465887,15.2446443 L5.91561963,17.1472858 C5.42677504,17.4042866 4.82214789,17.2163401 4.56514708,16.7274955 C4.46280801,16.5328351 4.42749334,16.309867 4.46467018,16.0931094 L5.15584517,12.0632499 C5.21148311,11.7388559 5.10393462,11.4078557 4.86824854,11.1781185 L1.94038429,8.32415622 C1.54490071,7.93865501 1.5368084,7.30554174 1.92230962,6.91005817 C2.07581822,6.75257453 2.27696063,6.65008735 2.49459766,6.61846284 L6.54080654,6.03051428 C6.8665167,5.98318582 7.14808229,5.77861645 7.2937443,5.48347297 L9.10326392,1.81698575 C9.34768622,1.32173209 9.94731205,1.11839309 10.4425657,1.36281539 C10.6397783,1.46014562 10.7994058,1.61977315 10.8967361,1.81698575 L12.7062557,5.48347297 C12.8519177,5.77861645 13.1334833,5.98318582 13.4591935,6.03051428 L17.5054023,6.61846284 C18.0519472,6.69788046 18.4306287,7.20532331 18.351211,7.75186817 C18.3195865,7.96950521 18.2170993,8.17064762 18.0596157,8.32415622 L15.1317515,11.1781185 C14.8960654,11.4078557 14.7885169,11.7388559 14.8441548,12.0632499 L15.5353298,16.0931094 C15.6286908,16.6374458 15.263103,17.1544017 14.7187666,17.2477627 C14.5020089,17.2849396 14.2790408,17.2496249 14.0843804,17.1472858 L10.4653411,15.2446443 C10.1740171,15.0914862 9.8259829,15.0914862 9.53465887,15.2446443 Z" id="path-2"></path>
    </defs>
    <g id="icon/slot/star-active" stroke="none" stroke-width="1" fill="none" fill-rule="evenodd">
        <g id="star">
            <mask id="mask-3" fill="white">
                <use xlink:href="#path-2"></use>
            </mask>
            <use id="Mask" stroke="url(#linearGradient-1)" stroke-width="0.3" fill="#FFFFFF" stroke-linejoin="round" xlink:href="#path-2"></use>
            <path d="M10,9.99999569 L3.54892118,1.10082283 C5.510449,-0.327535278 7.57542567,-1.00002587 10,-1.00002587 L10,9.99999569 Z" id="Fill-1" fill="#FFF37E" mask="url(#mask-3)"></path>
            <path d="M10,9.99999569 L-0.438053379,6.60081206 C0.311165769,4.28966724 1.58739336,2.52913784 3.54892118,1.10082283 L10,9.99999569 Z" id="Fill-4" fill="#FFF37E" mask="url(#mask-3)"></path>
            <path d="M10,9.99999569 L-0.438053379,13.3991793 C-1.18731554,11.0880776 -1.18731554,8.91191376 -0.438053379,6.60081206 L10,9.99999569 Z" id="Fill-6" fill="#FFC900" mask="url(#mask-3)"></path>
            <path d="M10,9.99999569 L3.54892118,18.8991685 C1.58739336,17.4708535 0.311165769,15.710281 -0.438053379,13.3991793 L10,9.99999569 Z" id="Fill-8" fill="#FFC900" mask="url(#mask-3)"></path>
            <path d="M10,9.99999569 L10,21.0000172 C7.57542567,21.0000172 5.510449,20.3275267 3.54892118,18.8991685 L10,9.99999569 Z" id="Fill-10" fill="#FFAF23" mask="url(#mask-3)"></path>
            <path d="M10,9.99999569 L16.4510788,18.8991685 C14.489551,20.3275267 12.4245743,21.0000172 10,21.0000172 L10,9.99999569 Z" id="Fill-13" fill="#FFAF23" mask="url(#mask-3)"></path>
            <path d="M10,9.99999569 L20.4380534,13.3991793 C19.6888342,15.710281 18.4126066,17.4708535 16.4510788,18.8991685 L10,9.99999569 Z" id="Fill-16" fill="#E6A908" mask="url(#mask-3)"></path>
            <path d="M10,9.99999569 L20.4380534,6.60081206 C21.1873155,8.91191376 21.1873155,11.0880776 20.4380534,13.3991793 L10,9.99999569 Z" id="Fill-18" fill="#E6A908" mask="url(#mask-3)"></path>
            <path d="M10,9.99999569 L16.4510788,1.10082283 C18.4126066,2.52913784 19.6888342,4.28966724 20.4380534,6.60081206 L10,9.99999569 Z" id="Fill-20" fill="#FFE700" mask="url(#mask-3)"></path>
            <path d="M10,9.99999569 L10,-1.00002587 C12.4245743,-1.00002587 14.489551,-0.327535278 16.4510788,1.10082283 L10,9.99999569 Z" id="Fill-22" fill="#FFE700" mask="url(#mask-3)"></path>
        </g>
    </g>
</svg>