<?xml version="1.0" encoding="UTF-8"?>
<svg viewBox="0 0 30 30" version="1.1" xmlns="http://www.w3.org/2000/svg" xmlns:xlink="http://www.w3.org/1999/xlink">
    <title>leftmenu/sports/color/icon-tennis</title>
    <g id="leftmenu/sports/color/icon-tennis" stroke="none" stroke-width="1" fill="none" fill-rule="evenodd">
        <circle id="Oval" fill="#F2F2F2" cx="15" cy="15" r="12"></circle>
        <path d="M13.8713673,3 C14.2162845,5.95909759 15.7307419,9.10828838 18.3123237,11.6913193 C20.8956714,14.2749387 24.0476027,15.7874448 27,16.1299657 C26.7504353,18.8277587 25.5926671,21.4596371 23.5255181,23.524767 C21.4560147,25.589897 18.8314654,26.7492888 16.1286327,27 C15.7884243,24.0432565 14.2739669,20.8946542 11.6894421,18.3110348 C9.10609442,15.7280039 5.95946045,14.2154978 3,13.8723884 C3.25074187,11.1740069 4.4096873,8.54330554 6.4774249,6.47758706 C8.54516249,4.41128004 11.1761864,3.25129966 13.8713673,3 Z M3,15.2666667 C5.59807834,15.6037125 8.39127864,16.9826437 10.7043607,19.2964337 C13.0198078,21.6114062 14.3986696,24.4035647 14.7333333,27 C11.7568367,26.9136689 8.80753879,25.7340086 6.53762011,23.4639756 C4.26592757,21.1927598 3.08750923,18.242722 3,15.2666667 Z M15.2666667,3 C18.2431546,3.09221158 21.1954051,4.26554491 23.4654575,6.53714189 C25.7343276,8.80873886 26.9119171,11.7571452 27,14.7333333 C24.3988983,14.3981797 21.6092167,13.0203258 19.2954185,10.7061696 C16.9816203,8.39201342 15.6012629,5.59906632 15.2666667,3 Z" id="iconTennis" fill="#D6E826"></path>
        <path d="M14.9999509,22.9337832 C9.067583,22.9337832 4.1413691,18.6406093 3.1732444,13 C3.05974623,13.6608803 3,14.3399877 3,15.0331084 C3,21.6422052 8.37254179,27 14.9999509,27 C21.6273599,27 27,21.6422052 27,15.0331084 C27,14.3399877 26.9401555,13.6608803 26.8266573,13 C25.8585326,18.6406093 20.9323187,22.9337832 14.9999509,22.9337832" id="Fill-1" fill-opacity="0.0637838724" fill="#000000"></path>
    </g>
</svg>
