<?xml version="1.0" encoding="UTF-8"?>
<svg viewBox="0 0 30 30" version="1.1" xmlns="http://www.w3.org/2000/svg" xmlns:xlink="http://www.w3.org/1999/xlink">
    <title>leftmenu/sports/color/icon-badminton</title>
    <g id="leftmenu/sports/color/icon-badminton" stroke="none" stroke-width="1" fill="none" fill-rule="evenodd">
        <path d="M15.0077047,19.2031961 L10.8438089,4.3269958 L13.3503689,2.85273655 C13.4454842,2.79130449 13.5514456,2.76012014 13.6654137,2.76012014 C13.7634819,2.76012014 13.868194,2.7827646 13.9767107,2.82750257 L16.6845746,4.08567524 L16.6845746,19.2031961 L15.0077047,19.2031961 Z" id="Fill-1" fill="#EBE5E4" transform="translate(13.7642, 10.9817) rotate(-315) translate(-13.7642, -10.9817)"></path>
        <path d="M12.5106085,16.780654 L7.88107328,2.23943745 C7.80958059,2.03100921 7.83814359,1.82753962 7.96045913,1.66296781 C8.08811249,1.49117843 8.29736632,1.38858964 8.52019185,1.38858964 C8.61490973,1.38858964 8.70923012,1.40704681 8.8004841,1.44352037 L10.1854208,2.02461808 L14.2980395,16.780654 L12.5106085,16.780654 Z" id="Fill-3" fill="#EBE5E4" transform="translate(11.0703, 9.0846) rotate(-315) translate(-11.0703, -9.0846)"></path>
        <path d="M15.8163491,24.2218086 L15.8163491,9.06594089 L18.5275633,7.80628063 C18.6173409,7.76275477 18.7174534,7.74038579 18.8197237,7.74038579 C18.9423799,7.74038579 19.0567455,7.77239658 19.1504981,7.83305729 L21.6573988,9.30742673 L17.5323441,24.2218086 L15.8163491,24.2218086 Z" id="Fill-5" fill="#E0D6D3" transform="translate(18.7369, 15.9811) rotate(-315) translate(-18.7369, -15.9811)"></path>
        <path d="M6.2708594,26.1165383 C3.39911314,26.1165383 1.06279548,23.8496127 1.06279548,21.0631867 L1.06279548,20.8064392 L11.4789233,20.8066596 L11.4789233,21.0634071 C11.4789233,23.8496678 9.14254888,26.1165383 6.2708594,26.1165383" id="Fill-8" fill="#D9D8DD" transform="translate(6.2709, 23.4615) rotate(-315) translate(-6.2709, -23.4615)"></path>
        <path d="M17.4194379,26.3582255 L21.5318294,11.601859 L22.902002,11.0270973 L22.9169933,11.0210918 C23.0082473,10.9846734 23.1025677,10.9661611 23.1972288,10.9661611 C23.4201111,10.9661611 23.6293081,11.0687499 23.7569047,11.2405393 C23.8792202,11.4051662 23.9077264,11.6086358 23.8373695,11.8135379 L19.2069256,26.3582255 L17.4194379,26.3582255 Z" id="Fill-10" fill="#E0D6D3" transform="translate(20.6473, 18.6622) rotate(-315) translate(-20.6473, -18.6622)"></path>
        <polygon id="Fill-12" fill="#FF7B00" transform="translate(8.9931, 20.7674) rotate(-315) translate(-8.9931, -20.7674)" points="3.76519764 21.7673672 14.2210752 21.7673672 14.2210752 19.7673672 3.76519764 19.7673672"></polygon>
    </g>
</svg>
