<?xml version="1.0" encoding="UTF-8"?>
<svg viewBox="0 0 30 30" version="1.1" xmlns="http://www.w3.org/2000/svg" xmlns:xlink="http://www.w3.org/1999/xlink">
    <title>leftmenu/sports/color/icon-virtual</title>
    <defs>
        <polygon id="path-1" points="0 0 23 0 23 23 0 23"></polygon>
        <polygon id="path-3" points="0 0 8.21275478 0 8.21275478 4.01104828 0 4.01104828"></polygon>
    </defs>
    <g id="leftmenu/sports/color/icon-virtual" stroke="none" stroke-width="1" fill="none" fill-rule="evenodd">
        <g id="Group-37" transform="translate(1, 3)">
            <g id="Group-3">
                <mask id="mask-2" fill="white">
                    <use xlink:href="#path-1"></use>
                </mask>
                <g id="Clip-2"></g>
                <path d="M23.0000274,11.4999909 C23.0000274,17.8513117 17.851335,22.9999909 11.5000137,22.9999909 C5.14869238,22.9999909 0,17.8513117 0,11.4999909 C0,5.14867915 5.14869238,-9.13989968e-06 11.5000137,-9.13989968e-06 C17.851335,-9.13989968e-06 23.0000274,5.14867915 23.0000274,11.4999909" id="Fill-1" fill="#EDEDED" mask="url(#mask-2)"></path>
            </g>
            <polygon id="Fill-4" fill="#B1B2B6" points="4.14918871 5.21730151 3.98924034 4.99447076 7.65379463 2.36227105 7.813743 2.58501041"></polygon>
            <polygon id="Fill-6" fill="#B1B2B6" points="7.83067925 10.4228491 3.76643683 9.02042291 3.85582512 8.76121535 7.92015894 10.1636416"></polygon>
            <polygon id="Fill-8" fill="#B1B2B6" points="15.2484632 10.4861338 15.1654728 10.224824 19.0236104 8.9989807 19.1066007 9.26029043"></polygon>
            <polygon id="Fill-10" fill="#B1B2B6" points="11.6370849 7.35071861 11.3628877 7.34843364 11.3959741 3.4983423 11.6701714 3.50062728"></polygon>
            <polygon id="Fill-12" fill="#B1B2B6" points="18.8540377 5.25175893 15.2754899 2.68829127 15.4351641 2.46536912 19.0137118 5.02883678"></polygon>
            <polygon id="Fill-14" fill="#B1B2B6" points="7.0969458 17.9376472 6.87310948 17.7793441 9.11640824 14.607342 9.34024456 14.7657364"></polygon>
            <polygon id="Fill-16" fill="#B1B2B6" points="16.1234082 18.0317242 13.56853 14.6510581 13.787248 14.4857173 16.3422176 17.8663834"></polygon>
            <polygon id="Fill-18" fill="#B1B2B6" points="19.9406538 16.6955531 19.6819944 16.6047025 21.2303861 12.2002763 21.4890454 12.2912183"></polygon>
            <polygon id="Fill-20" fill="#B1B2B6" points="14.0976301 21.208735 8.85022673 21.1399116 8.85379129 20.8657146 14.1011947 20.9345381"></polygon>
            <polygon id="Fill-22" fill="#B1B2B6" points="2.94029892 16.6386938 1.56392034 12.1482611 1.82605287 12.0679214 3.20243145 16.5583541"></polygon>
            <path d="M9.52761265,21.0510444 C8.92721217,20.1983831 8.39618357,19.427981 7.84678377,18.6707403 C7.56372085,18.2804666 7.32379829,17.7313414 6.93343287,17.5698394 C5.65850725,17.0423758 4.32344104,16.6600538 2.92823425,16.1941017 C2.80064114,16.9449444 2.7556728,17.566092 2.5789984,18.1472068 C2.51922341,18.3436233 2.49984681,18.5199319 2.51721263,18.680063 C3.75210546,20.222878 5.37580992,21.4407697 7.24025954,22.1847575 C7.30167972,22.1808274 7.3519492,22.1731498 7.38247649,22.1597142 C8.08798591,21.8496888 8.75748409,21.4578613 9.52761265,21.0510444" id="Fill-24" fill="#344D5B"></path>
            <path d="M15.2265366,9.86040711 C14.1664902,9.02959023 13.0508731,8.27015596 11.9784878,7.45441992 C11.6064022,7.17135722 11.3439041,7.20416946 10.9906467,7.47982884 C10.3112774,8.00976022 9.59141834,8.48750278 8.89349505,8.99385322 C7.34766259,10.1154103 7.34912497,10.1170555 7.93225104,11.9837886 C7.99641318,12.1892535 8.04979024,12.3984658 8.1224525,12.6008232 C8.40268205,13.3807309 8.4760755,14.445255 9.03214744,14.8567333 C9.59169254,15.2708621 10.6334591,15.0345957 11.4639111,15.0834028 C11.4646423,15.0746285 12.7624177,15.0301172 13.4076951,15.0663112 C13.8606689,15.0916287 14.1070808,14.9301267 14.2425342,14.5021052 C14.6485289,13.2191374 15.0973897,11.949057 15.4711205,10.6570408 C15.537659,10.4268067 15.4115283,10.0053659 15.2265366,9.86040711" id="Fill-26" fill="#344D5B"></path>
            <path d="M19.9911152,16.2297747 C18.616656,16.6822911 17.3670479,17.0903876 16.1210044,17.5090865 C15.9995351,17.5499418 15.8692914,17.6340289 15.7950753,17.735756 C15.0041992,18.8200223 14.2238339,19.9118747 13.3950272,21.0649644 C14.0008202,21.4005815 14.530295,21.6618913 15.025221,21.9773092 C15.1765778,22.0737351 15.3597416,22.1772902 15.5544216,22.2640279 C17.461646,21.5452661 19.1275768,20.3347778 20.3972013,18.786296 C20.4023196,18.7549462 20.4048788,18.7245103 20.4016798,18.6963594 C20.3121087,17.9045699 20.1469506,17.1212805 19.9911152,16.2297747" id="Fill-28" fill="#344D5B"></path>
            <path d="M18.6567802,4.93266676 C18.6567802,6.24881231 18.6515705,7.45692425 18.6612588,8.66485339 C18.6631781,8.90313057 18.6450811,9.19569876 18.7683785,9.36999665 C19.5414318,10.4637684 20.3518673,11.5311259 21.2072712,12.6844899 C21.7150845,12.2064731 22.1205307,11.7791828 22.5739615,11.4107534 C22.7267808,11.2865422 22.8704601,11.1391156 22.9877251,10.978162 C22.8955948,8.91610923 22.2606455,6.99545071 21.2219865,5.35556991 C21.111485,5.31370917 21.010489,5.28272491 20.9439505,5.26883227 C20.2343281,5.12113149 19.5085281,5.05111986 18.6567802,4.93266676" id="Fill-30" fill="#344D5B"></path>
            <g id="Group-34" transform="translate(7.4259, 0)">
                <mask id="mask-4" fill="white">
                    <use xlink:href="#path-3"></use>
                </mask>
                <g id="Clip-33"></g>
                <path d="M3.73950153,3.94000053 C3.91087478,3.99511413 4.12255503,4.03907704 4.28524537,3.98935599 C5.56803131,3.5967059 6.84332252,3.18010927 8.21275478,2.74148549 C7.86818029,2.04511653 7.65156449,1.45248544 7.30123186,0.953538313 C7.16139128,0.754288501 6.91068364,0.494258355 6.66070718,0.292175173 C5.82924985,0.101059871 4.96351786,-2.7419699e-05 4.07411352,-2.7419699e-05 C3.0837132,-2.7419699e-05 2.12256059,0.125280605 1.20555373,0.360724421 C0.808607567,1.05617939 0.390274026,1.92785162 0,2.70894745 C1.34283513,3.15305517 2.53888335,3.55374837 3.73950153,3.94000053" id="Fill-32" fill="#344D5B" mask="url(#mask-4)"></path>
            </g>
            <path d="M1.86255766,12.6249983 C2.60873966,11.6022435 3.32357178,10.6342367 4.02268326,9.65489646 C4.17522831,9.44102281 4.37073092,9.18949277 4.37685466,8.95094139 C4.41112931,7.61642464 4.39330649,6.2805369 4.39330649,4.8499598 C3.71695337,4.9410846 3.16353201,5.06136568 2.60672888,5.07909709 C2.29259028,5.08915098 2.03118894,5.15824862 1.8188689,5.29077717 C0.783500243,6.90168448 0.139867996,8.78806838 0.0207750085,10.8153895 C0.0588884204,10.9084337 0.105593345,10.9935262 0.164362946,11.0586937 C0.64621884,11.5931036 1.2201136,12.044706 1.86255766,12.6249983" id="Fill-35" fill="#344D5B"></path>
        </g>
        <g id="Group" transform="translate(9.9966, 14.2313)">
            <path d="M9.50277129,0.00309512065 C10.7144783,0.00309512065 11.9260914,0.00263207752 13.1377985,0.00328033791 C14.2626196,0.0039285983 15.1624764,0.435299584 15.7999846,1.3629602 C17.2075373,3.41127782 18.2273438,5.63036574 18.7826626,8.04606178 C18.9879013,8.93890156 19.0863408,9.84665132 18.9174532,10.7630137 C18.6262678,12.3427316 17.4368224,12.8900486 16.0684388,12.7467831 C15.1917828,12.6551005 14.5288194,12.1577922 13.9208994,11.5806553 C13.4060648,11.0918669 12.9170612,10.5764999 12.3984693,10.0917864 C11.8228615,9.55363762 11.1662854,9.13560228 10.3614865,9.03641844 C9.94424595,8.98492804 9.5159216,9.02817627 9.0941724,9.00289412 C8.50954723,8.96770284 7.98541349,9.13967706 7.48758036,9.41463207 C6.95114169,9.71088707 6.50891558,10.1237363 6.06941347,10.5405678 C5.55946327,11.02417 5.06444807,11.5269422 4.52077672,11.9712784 C3.79403429,12.5651776 2.9444304,12.8025335 1.99948676,12.6269475 C0.911862278,12.4247829 0.274541945,11.7702251 0.0828292263,10.6876303 C-0.0987389687,9.66226754 0.0393392758,8.65663046 0.292388793,7.66682945 C0.877577544,5.3776368 1.86892298,3.26671575 3.22434412,1.32017502 C3.85433785,0.415388729 4.74320481,0.0155972853 5.8281053,0.00568816221 C7.05286872,-0.00542487305 8.27791393,0.00318772928 9.50277129,0.00309512065" id="Path" fill="#2E4A60"></path>
            <path d="M6.49510776,5.26113514 C6.71330896,5.26113514 6.89731935,5.26558036 7.08104795,5.26030167 C7.53708188,5.24724385 7.87316621,4.91218584 7.87241602,4.47664746 C7.87175725,4.02823649 7.52966135,3.69086326 7.06686441,3.68456588 C6.88426297,3.68197283 6.70156761,3.68410283 6.49388666,3.68410283 C6.49388666,3.45785996 6.50797627,3.25551011 6.4909748,3.05566069 C6.45415394,2.62225231 6.08444239,2.30719776 5.65893597,2.33025731 C5.22356681,2.3537799 4.89556053,2.6907827 4.89011254,3.1223389 C4.88776427,3.30320355 4.88973682,3.48416081 4.88973682,3.68401022 C4.69858769,3.68401022 4.52810332,3.68326936 4.35761896,3.68410283 C3.86983643,3.68641805 3.5029428,4.02925519 3.50648635,4.47868485 C3.50998761,4.92515105 3.86175838,5.25437472 4.34512617,5.26122775 C4.5216221,5.2638208 4.69811803,5.2616908 4.89011254,5.2616908 C4.89011254,5.47941368 4.8866371,5.66787224 4.89095792,5.85623818 C4.89706342,6.12313625 5.01757661,6.33465435 5.24122579,6.47977207 C5.77644337,6.82705442 6.4457941,6.49875684 6.49285342,5.86512861 C6.50722483,5.67241006 6.49510776,5.47783933 6.49510776,5.26113514" id="Path" fill="#EAEFF0"></path>
            <path d="M12.5180356,3.07797937 C12.5161646,3.52351947 12.863051,3.87413574 13.3115704,3.88006269 C13.7570841,3.88589703 14.1166511,3.53907772 14.1247292,3.09576022 C14.1327133,2.65633229 13.7815061,2.30293777 13.329793,2.29608473 C12.8830582,2.28923169 12.5199218,2.63892187 12.5180356,3.07797937" id="Path" fill="#08CF65"></path>
            <path d="M11.9012937,5.26280878 C12.352725,5.26456166 12.7133253,4.91866844 12.7168947,4.48053703 C12.720464,4.04407257 12.3598638,3.68614022 11.914444,3.68409479 C11.4673335,3.68215805 11.1009096,4.03295953 11.096213,4.4673866 C11.0915165,4.90144324 11.4555922,5.26113514 11.9012937,5.26280878" id="Path" fill="#FAC100"></path>
            <path d="M12.5176675,5.87049991 C12.5204854,6.30863133 12.8832461,6.6615628 13.3281022,6.65898396 C13.7688255,6.65637672 14.1284864,6.29409177 14.1258707,5.85540471 C14.1233202,5.41838459 13.7557691,5.06230442 13.313543,5.06841659 C12.8675596,5.07452876 12.5147556,5.42996067 12.5176675,5.87049991" id="Path" fill="#019AE0"></path>
            <path d="M14.7076636,5.26104254 C15.1606917,5.27382253 15.5299336,4.93617147 15.5396085,4.50017006 C15.5494712,4.06259429 15.2123537,3.6998463 14.7818689,3.68447327 C14.3128725,3.66780371 13.9310439,4.01666041 13.9260656,4.46655312 C13.921369,4.89662759 14.2675979,5.24863298 14.7076636,5.26104254" id="Path" fill="#FD3830"></path>
        </g>
    </g>
</svg>
