<?xml version="1.0" encoding="UTF-8"?>
<svg width="120px" height="120px" viewBox="0 0 120 120" version="1.1" xmlns="http://www.w3.org/2000/svg" xmlns:xlink="http://www.w3.org/1999/xlink">
    <title>h5/sports-icon/black/icon-Horsebook</title>
    <defs>
        <linearGradient x1="50%" y1="0%" x2="50%" y2="100%" id="linearGradient-1">
            <stop stop-color="#E88E00" offset="0%"></stop>
            <stop stop-color="#BF4C00" offset="100%"></stop>
        </linearGradient>
    </defs>
    <g id="h5/sports-icon/black/icon-Horsebook" stroke="none" stroke-width="1" fill="none" fill-rule="evenodd">
        <path d="M59.0651411,98.2788926 L59.5045819,97.964005 C74.9470484,86.9490708 89.0118179,85.296923 100.528045,89.233618 C102.581123,89.93544 104.039462,90.6512185 104.849281,91.1594359 C105.724457,91.7086699 105.993923,92.8718275 105.45115,93.7574212 C104.908376,94.6430148 103.758901,94.9156882 102.883725,94.3664542 C102.305874,94.0038126 101.102759,93.4133025 99.3344797,92.8088359 C88.5563225,89.124442 75.2118787,90.8582566 60.1756327,102.129202 L60.1461875,102.151452 C60.1214826,102.169226 60.0964125,102.186337 60.071004,102.202782 L60.1756327,102.129202 C60.1248206,102.16729 60.0727256,102.202375 60.019555,102.23449 C59.990909,102.252137 59.9615749,102.268712 59.9318764,102.284444 C59.9148507,102.293316 59.8981734,102.301864 59.8814122,102.310137 C59.8522528,102.324523 59.8222614,102.338276 59.7919724,102.351201 C59.7736178,102.359219 59.7552651,102.366737 59.7368352,102.373941 C59.7135844,102.382736 59.6902403,102.391283 59.6667538,102.399351 C59.6400459,102.408912 59.6133085,102.417443 59.5864535,102.425341 C59.5608998,102.432416 59.5349399,102.439429 59.5088528,102.445872 C59.4869818,102.45173 59.464971,102.456738 59.4429076,102.461334 C59.4162648,102.466448 59.3896037,102.471402 59.3628504,102.47577 C59.3407202,102.479756 59.3189379,102.482888 59.297129,102.485627 C59.2694623,102.488811 59.2410625,102.491756 59.2126027,102.494044 C59.1882335,102.496188 59.1642217,102.497607 59.1402086,102.498557 C59.1153381,102.499463 59.090296,102.499986 59.0652396,102.5 C59.0405122,102.499972 59.0158592,102.499452 58.9912358,102.498441 C58.9675308,102.497621 58.9438525,102.496228 58.920189,102.494376 C58.8911106,102.491842 58.8618292,102.488811 58.8326372,102.485085 C58.8125903,102.482879 58.7929076,102.480061 58.7732548,102.476921 C58.7451326,102.472016 58.7168056,102.466792 58.6886059,102.46091 C58.6669173,102.456834 58.64554,102.45198 58.6242228,102.446734 C58.5970592,102.439603 58.5696992,102.43221 58.5425032,102.424188 C58.5160386,102.416786 58.490013,102.408454 58.4641191,102.399519 C58.4421234,102.391597 58.4204343,102.383681 58.3988809,102.375354 C58.3789189,102.367876 58.3585632,102.359562 58.3383115,102.350863 C58.3067807,102.337231 58.275806,102.322964 58.2451894,102.307818 C58.2314194,102.300904 58.2176938,102.293865 58.2040287,102.286639 C58.171446,102.269664 58.1394112,102.251571 58.1078574,102.232479 C58.0941596,102.223743 58.0804886,102.215197 58.0668935,102.206451 C58.0386522,102.188847 58.0107014,102.16983 57.9832048,102.149992 C57.9740288,102.142749 57.964887,102.136023 57.9557863,102.129202 C42.9195403,90.8582566 29.5750966,89.124442 18.7969393,92.8088359 C17.0286605,93.4133025 15.8255451,94.0038126 15.2476942,94.3664542 C14.3725178,94.9156882 13.2230425,94.6430148 12.6802692,93.7574212 C12.1374959,92.8718275 12.4069618,91.7086699 13.2821381,91.1594359 C14.0919566,90.6512185 15.5502961,89.93544 17.603374,89.233618 C29.2284647,85.2597092 43.4505086,86.9808059 59.0651411,98.2788926 Z M83.6827689,17.5 C83.3904275,19.0874442 83.1166629,20.5749525 82.8301883,22.1287644 C83.9399117,21.2418328 84.9420849,20.4423451 85.9442582,19.6418966 C85.9902116,19.6851381 86.035187,19.7274187 86.0811404,19.7706602 C85.966746,20.2934021 85.8181312,20.8113394 85.7448013,21.338886 C85.3566425,24.0996167 85.7105806,26.8267152 86.1652253,29.5461263 C86.1994457,29.7536856 86.3157955,29.9756587 86.459522,30.1342109 C87.9036293,31.7303034 88.9664217,33.5675875 89.8463786,35.4961593 C91.0832072,38.2069221 92.2457281,40.9493953 93.4004271,43.6947513 C93.8648489,44.7988514 94.2666959,45.9327401 94.6186789,47.0762381 C94.8439123,47.8051416 95.2433594,48.4239202 95.6746618,49.0217209 L96.0488305,49.5310633 C96.1739403,49.7005178 96.2983302,49.870339 96.4186799,50.0426062 C98.1502396,52.5217867 98.4425809,55.1585583 97.3240576,57.9269766 C97.1030907,58.4747024 96.6826667,59.0406859 96.1947795,59.3702825 C94.864089,60.2716278 93.3701175,60.8462597 91.7226424,60.8760483 C89.5638147,60.9154461 88.037578,59.8344081 87.3355679,57.811666 C87.1830421,57.3696416 87.0178059,56.9256952 86.9317656,56.4692568 C86.8623468,56.0993018 86.6619121,55.9782256 86.3265508,55.9253746 C83.5429534,55.4833502 81.266798,54.0794423 79.1676114,52.3132666 C77.5866222,50.9823885 76.2099782,49.4737401 74.9663057,47.7882818 C73.2631002,48.6348546 71.5941151,49.6812993 71.0475638,51.450358 C70.3983511,53.5557396 70.6740711,55.9974439 72.7908566,60.1582389 C72.8724683,60.3186564 72.9542491,60.4793234 73.0360674,60.6400646 L73.526372,61.6040037 C74.6665452,63.8487406 75.7624081,66.0394246 76.4524553,67.6957161 C74.8108466,68.1742557 72.1797753,69.3235193 69.8459337,72.0419693 C66.1188269,76.3834178 66.3945468,80.3846998 66.3945468,80.3846998 C68.9141572,73.7831611 76.2334438,70.8561907 77.1622872,70.5073758 C86.034595,67.720213 91.5329146,69.9258292 92.905734,70.6024195 L93.0274345,70.6638084 C93.1718918,70.7384728 93.2449681,70.7831605 93.2449681,70.7831605 L107.6,86.7777181 C91.0450755,81.6636877 74.2193199,87.016027 65.0970991,91.0643939 L60.9114369,93.0573474 L55.8575505,90.6694546 C46.5583606,86.6825866 30.2908887,81.8270447 14.2649162,86.7777181 L28.6199481,70.7831605 C28.6199481,70.7831605 33.7256541,68.9218533 39.9635716,70.1624046 C45.1377188,78.4263394 50.7538,80.3270444 55.030391,82.2248666 C59.3089374,84.1246107 60.8977487,88.0586281 60.8977487,88.0586281 C60.8977487,83.3796668 57.1849253,80.9985251 53.3362705,78.5974026 L52.4906634,78.069098 L51.9286532,77.713848 C50.3411902,76.7019472 48.8053703,75.6380163 47.5761774,74.3568319 C46.9142541,73.6659287 46.3295717,72.9846345 45.8475509,72.2889263 C45.2814451,71.474064 42.9466258,67.7552935 41.9688958,63.5041718 C41.2033332,60.1745746 41.5386946,56.867079 42.4812264,53.1338944 C43.9292445,47.3952644 50.2913335,36.6732895 58.0809084,34.0057683 C58.0809084,34.0057683 43.3435842,36.7338277 39.6594975,54.1889874 C39.7866025,53.5826452 37.13011,49.3478592 36.7116416,48.8894991 C35.9900769,48.1005816 35.0328792,48.1370967 34.0795924,48.4657322 C33.7676965,48.5733556 33.4753553,48.7367123 33.1654149,48.8491404 C33.1126174,48.8683587 32.9415147,48.7549698 32.9444479,48.7117285 C33.0480873,47.2194156 33.8126721,45.5445274 34.6701413,44.3087809 C35.6723146,42.8645141 36.4398326,42.0486908 37.7617236,41.0301128 C38.4764442,40.4795041 39.2165858,39.959645 39.9352174,39.4138409 C40.83864,38.7267812 41.8711228,38.6335717 41.8114813,37.3247951 C41.7801939,36.6329308 40.9139251,36.3052562 40.2559129,36.282194 C39.3710672,36.2283824 38.4647115,36.5522133 37.5788881,36.5589397 C37.5417344,36.5464477 37.3892085,36.4080749 37.4116963,36.3504195 C37.9924679,34.8830906 38.7619414,33.4023089 40.2969775,32.7123664 C40.9999654,32.3798871 41.6697104,31.9686123 42.3942084,31.6909056 C43.3719384,31.3161458 44.3956217,31.0566967 45.3850844,30.7088427 C46.3178388,30.3802071 47.2985021,30.1101879 48.1393498,29.6181955 C49.3497795,28.9109564 48.975309,27.6300465 48.023,26.9871893 C47.2466825,26.4634864 46.4126787,26.0185792 45.5806306,25.5803985 C45.1631398,25.3238322 44.5686799,25.3305586 44.1834543,25.0326726 C44.8874199,24.0938512 46.1506469,23.5432425 47.262326,23.1358113 C49.4739514,22.2834729 51.868412,22.8369644 54.1220798,23.2367082 C56.6837325,23.7392707 59.5905237,25.6053825 61.9976949,23.6969901 C62.9500039,22.9003853 63.1827036,21.7962851 62.5559788,20.7767462 C62.1971518,20.1559902 61.5831373,19.6947473 61.2106222,19.0768741 C64.2464739,18.6108266 67.6607072,19.1287639 70.4188836,20.5451639 C71.6752664,21.1832165 72.9072064,21.8789245 74.0853709,22.6467017 C74.7365392,23.0704686 75.3309991,23.5807185 75.9714121,24.1188352 C76.5736937,22.8725185 77.6550632,21.9855869 78.7198113,21.1294048 C80.3037337,19.8542605 82.0030284,18.7184499 83.6827689,17.5 Z" id="Combined-Shape" fill="url(#linearGradient-1)" fill-rule="nonzero"></path>
    </g>
</svg>