<svg width="120" height="120" viewBox="0 0 120 120" fill="none" xmlns="http://www.w3.org/2000/svg">
<path d="M120 56.2181V46.6027C120 44.6334 118.405 43.0352 116.44 43.0352H93.6984L80.9072 76.5406H116.44C118.405 76.5406 120 74.9424 120 72.973V63.3533C120 61.3839 118.405 59.7857 116.44 59.7857C118.405 59.7857 120 58.1875 120 56.2181ZM108.045 66.6676C108.045 67.2745 107.553 67.768 106.947 67.768H94.3083V64.2004H106.947C107.553 64.2004 108.045 64.6938 108.045 65.3008V66.6676ZM108.045 54.275C108.045 54.8819 107.553 55.3754 106.947 55.3754H94.3083V51.8078H106.947C107.553 51.8078 108.045 52.3012 108.045 52.9082V54.275Z" fill="white"/>
<path d="M52.1799 43L44.9173 60.4667L37.7637 43H52.1799Z" fill="white"/>
<path d="M80.1974 43L80.119 43.5808L73.4184 60.0256L73.0394 60.3662L65.8857 43H80.1974Z" fill="white"/>
<path d="M52.8896 76.5403L58.7232 61.0081L59.0325 60.8989L65.1711 76.5403H52.8896Z" fill="white"/>
<path d="M37.6111 58.4887V47.0699C37.6111 44.8385 35.8074 43.0264 33.5768 43.0264H0V76.5405H12.1987V65.8466C12.1987 65.6544 12.3555 65.4972 12.5472 65.4972H23.2864C24.8461 65.4972 26.1095 66.7636 26.1095 68.3268V76.5405H37.6067V64.7549C37.6067 63.3314 36.8705 62.0781 35.7595 61.3576C36.8487 60.8642 37.6067 59.7638 37.6067 58.4887H37.6111ZM12.1987 52.0086C12.1987 51.8121 12.3555 51.6593 12.5472 51.6593H25.0508C25.6346 51.6593 26.1095 52.1352 26.1095 52.7204V56.0565C26.1095 56.6416 25.6346 57.1176 25.0508 57.1176H12.5472C12.3555 57.1176 12.1987 56.9604 12.1987 56.7683V52.0086Z" fill="#D12D2E"/>
</svg>
