<?xml version="1.0" encoding="UTF-8"?>
<svg viewBox="0 0 30 30" version="1.1" xmlns="http://www.w3.org/2000/svg" xmlns:xlink="http://www.w3.org/1999/xlink">
    <title>leftmenu/sports/color/icon-soccer</title>
    <g id="leftmenu/sports/color/icon-soccer" stroke="none" stroke-width="1" fill="none" fill-rule="evenodd">
        <circle id="Oval" fill="#EDEDED" cx="15" cy="15" r="12"></circle>
        <path d="M14.6424957,26.0651819 C15.5458818,26.5203796 19.7966077,25.5614995 20.2713124,24.7206918 C20.2045435,24.7206918 20.1424814,24.7030769 20.0973296,24.7231335 C18.6575254,25.3626775 17.1570538,25.7090464 15.5763898,25.7346839 C15.291532,25.7393929 15.0098123,25.929669 14.6424957,26.0651819 M5.27322152,9.47261526 C5.30721617,9.50906596 5.34103649,9.54551666 5.37503114,9.58214176 C5.75019261,9.49284627 6.10181933,9.34843873 6.35756369,9.01706875 C6.60424282,8.69738393 6.81117435,8.34159722 7.08766417,8.05138689 C7.83223418,7.27022577 8.60870685,6.51975999 9.36112177,5.74592389 C9.46589502,5.63831586 9.50616561,5.46809633 9.57642122,5.32682808 C9.46014208,5.34165253 9.32224583,5.32124711 9.23072178,5.37688239 C7.77958605,6.26059379 6.58018507,7.41114522 5.6379231,8.826095 C5.50107284,9.03136998 5.39403328,9.25652716 5.27322152,9.47261526 M7.68178606,23.3634702 C7.73443418,22.8301389 7.87442241,22.3838359 7.50867484,21.9251501 C6.55752197,20.7320438 5.83125678,19.4072615 5.27374452,17.9820218 C5.08163116,17.4907222 4.55654457,17.3400361 4.09979594,17.1112164 C3.87839488,18.488669 6.20258295,22.5613804 7.68178606,23.3634702 M26.2700607,14.9974248 C26.3211398,14.1292354 26.039943,13.390106 25.4740629,12.7563173 C24.9747773,12.1971741 24.4430661,11.6669821 23.9484876,11.104002 C23.6638042,10.779957 23.4059678,10.7694927 23.0550384,11.0026725 C22.4068738,11.4332791 21.7456343,11.8471427 21.0680076,12.2292646 C20.767983,12.3984377 20.6211958,12.6024919 20.5924311,12.938222 C20.4841712,14.2061481 20.3513306,15.4721558 20.2578889,16.7411284 C20.243768,16.9312302 20.3429627,17.1753975 20.4717937,17.3225955 C21.1468054,18.0950364 21.8361123,18.8563153 22.5529636,19.589515 C22.6706374,19.7098546 22.9950684,19.7628738 23.1484801,19.6894492 C23.7704951,19.3913906 24.3703699,19.0441498 24.9641431,18.6909791 C25.4590704,18.3967575 25.8760714,18.0205653 25.9599249,17.4033452 C26.0685334,16.6021275 26.1672051,15.7995145 26.2700607,14.9974248 M23.1918887,9.78637031 C23.0389999,9.1248512 22.9406769,8.47571486 22.7337454,7.86337803 C22.4964802,7.16122249 22.3026235,6.42139543 21.6304011,5.94648993 C20.6456022,5.25026418 19.6200098,4.63810175 18.4577414,4.29487222 C18.2576088,4.23574884 17.980073,4.24691078 17.8005115,4.34265926 C16.8962538,4.82454096 16.0109983,5.34269896 15.1224304,5.85405515 C14.8888262,5.988696 14.7962561,6.14095178 14.9085256,6.45575326 C15.2575374,7.43416671 15.5551213,8.43106711 15.8631652,9.42378179 C15.976655,9.78968401 16.0974667,10.1086712 16.5087148,10.2733098 C17.6336763,10.7236241 18.7394612,11.2215511 19.8628536,11.6762256 C20.0312579,11.7442436 20.2941499,11.7520919 20.443029,11.6659357 C21.2921979,11.1744617 22.1232364,10.6512459 22.9514855,10.1245421 C23.0562588,10.0579193 23.1082096,9.90827958 23.1918887,9.78637031 M16.1053117,25.0032283 C16.6713662,25.0407254 18.0838003,24.5979105 19.0405318,24.2932245 C19.540166,24.134167 20.0900076,23.8446542 20.4024097,23.445615 C21.0190204,22.6578265 21.4787327,21.7481287 22.0186374,20.8986008 C22.2464888,20.540198 22.1080695,20.295333 21.8556375,20.0305858 C21.3666375,19.5174856 20.8607274,19.0139776 20.4297798,18.4541368 C19.7160665,17.4968264 18.5717543,17.9000513 18.5293917,17.9094692 C17.5850378,18.1196275 16.6345822,18.3069388 15.7005138,18.5559895 C15.4496507,18.6229611 15.1729866,18.8325962 15.038054,19.0554861 C14.4104604,20.0931973 13.8325514,21.1607319 13.227621,22.2123955 C13.0527664,22.516035 13.0503258,22.7844447 13.3027578,23.0390764 C13.7694434,23.5099706 14.2335139,23.9834808 14.7047321,24.4500149 C15.0863438,24.827951 15.5957406,24.9695681 16.1053117,25.0032283 M11.8106542,6.06979444 C11.8101312,6.0783403 11.8096082,6.08688616 11.8090852,6.09543201 C11.635451,6.09543201 11.4616425,6.0917695 11.2880083,6.09612964 C10.699988,6.11077968 10.1414297,6.09682726 9.62837201,6.54539756 C8.65106941,7.39928566 7.80800209,8.36200263 7.06221177,9.41157343 C6.91228665,9.62260378 6.83279147,9.97263511 6.88648558,10.2229066 C7.06134011,11.0375536 7.30296362,11.8387713 7.53988019,12.639117 C7.6289636,12.939966 7.84199674,13.0648402 8.18699886,13.0981516 C9.46415171,13.2219793 10.7353773,13.4049304 12.0113098,13.5427106 C12.1706488,13.5599767 12.4011151,13.4916098 12.5032734,13.3773744 C13.3508734,12.4287842 14.190454,11.4721714 14.9942968,10.4867818 C15.1370743,10.3116789 15.1959984,9.96408926 15.1323673,9.74259459 C14.8496016,8.75825136 14.4978005,7.79396474 14.1928947,6.81572569 C14.0675503,6.41372159 13.8116316,6.21001626 13.412761,6.17653046 C12.8794809,6.13170831 12.344806,6.10450109 11.8106542,6.06979444 M11.863651,22.2486718 C12.183375,22.2725653 12.3765344,22.1234488 12.5248905,21.8599225 C13.1193611,20.8030267 13.7147033,19.7466541 14.3225973,18.6976065 C14.4805417,18.4251855 14.4688615,18.2019468 14.3037695,17.9345836 C13.7800776,17.0874973 13.2830584,16.2240169 12.766514,15.3722216 C12.4569012,14.8617375 12.219113,14.26719 11.4938938,14.2030088 C10.342434,14.1013306 9.19236884,13.981863 8.03951437,13.9042526 C7.86065022,13.8922187 7.58241708,14.0130815 7.49856361,14.1581867 C7.03100642,14.9681247 6.58785565,15.7941079 6.18392948,16.6373573 C6.04777655,16.9214635 5.92208351,17.3156193 6.01221291,17.5857731 C6.51010379,19.0785076 7.29686202,20.4236953 8.30502131,21.6328469 C8.41711649,21.7673133 8.60033893,21.8883506 8.76891753,21.921662 C9.53248967,22.0716505 11.6045943,22.2293128 11.863651,22.2486718 M15.3555117,3.00741267 C21.9248471,3.08781349 27.109467,8.71552208 26.9982435,15.1336353 C26.8798724,21.962124 21.345369,27.1857356 14.6679481,26.9949363 C8.00220743,26.8043113 2.89934897,21.3977486 3.00150725,14.7762789 C3.10471152,8.09568582 8.66292396,2.77370964 15.3555117,3.00741267" id="Fill-1" fill="#344D5C"></path>
    </g>
</svg>
