<?xml version="1.0" encoding="UTF-8"?>
<svg viewBox="0 0 30 30" version="1.1" xmlns="http://www.w3.org/2000/svg" xmlns:xlink="http://www.w3.org/1999/xlink">
    <title>leftmenu/sports/color/icon-kabaddi</title>
    <g id="leftmenu/sports/color/icon-kabaddi" stroke="none" stroke-width="1" fill="none" fill-rule="evenodd">
        <g id="Group-74" transform="translate(0, 2.9999)">
            <g id="Group-34" transform="translate(1.6216, 0)">
                <path d="M16.5387538,11.449096 C16.3253852,11.1226334 15.0224163,10.9141422 14.2672819,10.8189767 L14.6809163,12.6027662 C14.6809163,12.6027662 15.2629559,15.2576858 15.2672316,16.3570159 C15.70983,16.6333618 16.5195823,17.1208737 17.2374772,17.4559237 C17.2969225,16.983475 17.3348517,16.551711 17.3348517,16.551711 C17.4627073,16.0319611 17.541324,15.5002451 17.5698743,14.9644466 C17.5971833,14.409784 17.6871098,13.8604709 17.8378608,13.3279102 C17.9018576,12.9047336 17.9626821,12.5316737 18.0201965,12.2014101 L17.815793,12.1120165 C17.815793,12.1120165 16.8423247,11.9132389 16.5387538,11.449096" id="Fill-1" fill="#FFB100"></path>
                <path d="M12.9273356,7.84007222 C12.9018196,7.75011551 12.8814068,7.61778483 12.9630579,7.55950301 C13.1277393,7.44814815 13.2937999,7.33932728 13.4604122,7.23233651 C13.438896,7.10127282 13.4155868,6.97978199 13.3908984,6.86589313 C13.1943566,6.12258885 12.728449,5.71194139 12.728449,5.71194139 C12.5499752,6.07219057 12.2756442,6.37162394 11.938006,6.5749064 C11.5104414,6.87814076 11.2883836,7.40929361 11.3670003,7.94058723 L11.4680987,8.73330435 L13.2011149,9.01162112 L12.9528515,8.11008313 C12.9528515,8.02533518 12.9528515,7.93002893 12.9273356,7.84007222" id="Fill-3" fill="#FFB17D"></path>
                <path d="M9.46246168,17.5590291 C9.31984816,17.7406318 9.1540634,17.9033704 8.9685555,18.0418953 C8.67132908,18.2223718 8.37920585,18.4235426 8.06198044,18.5575626 C7.77992567,18.640762 7.54448924,18.8402435 7.41166834,19.1081428 C7.27898537,19.376042 7.26091731,19.6882861 7.36173982,19.9704039 C7.39249689,20.1586232 7.51290463,20.3188278 7.68282711,20.3973815 C7.85261167,20.476076 8.04956727,20.462843 8.20804205,20.3623279 C8.35051764,20.2820849 8.48113176,20.1814291 8.5958846,20.0631761 C8.73684302,19.9394329 8.79725378,19.5991741 9.00882933,19.7126406 C9.0177944,19.717427 9.02482853,19.7227766 9.03227643,19.7279853 C9.26095458,19.418416 9.64700411,18.8951467 9.7545849,18.7466266 C9.83375333,18.6373834 10.0205026,18.3759599 10.2200787,18.134386 C10.1508408,17.6761558 9.7705841,17.5681796 9.46246168,17.5590291" id="Fill-5" fill="#00AFC5"></path>
                <path d="M9.84600099,16.8883763 L9.82476068,16.9437055 C9.73262739,17.1626142 9.61263343,17.3668821 9.46864067,17.5515819 C9.46670974,17.5541159 9.46450295,17.5565091 9.46243409,17.5590431 C9.77069444,17.5681937 10.1509512,17.6760291 10.2201891,18.1344001 C10.3480447,17.9794042 10.689131,17.6532232 10.7465074,17.6139463 C10.8339513,17.5375042 10.9256708,17.4665524 11.0193212,17.398557 C10.6565809,16.9518705 10.1257111,16.8878169 9.84600099,16.8883763" id="Fill-7" fill="#F0F0F0"></path>
                <path d="M14.1186273,14.973935 C14.0383555,14.4571415 13.03813,13.0659799 13.03813,13.0659799 L10.6113556,14.8914395 L9.84601478,16.8883659 C10.1257248,16.8878028 10.6565947,16.9519972 11.019335,17.3985429 C11.1729825,17.2869065 11.333664,17.1855468 11.5020694,17.0984057 C11.6868876,17.0199927 11.8780504,16.8538754 12.0263188,16.7161952 C12.5358104,16.2429018 14.1988991,15.4907286 14.1186273,14.973935" id="Fill-9" fill="#FFAA75"></path>
                <path d="M10.4555979,18.7465843 C10.4280131,18.61721 10.5958667,18.2093781 10.6959996,17.982445 C10.2376778,18.0798629 9.87176521,18.5848312 9.75466766,18.7465843 C9.64708687,18.8952452 9.26089941,19.4183737 9.03222126,19.7279431 C9.2018679,19.847463 9.0067053,20.0866437 8.95843187,20.2695135 C8.89664188,20.5558545 8.95691471,20.8557102 9.12421663,21.0939055 C9.29151856,21.3321007 9.5499883,21.4861111 9.83493948,21.5173637 C10.0968573,21.5173637 10.2328505,21.3781349 10.1270627,21.1459931 C9.84997321,20.5272767 10.2277473,20.0425804 10.4140827,19.5218451 C10.4140827,19.5218451 10.4944925,18.928891 10.4555979,18.7465843" id="Fill-11" fill="#00AFC5"></path>
                <path d="M15.267273,16.3569596 C15.2676867,16.4802806 15.2613422,16.5850189 15.2456189,16.6632911 C15.0899026,17.438411 13.1894465,17.7222181 13.1894465,17.7222181 C12.9695955,17.730524 12.7515375,17.7651552 12.5396861,17.8254079 C12.2221848,17.8928403 11.9004079,17.9342288 11.5773897,17.9550638 L11.5143584,19.3649487 C11.6389039,19.379308 11.7627597,19.4016916 11.8849604,19.4342112 C12.1158454,19.5116387 12.3537644,19.5651341 12.5951316,19.5939935 C12.9883532,19.6548093 13.3864021,19.6773336 13.7837614,19.6610035 C14.1936718,19.6580471 16.8618134,18.9686606 17.0270465,18.5712462 C17.1070424,18.3788036 17.1816594,17.8994568 17.2375186,17.4560082 C16.5196237,17.1209582 15.7098714,16.6334463 15.267273,16.3569596" id="Fill-13" fill="#EFA573"></path>
                <path d="M10.8472885,17.9646085 C10.7958428,17.9646085 10.7455005,17.971929 10.6959858,17.9823465 C10.5958529,18.2092795 10.4279993,18.6172522 10.4555841,18.7466266 C10.4944787,18.9289332 10.414069,19.5217465 10.414069,19.5217465 C10.414069,19.4547365 10.4947545,19.439251 10.5551653,19.434183 C10.8690805,19.3507021 11.1941676,19.3283185 11.5142894,19.3650614 L11.5774587,17.9550357 C11.3344364,17.9705212 11.0908625,17.9755892 10.8472885,17.9646085" id="Fill-15" fill="#F0F0F0"></path>
                <path d="M25.1351625,9.62404472 C25.1351625,9.4863645 24.9975143,9.51283064 24.91076,9.52873847 C24.7118735,9.56055415 24.5129869,9.60292813 24.3192036,9.63995256 C24.4187848,9.51085975 24.5335376,9.39514079 24.6609795,9.29589278 C24.6961501,9.2715383 24.7197351,9.23268376 24.725528,9.18918357 C24.7314587,9.14568337 24.7190455,9.10162007 24.6914607,9.06825584 C24.6354635,9.00462449 24.5640188,9.02588187 24.4976774,9.06825584 C24.4314738,9.11048904 24.2836192,9.2640771 24.1000422,9.23761097 C24.1159035,9.19059134 24.1346611,9.14455715 24.1560394,9.09993074 C24.2070713,9.00462449 24.4008546,8.94648346 24.2683096,8.80880323 C24.1356266,8.67112301 24.0643199,8.80880323 23.987772,8.88299288 C23.8195046,9.04699847 23.7277851,8.98885743 23.6614436,8.79289539 C23.5017275,8.32424768 23.2577398,7.8913574 22.9424453,7.51717127 C22.7088019,7.27587894 22.514191,6.99699905 22.3661984,6.69137148 C22.2508939,6.4143217 22.1091079,6.15219432 21.9478747,5.90428545 C21.6025127,6.27129194 21.0881938,6.84594498 20.8305516,7.27081095 C20.9767511,7.41229216 21.1292952,7.54687529 21.2902526,7.67061856 C21.740161,8.00524626 22.0886951,8.466292 22.2947537,8.99941573 C22.441505,9.49227715 22.6983196,9.9420607 23.0443712,10.3121643 C23.2891865,10.5451508 23.5544145,10.926235 23.9469464,10.6774815 C24.2032094,10.5231895 24.5134007,10.4998205 24.7884213,10.6139909 C24.8648313,10.6458066 24.9771015,10.725205 25.0382019,10.6139909 C25.0994402,10.5027768 25.0077206,10.3969122 24.9158632,10.3386304 C24.7677327,10.2402271 24.6144991,10.1501296 24.4569897,10.0687603 C24.5888452,9.92024022 24.7724221,9.83253594 24.9668951,9.82521552 C25.0433051,9.78284155 25.1351625,9.74046757 25.1351625,9.62404472" id="Fill-17" fill="#FFB17D"></path>
                <path d="M17.4458943,2.91016291 C17.4653416,2.79092451 17.4005173,2.60566155 17.4005173,2.60566155 L17.2446631,2.39336934 C17.2446631,2.39336934 16.930472,1.97610535 17.1928036,1.73762856 C17.4549973,1.499011 17.7380176,1.81702697 17.7380176,1.81702697 C17.7574649,1.67793898 17.7671196,1.3400734 17.7671196,1.3400734 C17.7671196,1.3400734 18.1858571,1.41961258 18.8478927,1.51900138 C19.2333906,1.57686086 19.5584777,1.54025875 19.7637087,1.49971488 C19.8723929,1.34302972 19.915839,1.14720846 19.8809442,0.957018293 C19.844946,0.761197033 19.7307449,0.590434137 19.5666152,0.487103581 C19.1940822,0.203859602 18.7536906,-0.00195684811 18.2917828,0 C17.8038074,0.00212569432 17.1871487,0.253131666 16.9299203,0.684191836 C16.2269212,1.86235727 17.2730755,3.05600822 17.4679622,2.984071 C17.4518251,2.95436699 17.44286,2.92888629 17.4458943,2.91016291" id="Fill-19" fill="#2B1D19"></path>
                <path d="M18.0105694,4.21525318 C18.5687482,4.32125851 19.4328426,4.15359271 19.7601365,3.78700856 C19.7606882,3.78644545 19.761102,3.78588234 19.7616537,3.78531923 C19.7006912,3.71915388 19.6397288,3.65312932 19.5819386,3.58386688 C19.506632,3.49982281 19.4847021,3.3781912 19.5259414,3.27162277 C19.5262172,3.27049655 19.5264931,3.26951111 19.5269068,3.26838489 C19.283195,3.41845352 19.1626493,3.5824591 18.9841755,3.68029934 C18.6578471,3.85908655 18.4259967,3.73492095 18.156631,3.59090574 C17.9765021,3.49447327 17.555144,3.14337462 17.467976,2.98401469 C17.28633,3.05116548 17.0511694,3.09790355 16.8477313,3.12943767 C17.0576518,3.43619146 17.5765223,4.13289844 18.0105694,4.21525318" id="Fill-22" fill="#FFB06D"></path>
                <path d="M20.6579396,4.57384118 C20.3320249,4.34564114 20.0325917,4.0801351 19.7615709,3.78534738 C19.7610192,3.78591049 19.7607434,3.78633282 19.7601917,3.78689593 C19.4327599,4.15362087 18.5688033,4.32128666 18.0106245,4.21528134 C17.5765774,4.13278582 17.057707,3.43607884 16.8476486,3.12946582 C16.8328907,3.13171826 16.8170294,3.13453381 16.8025474,3.13664547 C16.7888929,3.14678144 16.7730317,3.15410186 16.7517913,3.1550873 C16.4062915,3.22364585 16.0761012,3.35836976 15.7779093,3.55207936 C15.0910473,3.83405634 14.4600446,4.24512613 13.9166237,4.76445368 C13.7130477,4.9698478 13.4850592,5.14779034 13.2384509,5.29377643 C13.1003889,5.36923307 12.9401211,5.43216054 12.8310232,5.54576784 C12.7870254,5.59152047 12.7504755,5.64501585 12.7284076,5.71202586 C12.7284076,5.71202586 13.1943152,6.12253254 13.3908571,6.86583682 C13.4155455,6.97972568 13.4388546,7.10121651 13.4603708,7.23242097 C13.6341552,7.12078456 13.8084912,7.01111902 13.9829652,6.90314281 C14.0746847,6.85006976 14.1155102,6.90314281 14.1155102,7.00900736 L14.1155102,7.34250884 C14.0836498,7.65123352 14.0168945,7.95503099 13.9166237,8.24770705 C13.9184167,8.24812938 13.9200718,8.24869249 13.9218648,8.24911482 L13.7838028,8.73338882 L14.2673647,10.8190049 C15.0224991,10.9141704 16.3253301,11.1226616 16.5386986,11.4491242 C16.8422696,11.913267 17.8158757,12.1120446 17.8158757,12.1120446 L18.0202792,12.2014382 C18.3012306,10.5868631 18.4995654,10.0158703 18.5701826,9.8479229 C19.0671231,8.81208334 19.6339911,7.81256433 19.9695604,6.72308861 C20.0510736,6.463636 20.1735502,6.50080121 20.300992,6.68071464 C20.4630528,6.89131752 20.6409749,7.08742033 20.8304826,7.27085318 C21.0882627,6.84598722 21.6025817,6.27133417 21.9479436,5.90432769 C21.6068573,5.38007293 21.1710172,4.92592527 20.6579396,4.57384118" id="Fill-24" fill="#FFD600"></path>
                <path d="M19.7636811,1.49975712 C19.558588,1.54030099 19.233363,1.57676231 18.8478652,1.51890283 C18.1858295,1.41951404 17.7672299,1.34011563 17.7672299,1.34011563 C17.7672299,1.34011563 17.7574373,1.67798121 17.73799,1.81706921 C17.73799,1.81706921 17.4549697,1.49905323 17.192776,1.73753002 C16.9304444,1.97600681 17.2446355,2.39341158 17.2446355,2.39341158 L17.4004897,2.60556301 C17.4004897,2.60556301 17.4653141,2.79096674 17.4458668,2.91020514 C17.4428324,2.92878775 17.4517975,2.95440922 17.4679346,2.98397246 C17.5551026,3.14347317 18.0026663,3.55707695 18.1760369,3.66533471 C18.5022274,3.8690395 18.706493,3.8839619 19.0328214,3.7051747 C19.2112951,3.60733446 19.3026009,3.45501339 19.5268655,3.26848343 C19.5420371,3.22413858 19.5556916,3.17951216 19.5690702,3.13474497 C19.6952708,2.71227222 19.738579,2.26727509 19.6941674,1.82636051 C19.6772027,1.71796197 19.6989947,1.60688866 19.7554057,1.5141164 C19.7585779,1.50961153 19.7605089,1.50426199 19.7636811,1.49975712" id="Fill-26" fill="#EFA573"></path>
                <polygon id="Fill-28" fill="#00842F" points="2.22526731 6.94710757 0 5.93308849 2.35808821 9.10353464 2.63959128 7.9495829 4.86485859 8.96360198 2.50677038 5.79315583"></polygon>
                <polygon id="Fill-30" fill="#008145" points="20.8762182 17.319046 22.702747 17.8845485 20.6107144 15.7241796 20.475135 16.6120622 18.6486062 16.0465597 20.7461558 18.2069285"></polygon>
                <polygon id="Fill-32" fill="#FF6200" points="25.7151885 14.6594103 28.3783648 13.4491477 23.8253526 13.2413603 24.5497299 14.3062 21.8919326 15.5164627 26.4449449 15.72425"></polygon>
            </g>
            <g id="Group-73" transform="translate(0, 6.6208)">
                <path d="M20.1817769,15.2748271 C20.1085392,15.5431486 20.0404047,15.816679 19.967167,16.079651 C19.8986188,16.3068656 19.8736545,16.545624 19.8937914,16.7825522 C19.894481,17.0225776 20.0285433,17.2412047 20.2392913,17.3459431 C20.4537632,17.4219628 20.6916823,17.3656519 20.8519501,17.2009424 C21.0600775,17.0176504 21.2368962,16.8000086 21.375372,16.5571677 L21.6214286,15.7792322 C21.6019813,15.4467162 21.6248767,15.1129331 21.6895631,14.7866113 C21.7601802,14.4597263 21.7601802,14.1208753 21.6895631,13.7939904 C21.6394967,13.5990138 21.4870905,13.4493675 21.2949623,13.4062896 C21.102834,13.3633525 20.9033958,13.4343043 20.7785745,13.5901448 C20.7147156,13.670951 20.6351334,13.7337377 20.5471378,13.7769563 C20.4620387,14.4380466 20.3038397,14.9259808 20.1421927,15.2748271 L20.1817769,15.2748271 Z" id="Fill-38" fill="#F70070"></path>
                <path d="M6.97566918,12.4137532 C6.98739273,12.27917 6.85650277,12.1869609 6.70933776,12.1257228 C6.68726991,12.2698787 6.61720447,12.4019279 6.50714104,12.4955448 C6.25611919,12.6886913 5.95999617,12.8107452 5.64856356,12.8495998 C5.24541144,12.8818378 4.84750043,12.9837606 4.44434831,13.0320472 C4.12505404,13.0696347 4.06740177,13.2734803 4.27166735,13.5202629 L5.43381575,13.8958568 C5.95337581,13.9777893 6.4674189,14.0925228 6.97304863,14.2393535 C7.54888171,14.3787231 7.65370402,14.3036888 7.71121837,13.7027104 C7.72583832,13.5813603 7.74625109,13.4609957 7.77135327,13.3417573 C7.41275063,13.1507225 6.95222209,12.6834825 6.97566918,12.4137532" id="Fill-41" fill="#F70070"></path>
                <path d="M20.1137252,15.2748271 L20.1422755,15.2748271 C20.3037846,14.9259808 20.4621214,14.4380466 20.5470827,13.7769563 C20.4050209,13.8467819 20.2404774,13.8648014 20.0822785,13.8207381 C19.9672498,13.7887816 19.8501522,13.7679466 19.7323651,13.7524611 L19.7456058,15.4865562 C19.8752544,15.4313714 19.9992482,15.3615459 20.1137252,15.2748271" id="Fill-43" fill="#F0F0F0"></path>
                <path d="M6.81599446,11.8302312 C6.75489409,11.901746 6.71972344,11.9926882 6.71655119,12.0877129 C6.71530987,12.1008052 6.71131007,12.1130528 6.70937914,12.1257228 C6.85654414,12.1869609 6.98743411,12.27917 6.97571056,12.4137532 C6.95226346,12.6834825 7.41279201,13.1507225 7.77139465,13.3417573 C7.84283933,13.0020616 7.95593709,12.6725019 8.10917075,12.361384 C8.14861704,12.2560826 8.14861704,12.1395189 8.10917075,12.0340767 C8.1019987,11.966222 8.10503303,11.8986489 8.1128947,11.8316389 L6.9581942,11.6168127 C6.92523034,11.6959296 6.87792238,11.7691338 6.81599446,11.8302312" id="Fill-45" fill="#F0F0F0"></path>
                <path d="M9.74307472,5.83687584 C9.62252907,5.9072645 9.48832893,5.94977926 9.34985314,5.96047833 C8.85263678,6.00468241 8.42369285,6.33593146 8.24521908,6.81358893 C7.93751043,7.47453847 7.6682826,8.15350751 7.43905276,8.84697661 C7.19175486,9.65447535 7.04748626,10.4912558 7.00969506,11.3366236 C7.01341901,11.4339007 6.99466133,11.5290662 6.95824937,11.6167705 L8.11294987,11.8317375 C8.12950076,11.6899747 8.17625703,11.5528576 8.25570131,11.4331969 C8.41334855,11.0540835 8.61168339,10.6941159 8.84725774,10.3600513 C9.20130889,9.84776262 9.43426268,9.25818718 9.52791314,8.63778151 C9.65356199,8.00470588 9.73728191,8.05834204 10.2608418,8.15491528 C10.6554426,8.2541633 11.0369406,8.40183871 11.3969225,8.59484442 C11.488642,8.63918928 11.5822925,8.67874771 11.6764947,8.71619448 C10.8395713,6.71420013 10.1260899,6.0538137 9.74307472,5.83687584" id="Fill-47" fill="#FFA875"></path>
                <path d="M15.8312235,10.6069184 C15.9357699,10.9870172 16.0687288,11.3583878 16.2291345,11.7175107 C16.4197456,12.4108391 16.5613936,13.1174005 16.6531131,13.8315638 C16.7264888,14.1695702 16.7579355,14.5182756 16.8573787,14.8509325 C16.8961354,15.1189725 17.0497828,15.3550561 17.2761163,15.4948479 C17.743541,15.7703492 18.3033749,15.8289125 18.8153491,15.6557564 C18.850106,15.6336544 18.8896902,15.6207029 18.9305158,15.6181689 C19.2107775,15.6425234 19.48966,15.5955037 19.7456471,15.4865421 L19.7322685,13.752447 C19.5204171,13.7244323 19.3059451,13.7200682 19.0928524,13.7456897 C18.721147,13.7939763 18.7473526,13.7939763 18.721147,13.4290815 C18.677425,12.2316295 18.5601896,11.0381194 18.370406,9.85573062 C18.343097,9.74606508 18.3197879,9.6354141 18.3002027,9.52420002 C17.3841108,9.90936678 16.2822353,10.1661446 15.7403315,10.2789073 C15.7876395,10.3811116 15.8196379,10.4913402 15.8312235,10.6069184" id="Fill-49" fill="#FFB37E"></path>
                <path d="M6.43904792,3.91084494 C6.11823648,4.02571924 5.7834947,4.09441857 5.44433936,4.11469051 C4.88022982,4.0793554 4.31418934,4.12806435 3.76373429,4.25955038 C2.97205,4.4711387 2.16491821,4.6164209 1.35033852,4.69412998 C1.2918587,4.70173196 1.23613737,4.723834 1.18800186,4.75860599 C0.842226161,4.94921849 0.506656844,5.15883593 0.182811075,5.38633209 C0.0624033418,5.48290533 -0.0317988135,5.54189103 0.0101301107,5.71898891 C0.0309566486,5.79951354 -0.037039929,5.90143632 0.0676444573,5.96042202 C0.172328844,6.01940772 0.250945576,5.94437341 0.318942154,5.88538771 C0.504036286,5.72856177 0.738645168,5.64648859 0.978633089,5.65465367 C1.23213757,5.64845947 1.48453866,5.61791079 1.73252618,5.56342996 C2.0984388,5.46404117 2.4820057,5.45306054 2.85288358,5.53119196 C3.21507225,5.62607587 3.58953616,5.66225565 3.96275876,5.63846428 C4.99415512,5.60101751 6.00969022,5.34874454 7.05680993,5.39168163 C7.15597735,5.39393406 7.25486892,5.39083696 7.3537605,5.3868952 C7.21280208,4.84096073 6.89861099,4.22449682 6.68938014,3.85002914 C6.60538437,3.86734475 6.52152652,3.88649046 6.43904792,3.91084494" id="Fill-51" fill="#FFB06D"></path>
                <path d="M23.3910223,6.32530277 C23.2940617,6.26505008 23.2615116,6.13652038 23.3177846,6.03558304 C23.3752989,5.91747086 23.3073024,5.85848516 23.2234445,5.804849 C22.9958698,5.65083861 22.735607,5.55511002 22.4643103,5.52582834 C21.9715075,5.49077479 21.4907041,5.35379845 21.0508642,5.12348674 C20.678745,4.88430607 20.3282799,4.61133883 20.0037445,4.30782292 C19.4028092,3.75653891 18.7207746,3.30576992 17.9828807,2.9718461 C17.7743395,2.88104473 17.5612467,2.80389875 17.3484299,2.72703433 C17.4080131,3.03026869 17.4965603,3.5802857 17.4984913,4.1701427 C17.6271745,4.21871087 17.7488235,4.28755099 17.8572318,4.37764847 C18.0824619,4.54686282 18.3225877,4.6941159 18.5745751,4.81757762 C19.2473688,5.12742851 19.8876124,5.5068234 20.4853754,5.94970887 C20.5706125,6.0246024 20.6431606,6.1134329 20.7001232,6.21268091 C20.8297719,6.47804617 20.9974876,6.72215405 21.1974775,6.93698025 C21.4120874,7.14617536 21.6895907,7.32862277 21.9356473,7.5271188 C21.966956,7.56470635 21.9774383,7.58075496 22.0350905,7.56470635 C22.0926049,7.54865773 22.0926049,7.50572065 22.0926049,7.46278356 C22.0939841,7.39450656 22.0757781,7.32735577 22.0403317,7.26963707 C21.9624045,7.12632575 21.863513,6.99596595 21.747105,6.88334409 C21.6424206,6.77593099 21.6633851,6.67935775 21.8099984,6.67935775 C22.1774282,6.60305644 22.5592021,6.65598871 22.893668,6.82970793 C23.2339268,7.04425257 23.2286856,7.01750488 23.4486746,6.67935775 C23.5586001,6.51309972 23.5219123,6.42722556 23.3910223,6.32530277" id="Fill-53" fill="#FFB06D"></path>
                <path d="M13.7712582,7.5709287 C13.479135,7.44465144 12.7587574,6.42528283 11.7851513,6.14710683 C11.0865657,5.94748459 10.1875765,5.85485311 9.73546131,5.81839178 C9.74139205,5.82289665 9.74704694,5.82726075 9.75297767,5.83176562 C9.74980542,5.83359573 9.74635732,5.8350035 9.74304714,5.83683361 C10.1260623,6.05391224 10.8395437,6.71429868 11.676605,8.71615225 C12.141685,8.9008521 12.6349016,9.00249333 13.1350143,9.01333318 C13.5119609,9.01333318 13.8889074,9.02417303 14.265854,9.04557119 C14.3661248,9.04557119 14.4608787,9.09315392 14.5223928,9.17438244 C14.6170087,9.30854323 14.7481745,9.4111699 14.8993393,9.46945171 C15.0773993,9.53913649 15.150637,9.7377733 15.3077326,9.81815715 C15.5001367,9.92036149 15.6497843,10.0839447 15.7402625,10.2789213 C16.2823042,10.1660179 17.3840419,9.90938086 18.3001337,9.52421409 C18.2393092,9.17916887 18.2151725,8.82792944 18.2289649,8.47683079 C18.2718593,8.10897964 18.2470329,7.73803139 18.1604166,7.38130165 C17.6317535,7.63484161 16.455261,7.65609898 15.8936341,7.86205621 C15.1732566,8.12615447 14.0633814,7.69734674 13.7712582,7.5709287" id="Fill-55" fill="#36A5FB"></path>
                <path d="M10.6781035,2.80817838 C10.6301059,2.73835283 10.5767293,2.56801227 10.5779706,2.48270121 C10.5793499,2.37697744 10.6557598,2.25168562 10.6752071,2.07191297 C10.6947923,1.8922811 10.6168652,1.57595445 10.3441893,1.57595445 C10.0716513,1.57595445 10.1495784,2.07191297 10.1495784,2.07191297 L10.0716513,1.75488243 C10.0716513,1.75488243 9.93538229,1.41701685 9.76008076,1.33747766 C9.58491717,1.25793848 9.21486683,1.43686646 8.9032963,1.59580406 C8.72233989,1.68815398 8.52207411,1.67309081 8.38566718,1.64437223 C8.39132207,1.6892802 8.38911528,1.73545516 8.37615042,1.78078546 C8.3102227,2.02897589 8.36911629,2.29448192 8.53324596,2.48903619 C8.54731422,2.5169101 8.55710683,2.54633256 8.56676152,2.57561424 C8.60841459,2.70118762 8.61172477,2.83731929 8.57103716,2.96500432 C8.55738268,3.00780063 8.53848708,3.04806295 8.51641922,3.08635438 C8.51559168,3.09958745 8.51503998,3.11282052 8.51393659,3.12619436 C8.49090326,3.40662279 8.71944349,3.2407871 8.94232882,3.2917485 C9.15969719,3.34144289 9.07542557,3.40437036 9.16300737,3.46405994 C9.25058917,3.52360875 9.30520711,3.98747004 9.47775015,4.02055271 C10.0910986,4.137961 10.5974179,3.57330315 10.7238943,3.38452075 C10.8505086,3.19573836 10.9478831,3.06650478 10.9478831,3.06650478 C10.8655424,3.02370847 10.7312043,2.88546514 10.6781035,2.80817838" id="Fill-57" fill="#FFB06D"></path>
                <path d="M11.5330536,1.26175354 C11.3836818,0.681891737 11.1030063,0.463968437 10.5906183,0.171151601 C10.3744912,0.0400879105 10.1236073,-0.0180531249 9.87341299,0.00489357913 C9.6588031,0.0369908093 9.4389521,0.0799278936 9.2294454,0.133564055 C8.86091223,0.220282887 8.52134311,0.40540507 8.24521908,0.670207219 C7.93640704,0.959926955 7.93640704,1.14772391 8.24521908,1.41055517 C8.32480128,1.46517678 8.37390226,1.5513325 8.3856258,1.64438631 C8.52203273,1.67310489 8.72229851,1.68816806 8.90339285,1.59581813 C9.21496337,1.43688053 9.58487579,1.25795255 9.76017731,1.33749174 C9.93534091,1.41703093 10.0716099,1.75489651 10.0716099,1.75489651 L10.149537,2.07192705 C10.149537,2.07192705 10.0716099,1.57596853 10.3442858,1.57596853 C10.6168239,1.57596853 10.694751,1.8921544 10.6753037,2.07192705 C10.6558564,2.25169969 10.5779293,2.48271528 10.5779293,2.48271528 C10.5768259,2.56802634 10.6300646,2.73836691 10.6780621,2.80819246 C10.7313008,2.88547921 10.865501,3.02358177 10.9478417,3.06651885 C11.0330788,3.11086371 11.1796921,2.94770279 11.2431372,2.87773646 C11.2958242,2.81987698 11.3882333,2.37304975 11.4411962,2.27732117 C11.755801,1.70872155 11.5496045,1.35987534 11.5330536,1.26175354" id="Fill-61" fill="#2B1D19"></path>
                <path d="M17.988177,6.86721101 C17.6012999,5.9104883 17.0577411,5.02865914 16.3809475,4.25959261 C16.3495008,4.22749538 16.2972276,4.18990783 16.3180541,4.14162121 C16.3390186,4.09333459 16.3966709,4.09333459 16.4384619,4.09333459 L16.9620217,4.09333459 C17.1458745,4.07813064 17.328486,4.10600455 17.4985465,4.17019901 C17.4964776,3.58034201 17.4080682,3.030325 17.3483471,2.72709064 C17.0964977,2.63614849 16.8447863,2.54591023 16.6007985,2.43540003 C16.0435852,2.13864142 15.4223751,1.99096601 14.7946825,2.00616996 C14.7279273,2.0084224 14.6626892,1.98547569 14.6113814,1.94169395 C14.2853289,1.74882901 13.9057618,1.67323159 13.5329529,1.7271493 C13.2997233,1.78219324 13.0595975,1.80035351 12.8208509,1.78078546 C12.622516,1.73292117 12.4179746,1.7209551 12.2164675,1.74418336 C12.2523277,2.0885247 12.2650168,2.66909039 12.0188223,3.07410675 C11.7102861,3.58160901 10.6859238,3.89737255 10.1616743,3.89160068 C9.96430497,4.00084388 9.73038571,4.06883933 9.47770877,4.02055271 C9.30530365,3.98747004 9.25054779,3.52360875 9.16296599,3.46405994 C9.07538419,3.40437036 9.15979374,3.34144289 8.94228744,3.2917485 C8.71940211,3.2407871 8.49086189,3.40662279 8.51389521,3.12619436 C8.5149986,3.11282052 8.5155503,3.09958745 8.51637784,3.08635438 C8.45762218,3.18841794 8.37155755,3.272462 8.26618354,3.32595739 C7.87089309,3.43646759 7.48705034,3.58555077 7.11962056,3.77137684 C7.0986561,3.79812454 7.0568651,3.79812454 7.0254184,3.79812454 C6.91245857,3.80868284 6.80046421,3.82712467 6.68943531,3.84993059 C6.89852824,4.22453905 7.21285725,4.84100296 7.35381567,5.38679665 C7.7473131,5.37131115 8.13805206,5.30965068 8.51748124,5.19857737 C8.6483712,5.16633936 8.82119009,5.11805274 8.92587448,5.19857737 C9.18724063,5.40340838 9.45412375,5.60852094 9.7354889,5.81841993 C10.1876041,5.85488126 11.0865933,5.94751274 11.7851788,6.14713499 C12.758785,6.42531098 13.4791625,7.44453882 13.7712858,7.57095686 C14.0632711,7.69723412 15.1732842,8.12618263 15.8936617,7.86208437 C16.4552886,7.65612714 17.6317811,7.63486976 18.1604442,7.3813298 C18.1176877,7.20578048 18.0612768,7.03346903 17.988177,6.86721101" id="Fill-63" fill="#387AE7"></path>
                <path d="M12.0188085,3.0740786 C12.265003,2.66920301 12.2523139,2.08849654 12.2164537,1.74429598 C12.1469399,1.75232029 12.07784,1.76428636 12.0094296,1.78075731 C11.9530187,1.79863603 11.6254489,1.86170427 11.5839338,1.8608596 C11.3774614,2.4792944 11.243813,2.67722732 11.243813,2.67722732 L10.9478279,3.0666174 C10.9478279,3.0666174 10.8504535,3.1957102 10.7239771,3.3844926 C10.6494981,3.49556591 10.4431636,3.7358728 10.1616606,3.89157252 C10.68591,3.89748517 11.7102723,3.58158085 12.0188085,3.0740786" id="Fill-65" fill="#FFB06D"></path>
                <path d="M10.1616054,3.89162884 C10.1616054,3.89162884 10.801849,3.56347689 10.9479106,3.06653293 C10.9479106,3.06653293 10.9673579,3.57685074 10.9479106,3.75394861 C10.9479106,3.75394861 10.4755206,3.9316096 10.1616054,3.89162884" id="Fill-67" fill="#BD6F41"></path>
            </g>
        </g>
    </g>
</svg>
