<?xml version="1.0" encoding="UTF-8"?>
<svg width="30px" height="30px" viewBox="0 0 30 30" version="1.1" xmlns="http://www.w3.org/2000/svg" xmlns:xlink="http://www.w3.org/1999/xlink">
    <title>leftmenu/sports/color/icon-sports38</title>
    <g id="leftmenu/sports/color/icon-sports38" stroke="none" stroke-width="1" fill="none" fill-rule="evenodd">
        <path d="M1.06702762,9.14632389 L1.06702762,8.09106958 L4.22126867,8.09106958 C4.46671085,8.09106958 4.61498715,7.97706393 4.61498715,7.77151678 C4.61498715,7.56596964 4.46671085,7.43511586 4.22126867,7.43511586 L2.37343159,7.43511586 C1.52308954,7.43511586 0.998506005,6.94427378 0.998506005,6.22598199 C0.998506005,5.50769021 1.48939038,5 2.38466464,5 L5.40186245,5 L5.40186245,6.04963827 L2.38466464,6.04963827 C2.21336059,6.04963827 2.09372859,6.1467958 2.09372859,6.3461653 C2.09372859,6.54553479 2.21336059,6.64269232 2.38466464,6.64269232 L4.22126867,6.64269232 C5.12833763,6.64269232 5.61304383,7.02458318 5.61304383,7.86867431 C5.61304383,8.59875978 5.15698191,9.14632389 4.22126867,9.14632389 L1.06702762,9.14632389 Z M7.56197837,8.05681172 L7.56197837,7.0414313 L8.99363087,7.0414313 C9.34747201,7.0414313 9.55809175,6.84767785 9.55809175,6.54553479 C9.55809175,6.24339172 9.34691036,6.04963827 8.99363087,6.04963827 L7.05424442,6.04963827 L7.05424442,9.14632389 L6.00451569,9.14632389 L6.00451569,5 L8.99363087,5 C9.99730403,5 10.5904092,5.587438 10.5904092,6.51127693 C10.5904092,7.43511586 9.99730403,8.05681172 8.99363087,8.05681172 L7.56197837,8.05681172 L7.56197837,8.05681172 Z M12.8420745,9.14632389 C11.638453,9.14632389 10.7544118,8.23371705 10.7544118,7.03019923 C10.7544118,5.8266814 11.638453,5 12.8420745,5 L13.8856251,5 C15.1235075,5 15.9789044,5.827243 15.9789044,7.03019923 C15.9789044,8.23315544 15.1004797,9.14632389 13.8856251,9.14632389 L12.8420745,9.14632389 Z M13.8856251,8.09106958 C14.501758,8.09106958 14.9291756,7.66874321 14.9291756,7.08186681 C14.9291756,6.49499041 14.4955798,6.04963827 13.8856251,6.04963827 L12.8420745,6.04963827 C12.2489694,6.04963827 11.8097571,6.48881277 11.8097571,7.08186681 C11.8097571,7.67492086 12.2377363,8.09106958 12.8420745,8.09106958 L13.8856251,8.09106958 Z M19.3881357,5 C20.3861924,5 20.9792975,5.61046378 20.9792975,6.56294452 C20.9792975,7.24136241 20.6602789,7.69794663 20.1525449,7.90293217 L21.3904272,9.14632389 L19.8958696,9.14632389 L18.9264573,8.03996359 L17.8997562,8.03996359 L17.8997562,7.15599856 L19.3881357,7.15599856 C19.7363603,7.15599856 19.94698,6.93921934 19.94698,6.60281842 C19.94698,6.2664175 19.7357986,6.04963827 19.3881357,6.04963827 L17.3920223,6.04963827 L17.3920223,9.14632389 L16.3422936,9.14632389 L16.3422936,5 L19.3881357,5 Z M25.1989935,5 L25.1989935,6.04963827 L23.7274638,6.04963827 L23.7274638,9.14632389 L22.6721185,9.14632389 L22.6721185,6.04963827 L21.1949721,6.04963827 L21.1949721,5 L25.1989935,5 Z M25.4539838,9.14632389 L25.4539838,8.09106958 L28.6082249,8.09106958 C28.8536671,8.09106958 29.0019433,7.97706393 29.0019433,7.77151678 C29.0019433,7.56596964 28.8536671,7.43511586 28.6082249,7.43511586 L26.7603878,7.43511586 C25.9100457,7.43511586 25.3854622,6.94427378 25.3854622,6.22598199 C25.3854622,5.50769021 25.8763466,5 26.7716209,5 L29.7888187,5 L29.7888187,6.04963827 L26.7716209,6.04963827 C26.6003168,6.04963827 26.4806848,6.1467958 26.4806848,6.3461653 C26.4806848,6.54553479 26.6003168,6.64269232 26.7716209,6.64269232 L28.6082249,6.64269232 C29.5152938,6.64269232 30,7.02458318 30,7.86867431 C30,8.59875978 29.5439381,9.14632389 28.6082249,9.14632389 L25.4539838,9.14632389 Z M11.8202762,12.988 C12.1288894,12.988 12.4058498,13.0812538 12.6501685,13.2688715 C12.8944872,13.4564892 13.0992401,13.6962846 13.2664055,13.9904781 L13.6590959,14.4112302 C13.8134024,14.5844158 13.947926,14.782025 14.0606885,15.0018375 C14.173451,15.2227601 14.2684089,15.4525641 14.3465513,15.6934697 C14.4237045,15.9343752 14.4800858,16.1708402 14.515695,16.4050848 C14.5513041,16.6393294 14.5691088,16.8558114 14.5691088,17.056751 L14.5691088,17.096717 C14.5691088,17.3509445 14.5334995,17.6073924 14.461292,17.8682809 C14.3900736,18.1291695 14.2941266,18.3756258 14.1754293,18.6098704 C14.0567319,18.844115 13.9192408,19.053936 13.7649343,19.2404436 C13.6106278,19.4280613 13.4503863,19.5812639 13.2832209,19.7011616 C13.3544394,19.8088476 13.4286252,19.9287453 13.5067676,20.061965 C13.5839208,20.1951847 13.6284323,20.3761413 13.6403021,20.6026148 C13.6403021,20.8157663 13.6046929,21.0533414 13.5324854,21.31423 C13.4612669,21.5751185 13.3959834,21.7982615 13.3366347,21.9858792 L13.3188302,21.9858792 L13.2644272,22.2056917 C13.0745114,22.6997146 12.8895415,23.1215769 12.7105063,23.4679482 C12.5324603,23.8154295 12.2970439,24.0996314 12.0052463,24.3194439 C11.7134487,24.5403665 11.3415304,24.7035607 10.8894913,24.8101364 C10.4364632,24.9167122 9.84198737,24.97 9.1040856,24.97 L0.820989901,24.97 L0.142436802,24.2084275 L3.33955086e-13,24.2084275 L0.500507096,23.3669232 C0.524246564,23.3402793 0.545018597,23.3069743 0.562823197,23.2670084 C0.581616942,23.2270426 0.602388976,23.1937376 0.626128443,23.1670936 C0.863523113,22.7796465 1.10784179,22.3988602 1.35809535,22.0247349 C1.60834889,21.6506097 1.89322249,21.2698234 2.21469445,20.8823761 L4.08912319,20.8823761 L3.62521445,20.3617092 L3.42936384,20.3617092 L6.76772639,17.0756239 L3.50058224,17.0756239 L2.82202915,16.3140513 L2.66178774,16.3140513 C2.99512943,15.7134526 3.33638426,15.1317267 3.68851969,14.5710939 C4.03966597,14.010461 4.42345403,13.4831331 4.83988384,12.988 L11.8202762,12.988 Z M25.2083465,12.988 C25.5416883,12.988 25.8364533,13.0845843 26.0916526,13.278863 C26.347841,13.4731417 26.5595179,13.7162676 26.7256941,14.010461 L27.1183845,14.4312132 C27.4042472,14.7387286 27.614935,15.1261758 27.7524261,15.5935549 C27.888928,16.060934 27.9581682,16.4883471 27.9581682,16.8757943 L27.9581682,17.1566658 C27.9581682,17.4108934 27.8988194,17.6973157 27.779133,18.018153 C27.6713162,18.3789563 27.5199772,18.7064547 27.3241265,19.0006482 C27.1272868,19.2948416 26.909675,19.5279761 26.6722803,19.7011616 C26.7434988,19.8088476 26.8176846,19.9287453 26.8948378,20.061965 C26.9719911,20.1951847 27.0165026,20.3761413 27.0283723,20.6026148 L27.0283723,20.6625637 C27.0283723,20.8357493 27.0016655,21.0266974 26.9482516,21.233188 C26.8938487,21.4407887 26.8384566,21.6306267 26.7781188,21.8038123 L26.7603142,21.8038123 L26.6524974,22.2045815 C26.4615926,22.6986045 26.2776117,23.1204668 26.0985765,23.4668379 C25.9205305,23.8143193 25.6851142,24.0985213 25.3933166,24.3183338 C25.101519,24.5392564 24.7296006,24.7024504 24.2775616,24.8090262 C23.8255226,24.9156019 23.2300576,24.9688899 22.493145,24.9688899 L17.1735262,24.9688899 C16.494973,24.9688899 15.9628133,24.9222629 15.5760578,24.8290092 C15.1893023,24.7346453 14.9073961,24.5881036 14.728361,24.3882741 L14.2466476,23.8476242 C14.0329924,23.7277265 13.8806642,23.5700832 13.7916412,23.3769146 C13.7026182,23.1837461 13.6581067,22.952832 13.6581067,22.6852825 C13.6581067,22.472131 13.6818462,22.2445474 13.7293251,22.0036418 C13.776804,21.7638464 13.8480225,21.4896359 13.9429803,21.1821205 L14.0320033,20.881266 C14.1032217,20.7080804 14.1892773,20.4971493 14.2911591,20.2506929 C14.3920519,20.0031263 14.5087709,19.7799833 14.639338,19.5790437 C14.7580354,19.4058581 14.8797001,19.2615368 15.0053215,19.1483 C15.1299536,19.0350633 15.2585424,18.9318181 15.3891095,18.8374541 L15.3356957,18.8374541 C15.4306536,18.7841662 15.4959371,18.7442003 15.5315463,18.7175564 C15.4484582,18.5710147 15.3920769,18.4111512 15.3624026,18.2368554 C15.3327283,18.0636698 15.3178911,17.8827131 15.3178911,17.6962055 C15.3178911,17.3487242 15.3535003,17.0145648 15.4257079,16.6948376 C15.4969262,16.3740002 15.5859492,16.1008998 15.693766,15.8733162 L15.782789,15.6124276 C15.8658771,15.3193444 15.9845745,15.0151595 16.1398701,14.700983 C16.2941767,14.3868066 16.5216799,14.1037148 16.8184233,13.8494873 C17.1151666,13.5952597 17.5078569,13.3887692 17.9964943,13.2277954 C18.4851317,13.0679318 19.1152166,12.988 19.8887277,12.988 L25.2083465,12.988 Z M25.2053792,13.2910748 L19.8857602,13.2910748 C19.1597281,13.2910748 18.5642632,13.3676761 18.1003545,13.5219889 C17.6364457,13.6751915 17.2674949,13.8694702 16.9935018,14.1026047 C16.7185196,14.3368493 16.5107993,14.5966276 16.3683626,14.8841601 C16.2259257,15.1716925 16.1121741,15.4481234 16.029086,15.7156729 L15.9222583,16.0365104 C15.8292788,16.2341195 15.749158,16.4839065 15.6838745,16.7847609 C15.6176019,17.0856153 15.5849601,17.38869 15.5849601,17.6962055 C15.5849601,17.9360009 15.6126562,18.1535931 15.66607,18.3478718 C15.7194837,18.5421505 15.8124633,18.6787006 15.9430304,18.7586324 C15.8243331,18.8652081 15.660135,18.9928771 15.4524147,19.1394187 C15.2437053,19.2870705 15.0438981,19.493561 14.8539823,19.7611106 C14.7342959,19.9342961 14.6245009,20.1385663 14.5236081,20.3728109 C14.4227154,20.6070555 14.3425947,20.8102156 14.2822569,20.9845112 L14.1932339,21.2853657 C14.1101457,21.5662372 14.0448622,21.8226851 13.9963941,22.0569297 C13.9489152,22.2911743 13.9251757,22.5009953 13.9251757,22.6875028 C13.9251757,22.9017645 13.9637523,23.0849415 14.0409056,23.2392543 C14.1180588,23.392457 14.2555499,23.5201258 14.4514006,23.6200406 C14.6472511,23.7199554 14.906407,23.7932262 15.227879,23.8409632 C15.5483618,23.8875902 15.953911,23.9109035 16.4415592,23.9109035 L21.7611781,23.9109035 C22.4634707,23.9109035 23.0312396,23.8609462 23.4664632,23.7610314 C23.9006976,23.6611167 24.2538221,23.507914 24.5288043,23.3003134 C24.8018082,23.0938229 25.0253548,22.8229428 25.197466,22.4887835 C25.3695771,22.1546241 25.5456448,21.7549651 25.72468,21.2864759 L25.8493122,20.8857066 C25.90965,20.725843 25.9630638,20.5482168 26.0095535,20.3550482 C26.0570325,20.1618797 26.080772,19.9909144 26.080772,19.8443728 L26.080772,19.7844239 C26.0689022,19.5168745 26.0036187,19.310384 25.8849214,19.1627322 C25.7652349,19.0161905 25.6821467,18.8896318 25.6346678,18.7819459 C25.8849214,18.6620481 26.1193486,18.4477865 26.3399278,18.1413813 C26.5605071,17.8338659 26.7286616,17.4930455 26.8483481,17.1189202 C26.9551757,16.8258369 27.0085894,16.5649484 27.0085894,16.3373648 L27.0085894,16.0564932 C27.0085894,15.7756218 26.9729803,15.4747673 26.9017619,15.1550402 C26.8295543,14.8342027 26.7167918,14.5366788 26.5624853,14.2635784 C26.4081788,13.9904781 26.2172739,13.759564 25.9907598,13.5719463 C25.7642458,13.3854387 25.5021225,13.2910748 25.2053792,13.2910748 Z M11.8192871,13.285524 L4.9457223,13.285524 C4.57677142,13.7129371 4.2493646,14.1570027 3.96350185,14.6177207 C3.6776391,15.0784388 3.40364608,15.5424873 3.14251195,16.0098664 L9.81923705,16.0098664 C9.84297651,16.0098664 9.89935775,16.0664847 9.98838079,16.1797215 C10.0774038,16.2929582 10.1397198,16.3828815 10.1753291,16.4506015 C10.1871988,16.5038893 10.1990685,16.5371943 10.2109383,16.5505163 L10.1753291,16.650431 C10.1634593,16.690397 10.1367524,16.7470153 10.0942192,16.8202861 C10.0526752,16.893557 10.0081637,16.9701583 9.9606847,17.0512002 C9.91320577,17.1322422 9.86869427,17.2010724 9.8271502,17.2610212 C9.78560614,17.3209701 9.75889924,17.3509445 9.7470295,17.3509445 L6.89038031,17.3509445 L4.14055871,20.055304 L8.96065966,20.055304 C8.96065966,20.1485577 8.95769222,20.2429217 8.95175736,20.3361755 C8.94483335,20.4294293 8.93098532,20.4960391 8.90724586,20.536005 L8.87163666,20.6359198 C8.85976692,20.6492418 8.83602746,20.6825466 8.80041826,20.7358345 C8.76480906,20.7758005 8.71139526,20.8190968 8.64017686,20.8657237 L8.42652166,21.0056043 C8.35530325,21.0522313 8.25935623,21.1088496 8.1406589,21.1754595 L2.32152205,21.1754595 C1.98818036,21.5695677 1.67857815,21.9936503 1.3927154,22.4543684 C1.10685265,22.9150864 0.810109312,23.399118 0.500507096,23.9064629 L8.37310785,23.9064629 C9.07638956,23.9064629 9.64316934,23.8565056 10.0783929,23.7565907 C10.5126273,23.6566759 10.8667411,23.5034734 11.140734,23.2958727 C11.4137379,23.0893822 11.6372845,22.8185022 11.8093957,22.4843428 C11.982496,22.1501835 12.1585637,21.7505244 12.3366097,21.2820353 L12.4078281,21.0611125 C12.4671767,20.887927 12.5294929,20.6769959 12.5947764,20.4305394 C12.6600599,20.1829728 12.6927017,19.9664908 12.6927017,19.7788732 C12.680832,19.5113236 12.6155484,19.3048331 12.4968511,19.1571813 C12.3781537,19.0106397 12.2940765,18.884081 12.2475867,18.7763951 C12.413763,18.6964632 12.5799392,18.5699046 12.7471047,18.3956088 C12.913281,18.2224233 13.0626417,18.018153 13.1932088,17.7839084 C13.3237759,17.5507741 13.4276361,17.3032075 13.5057784,17.0423189 C13.5829317,16.7814304 13.6215084,16.5249825 13.6215084,16.270755 L13.6215084,16.230789 C13.6215084,15.9632395 13.5858992,15.6601647 13.5146807,15.3193444 C13.4424732,14.978524 13.3326781,14.6576866 13.1843065,14.3579424 C13.0349457,14.0570879 12.8479973,13.8039705 12.6224725,13.5963699 C12.3959584,13.3898794 12.1279002,13.285524 11.8192871,13.285524 Z M22.4763295,19.8399322 C22.4763295,19.933186 22.4525901,20.0641853 22.4051112,20.2307099 C22.3576322,20.3983447 22.322023,20.5015899 22.2982835,20.5415558 L22.2626743,20.6414705 C22.2508046,20.6547925 22.2270652,20.6880975 22.191456,20.7413854 C22.1558468,20.7813512 22.102433,20.8246477 22.0312145,20.8712745 C21.9599962,20.9179014 21.8887778,20.9645283 21.8165702,21.0111552 C21.7453518,21.057782 21.6494048,21.1144005 21.5307074,21.1810103 L18.4247939,21.1810103 C18.4000653,21.1821205 18.3456623,21.1255021 18.2635633,21.0122653 C18.1804751,20.8990286 18.1211265,20.8091053 18.0845282,20.7413854 L18.1023327,20.6814365 C18.1023327,20.6681145 18.1053002,20.658123 18.111235,20.651462 C18.1171699,20.644801 18.1201373,20.6348096 18.1201373,20.6214877 L18.1023327,20.5815217 L18.3525863,19.8399322 L22.4763295,19.8399322 Z M23.2073073,16.0131969 C23.2429166,16.0265189 23.3022652,16.0864677 23.3863425,16.1930434 C23.4704198,16.2996192 23.5287792,16.386212 23.5653776,16.453932 L23.5653776,16.6537615 C23.5416381,16.7336933 23.4822895,16.853591 23.3863425,17.0145648 C23.2913846,17.1744284 23.226101,17.2543602 23.1904919,17.2543602 L20.8521544,17.2543602 L18.4594139,19.5790437 L19.4594389,16.453932 C19.5177985,16.3073903 19.6256153,16.1963739 19.7799218,16.1231031 C19.9342283,16.0498323 20.042045,16.0131969 20.1013937,16.0131969 L23.2073073,16.0131969 Z" id="icon-sports38" fill="#FFFFFF" fill-rule="nonzero"></path>
    </g>
</svg>