<?xml version="1.0" encoding="UTF-8"?>
<svg viewBox="0 0 30 30" version="1.1" xmlns="http://www.w3.org/2000/svg" xmlns:xlink="http://www.w3.org/1999/xlink">
    <title>leftmenu/sports/color/icon-basketball</title>
    <g id="leftmenu/sports/color/icon-basketball" stroke="none" stroke-width="1" fill="none" fill-rule="evenodd">
        <circle id="Oval" fill="#3C515A" cx="15" cy="15" r="12"></circle>
        <path d="M14.4717388,7.25031179 L14.4717388,7.59856827 C14.4717388,13.9646403 14.4716437,20.3307123 14.4723093,26.6967844 C14.4723093,26.7978563 14.4811049,26.8989281 14.4858118,27 L14.1535756,27 L13.1735214,26.8510293 C13.0104373,26.8248881 12.8477053,26.7969795 12.6856601,26.7656372 C11.4303131,26.5227266 10.2310678,26.1011554 9.09671985,25.5275538 C8.40719184,25.1789216 7.92975681,24.5779384 7.540991,23.9223803 C6.85084492,22.7585978 6.70222294,21.4974537 6.81338039,20.1720126 C6.9509722,18.5310976 7.72969242,17.1995508 8.74375454,15.9553617 C9.52161897,15.0009558 10.300672,14.0441076 11.0170623,13.0448957 C12.0169563,11.6502729 12.6263255,10.0975609 12.7090517,8.37041546 C12.7235526,8.06799827 12.7111436,7.76435995 12.7111436,7.42582554 C13.2921766,7.3678689 13.8626549,7.31103945 14.4717388,7.25031179 Z M11.6791242,7.65932881 C11.6253046,8.20639441 11.604005,8.73401589 11.5167145,9.25078811 C11.2640667,10.7460131 10.5078347,12.0123704 9.59618194,13.1961606 C8.77828562,14.2582137 7.91935898,15.2898325 7.11434703,16.361138 C6.28028581,17.47105 5.87906352,18.7537516 5.70419735,20.1139949 C5.5969385,20.9481666 5.59170867,21.7786749 5.7503624,22.6073046 C5.75706608,22.6423416 5.75121819,22.6797269 5.70595647,22.7428969 C5.41617689,22.3683861 5.11275224,22.0033156 4.8391851,21.6175799 C4.05756472,20.5154644 3.45437628,19.329185 3.17634003,18.0013016 C3.09851079,17.6294679 3.05776574,17.2500257 3,16.8741059 L3,16.1709238 C3.06855819,15.7723662 3.11790867,15.3694407 3.20924035,14.9760494 C3.49169818,13.7596645 4.07149505,12.6837093 4.87137227,11.7274247 C6.61442377,9.64352184 8.87788992,8.38261266 11.4933705,7.68981005 C11.5308826,7.67990013 11.5702489,7.67694124 11.6791242,7.65932881 Z M10.3059969,5.51961565 C10.8191849,5.72391985 11.1689172,6.08072423 11.4025475,6.60069017 C7.8571574,7.53161285 4.98836335,9.35193982 3.10344109,12.5332616 C3.16016086,12.3075406 3.2126017,12.0807395 3.27474147,11.8565215 C3.33935352,11.6234738 3.40743627,11.3910367 3.48493269,11.1619342 C3.56247666,10.9328317 3.64629642,10.7052321 3.73981511,10.4820943 C4.60021561,8.42970595 5.92450115,6.7302707 7.72160997,5.39280614 C7.78859921,5.3429747 7.86975651,5.28849358 7.94867925,5.28107288 C8.74964997,5.20564471 9.54182509,5.21541373 10.3059969,5.51961565 Z M14.4523029,3 L14.4523029,6.18498513 C13.9651689,6.23251521 13.4871158,6.27915293 13.0090627,6.32579065 C12.8445611,6.34185318 12.64811,6.41920698 12.5247338,6.35645976 C12.4066825,6.29643659 12.3650341,6.09048856 12.2890591,5.94907248 C11.7779155,4.99748455 10.9464217,4.48977686 9.90597271,4.27180541 C9.84663802,4.25940626 9.78749351,4.24606778 9.6591252,4.21812272 C11.2074372,3.46924214 12.779331,3.08594867 14.4523029,3 Z M15.5440516,7.25303585 C16.1443399,7.31136822 16.7194299,7.36725833 17.2648051,7.42023653 C17.3026499,7.9918656 17.3160573,8.5219763 17.3770085,9.04673283 C17.5074212,10.1702181 17.9005135,11.2102909 18.4584402,12.1935812 C19.2325486,13.5579106 20.2767535,14.7248398 21.2528757,15.9421171 C21.7730051,16.5907243 22.294846,17.2433236 22.6353549,18.0073274 C23.1395571,19.1385151 23.3019192,20.3262975 23.1781151,21.5537196 C23.0403331,22.919411 22.4720419,24.0785438 21.4835583,25.0450671 C20.9360437,25.5803441 20.2314918,25.822926 19.5460526,26.0959422 C18.3984874,26.552973 17.2129347,26.873942 15.971946,26.9645403 C15.9346716,26.9672644 15.898776,26.9877887 15.8622148,27 L15.5299786,27 C15.5346855,26.8989281 15.5434335,26.7978563 15.5434811,26.6967844 C15.5440991,20.3304305 15.5440516,13.9640767 15.5440516,7.59772287 L15.5440516,7.25303585 Z M18.3159751,7.64596214 C19.3386902,7.88431705 20.2280449,8.20218621 21.0808384,8.61337778 C22.6483106,9.36911547 24.0306471,10.3682804 25.1348048,11.7146217 C26.3091846,13.1465828 27.016399,14.7623238 26.9997111,16.6306505 C26.988253,17.9179079 26.6098042,19.1217058 26.0142228,20.2591871 C25.5769623,21.0942042 25.0397647,21.8649242 24.4273052,22.5843568 C24.3840403,22.6352215 24.3346423,22.6809669 24.2628036,22.7553148 C24.3001255,22.4083264 24.3475267,22.1021519 24.3638342,21.7943805 C24.4800788,19.6016093 23.9304723,17.6045475 22.547898,15.8593669 C21.841587,14.9677552 21.1135961,14.0926287 20.4181251,13.1928917 C19.5635725,12.0872068 18.838244,10.9063285 18.5560714,9.52072328 C18.4339789,8.92119611 18.3975128,8.30466708 18.3159751,7.64596214 Z M22.0077479,5.26371876 C22.0855296,5.26127651 22.1772892,5.30551893 22.2425193,5.35431711 C24.6836567,7.17999827 26.2479435,9.56359428 26.9059499,12.5216843 C26.9073762,12.5281187 26.9010529,12.5362439 26.8943492,12.55442 C25.0323906,9.35332533 22.1574634,7.53003947 18.617208,6.60127725 C18.9331842,5.83840066 19.5458814,5.46473531 20.3082941,5.34985529 C20.866411,5.26573832 21.4404551,5.28165996 22.0077479,5.26371876 Z M15.5551483,3.00306221 C17.2265038,3.07759802 18.7993008,3.47169379 20.3494671,4.21150984 C20.2033174,4.24833156 20.1110824,4.27355257 20.0178965,4.29473445 C18.8936278,4.54980942 18.0527678,5.14844423 17.5998178,6.2259493 C17.5733835,6.28874348 17.4835256,6.37459822 17.4303717,6.36990157 C16.8104953,6.31523258 16.1920453,6.24529949 15.5551483,6.17743292 L15.5551483,3.00306221 Z" id="Combined-Shape" fill="#FF723F"></path>
    </g>
</svg>
