<svg xmlns="http://www.w3.org/2000/svg" width="30" height="30" fill="none" viewBox="0 0 30 30"><g clip-path="url(#a)" filter="url(#b)"><path fill="#222" d="M21.26 3A5.746 5.746 0 0 1 27 8.74v12.52A5.743 5.743 0 0 1 21.26 27H8.74A5.743 5.743 0 0 1 3 21.26V8.74A5.743 5.743 0 0 1 8.74 3zM8.74 5.608A3.134 3.134 0 0 0 5.607 8.74v12.522a3.134 3.134 0 0 0 3.131 3.13H21.26a3.134 3.134 0 0 0 3.13-3.13V8.739a3.134 3.134 0 0 0-3.13-3.13zm11.77 14.02c.287 0 .521.235.521.521v1.43a.523.523 0 0 1-.521.522H9.688a.523.523 0 0 1-.521-.522v-1.43c0-.286.235-.52.521-.521zM16.737 8.02c.068 0 .12.056.12.134v5.296h2.181c.047 0 .094.037.11.09.01.02.01.035.01.05a.14.14 0 0 1-.036.1l-3.94 4.132a.11.11 0 0 1-.162 0l-3.938-4.132a.17.17 0 0 1-.037-.1q.001-.029.01-.05c.016-.053.063-.09.11-.09h2.03V8.154c0-.072.052-.134.12-.134z"/></g><defs><clipPath id="a"><path fill="#fff" d="M0 0h30v30H0z"/></clipPath><filter id="b" width="28" height="28" x="1" y="3" color-interpolation-filters="sRGB" filterUnits="userSpaceOnUse"><feFlood flood-opacity="0" result="BackgroundImageFix"/><feColorMatrix in="SourceAlpha" result="hardAlpha" values="0 0 0 0 0 0 0 0 0 0 0 0 0 0 0 0 0 0 127 0"/><feOffset dy="2"/><feGaussianBlur stdDeviation="1"/><feColorMatrix values="0 0 0 0 0 0 0 0 0 0 0 0 0 0 0 0 0 0 0.05 0"/><feBlend in2="BackgroundImageFix" result="effect1_dropShadow_27_2048"/><feBlend in="SourceGraphic" in2="effect1_dropShadow_27_2048" result="shape"/></filter></defs></svg>