<svg xmlns="http://www.w3.org/2000/svg" width="30" height="30" fill="none" viewBox="0 0 30 30"><g clip-path="url(#a)" filter="url(#b)"><path fill="#222" d="M11.63 7.9a12.6 12.6 0 0 0-1.783 2.576c-.05.09-1.155 2.18.052 3.426.046.066.95 1.2 2.838-.204 1.89-1.405 2.103-1.645 2.543-1.645s.687.2.884.407l7 7.344c.306.303.443.775.355 1.23-.087.453-.385.816-.775.944-.39.127-.809-.002-1.092-.334l-3.96-4.396a.27.27 0 0 0-.294-.104.32.32 0 0 0-.212.253.37.37 0 0 0 .098.332l1.393 1.55 2 2.219c.235.256.363.615.353.985-.02.532-.312 1-.744 1.195-.432.194-.924.078-1.254-.296l-3.336-3.968a.28.28 0 0 0-.208-.1.28.28 0 0 0-.208.1.36.36 0 0 0-.087.238c0 .09.032.176.087.24l.434.513L18 23.14c.419.51.405 1.31-.03 1.801-.436.492-1.135.493-1.572.004l-.588-.69-1.172-1.344-1.326-1.52a.28.28 0 0 0-.208-.1.28.28 0 0 0-.21.1.37.37 0 0 0 0 .474l2.492 2.855c.348.388.374 1.02.06 1.445-.316.425-.864.497-1.255.166-1.81-1.5-6.038-4.934-9.494-9.413-.015-.035 2.44-9.019 2.44-9.019zm16.767-1.243c.244 0 .452.007.603.017V19.91h-1.898c-.386-.002-.73-.271-.864-.675L22.878 9.01c-.174-.508.042-1.079.49-1.293a12.1 12.1 0 0 1 5.029-1.06m-13.852.078c.64-.26 1.481-.138 2.11.155l5.583 2.686 2.864 8.766c.032.177.105.71-.363.997s-.727.129-.952 0c-.225-.128-6.705-6.94-6.74-6.976-.238-.266-1.03-1.094-1.6-1.094-.673-.065-.976.288-2.888 1.666-1.145.875-1.519.973-2.26.551-1.014-.942.093-2.619.095-2.64 1.55-3.112 3.034-3.649 4.15-4.11M1 5.01a9.9 9.9 0 0 1 4.928 1.088c.409.209.617.729.488 1.215l-2.734 10.21c-.11.434-.463.734-.862.733H1z"/></g><defs><clipPath id="a"><path fill="#fff" d="M0 0h30v30H0z"/></clipPath><filter id="b" width="32" height="25.539" x="-1" y="5" color-interpolation-filters="sRGB" filterUnits="userSpaceOnUse"><feFlood flood-opacity="0" result="BackgroundImageFix"/><feColorMatrix in="SourceAlpha" result="hardAlpha" values="0 0 0 0 0 0 0 0 0 0 0 0 0 0 0 0 0 0 127 0"/><feOffset dy="2"/><feGaussianBlur stdDeviation="1"/><feColorMatrix values="0 0 0 0 0 0 0 0 0 0 0 0 0 0 0 0 0 0 0.05 0"/><feBlend in2="BackgroundImageFix" result="effect1_dropShadow_205_10"/><feBlend in="SourceGraphic" in2="effect1_dropShadow_205_10" result="shape"/></filter></defs></svg>