<svg xmlns="http://www.w3.org/2000/svg" width="30" height="30" fill="none" viewBox="0 0 30 30"><path fill="#222" fill-rule="evenodd" d="M13.132 2c5.386-.001 10.128 3.651 11.645 8.97a8.7 8.7 0 0 0-2.072-.261c-.186 0-.373.027-.56.027-1.504-3.823-5.138-6.3-9.144-6.234S5.44 7.163 4.055 11.033s-.315 8.219 2.692 10.944a6.77 6.77 0 0 1 1.922-3.514 1.4 1.4 0 0 1 1.607-.267 6.4 6.4 0 0 0 2.88.688c.223 0 .44-.043.658-.043v.017c-.342 2.841.633 5.683 2.632 7.674-3.273.95-6.782.44-9.673-1.403h-.192v-.128c-4.532-2.994-6.605-8.705-5.09-14.025S7.746 2.001 13.131 2m9.573 11.455c3.475 0 6.292 2.898 6.295 6.475 0 3.574-2.815 6.473-6.288 6.474-3.473 0-6.29-2.896-6.292-6.471s2.812-6.475 6.285-6.478m.259 2.272h-.518c-.52 0-.943.435-.943.97v2.027h-1.969a.92.92 0 0 0-.668.283.98.98 0 0 0-.275.688v.533a.98.98 0 0 0 .275.688.92.92 0 0 0 .668.283h1.969v2.005a1 1 0 0 0 .272.706c.18.188.425.293.681.291h.518c.524 0 .948-.437.948-.976V21.2h1.97a.93.93 0 0 0 .684-.286 1 1 0 0 0 .274-.706l-.026-.512a.956.956 0 0 0-.943-.97h-1.969v-2.027c0-.259-.1-.506-.278-.689a.93.93 0 0 0-.67-.282m-9.826-7.834c2.362 0 4.3 1.927 4.38 4.357v.165a9.2 9.2 0 0 0-3.108 4.048c-.408.12-.83.181-1.254.181a4.26 4.26 0 0 1-3.076-1.262 4.52 4.52 0 0 1-1.307-3.132c.066-2.43 2.003-4.357 4.365-4.357" clip-rule="evenodd"/></svg>