<svg width="30" height="30" viewBox="0 0 30 30" fill="none" xmlns="http://www.w3.org/2000/svg">
<path d="M27.9846 20.4283C27.9217 17.7982 26.8438 15.2673 25.8647 13.5199C25.2 12.322 24.6251 11.061 24.3197 9.72799C24.1849 9.12452 23.8795 8.79127 23.8795 8.79127C23.5651 10.0883 22.8195 11.4483 22.8195 11.4483C23.0441 8.20581 19.5767 7.26008 19.3701 7.20604C21.8763 9.00743 20.5559 11.8086 20.5559 11.8086C20.1516 7.8005 16.8011 7.77348 16.7112 7.77348C18.1665 8.1878 19.4151 11.7816 16.4507 12.304C13.4954 12.8264 11.8785 9.27764 14.0613 6.52151C16.2441 3.75636 14.5823 2 14.5823 2C14.5823 2.09908 14.5374 3.54019 11.6719 4.80117C8.70758 6.10718 9.0669 9.70097 9.0669 9.70097C7.36017 8.13376 8.61776 6.34137 8.6986 6.23328C8.58183 6.30534 6.32715 7.77348 7.36915 9.98019C7.93507 11.1961 8.24048 12.4571 8.13269 13.3488C8.03388 14.1144 7.62965 14.6008 6.8212 14.5287C5.07854 14.3666 5.69835 11.1061 5.69835 11.1061C5.69835 11.1061 2.11422 15.5915 2.00643 20.4373C1.89864 25.2831 3.14724 28.1473 5.64446 27.9942C8.14167 27.832 9.8484 21.6352 14.9955 21.6352C20.1427 21.6352 21.8584 27.832 24.3556 27.9942C26.8438 28.1473 28.1014 25.2831 27.9936 20.4373L27.9846 20.4283ZM10.8904 20.4193H9.66874V21.6442C9.66874 22.0676 9.3274 22.4008 8.91419 22.4008H7.33322C6.91103 22.4008 6.57867 22.0586 6.57867 21.6442V20.4193H5.36599C4.9438 20.4193 4.61144 20.077 4.61144 19.6627V18.0775C4.61144 17.6541 4.95278 17.3209 5.36599 17.3209H6.57867V16.1049C6.57867 15.6816 6.92001 15.3484 7.33322 15.3484H8.91419C9.33638 15.3484 9.66874 15.6906 9.66874 16.1049V17.3209H10.8904C11.3126 17.3209 11.645 17.6631 11.645 18.0775V19.6627C11.645 20.086 11.3036 20.4193 10.8904 20.4193ZM22.3165 14.9971C23.116 14.9971 23.7717 15.6546 23.7717 16.4562C23.7717 17.2578 23.116 17.9153 22.3165 17.9153C21.517 17.9153 20.8613 17.2578 20.8613 16.4562C20.8613 15.6546 21.517 14.9971 22.3165 14.9971ZM18.5168 18.8611C18.5168 18.0595 19.1635 17.4109 19.963 17.4109C20.7625 17.4109 21.4003 18.0595 21.4003 18.8611C21.4003 19.6627 20.7535 20.3022 19.963 20.3022C19.1725 20.3022 18.5168 19.6537 18.5168 18.8611ZM22.3165 22.662C21.517 22.662 20.8703 22.0135 20.8703 21.2209C20.8703 20.4283 21.517 19.7708 22.3165 19.7708C23.116 19.7708 23.7627 20.4193 23.7627 21.2209C23.7627 22.0225 23.107 22.662 22.3165 22.662ZM24.67 20.3022C23.8705 20.3022 23.2238 19.6537 23.2238 18.8611C23.2238 18.0685 23.8705 17.4109 24.67 17.4109C25.4694 17.4109 26.1162 18.0595 26.1162 18.8611C26.1162 19.6627 25.4605 20.3022 24.67 20.3022Z" fill="black"/>
</svg>
