<svg xmlns="http://www.w3.org/2000/svg" width="30" height="30" fill="none" viewBox="0 0 30 30"><g clip-path="url(#a)" filter="url(#b)"><path fill="#222" d="M4.824 6.557c4.227-.874 18.8-.592 20.304-.017a3.24 3.24 0 0 1 2.296 2.274c.793 3.165.74 9.15.017 12.365a3.24 3.24 0 0 1-2.297 2.275c-3.162.775-17.325.68-20.304 0a3.24 3.24 0 0 1-2.295-2.275c-.748-3.017-.696-9.397-.017-12.348a3.24 3.24 0 0 1 2.296-2.274m7.655 12.298 6.79-3.858-6.79-3.857z"/></g><defs><clipPath id="a"><path fill="#fff" d="M0 0h30v30H0z"/></clipPath><filter id="b" width="30" height="22" x=".001" y="6" color-interpolation-filters="sRGB" filterUnits="userSpaceOnUse"><feFlood flood-opacity="0" result="BackgroundImageFix"/><feColorMatrix in="SourceAlpha" result="hardAlpha" values="0 0 0 0 0 0 0 0 0 0 0 0 0 0 0 0 0 0 127 0"/><feOffset dy="2"/><feGaussianBlur stdDeviation="1"/><feColorMatrix values="0 0 0 0 0 0 0 0 0 0 0 0 0 0 0 0 0 0 0.05 0"/><feBlend in2="BackgroundImageFix" result="effect1_dropShadow_27_2024"/><feBlend in="SourceGraphic" in2="effect1_dropShadow_27_2024" result="shape"/></filter></defs></svg>