<svg xmlns="http://www.w3.org/2000/svg" width="30" height="30" fill="none" viewBox="0 0 30 30"><path fill="#222" d="M15 2.5a3.37 3.37 0 0 1 3.377 3.366 3.37 3.37 0 0 1-2.532 3.26v3.577c.838.216 1.55.744 2.004 1.453l3.416-1.108a3.368 3.368 0 0 1 6.569-1.245 3.369 3.369 0 0 1-6.046 2.85L18.37 15.76q.006.1.006.202c0 .811-.289 1.556-.769 2.137L19.716 21a3.374 3.374 0 0 1 3.967 1.15 3.367 3.367 0 0 1-.751 4.705 3.375 3.375 0 0 1-4.712-.74 3.366 3.366 0 0 1 .13-4.123l-2.107-2.898a3.4 3.4 0 0 1-1.243.235c-.439 0-.858-.083-1.243-.235l-2.108 2.897a3.366 3.366 0 0 1 .131 4.124 3.375 3.375 0 0 1-4.712.74 3.367 3.367 0 0 1-.751-4.705A3.374 3.374 0 0 1 10.283 21l2.109-2.899a3.35 3.35 0 0 1-.763-2.339l-3.416-1.11a3.369 3.369 0 0 1-6.047-2.85 3.369 3.369 0 0 1 6.568 1.245l3.417 1.11a3.38 3.38 0 0 1 2.005-1.453V9.125a3.37 3.37 0 0 1-2.533-3.26A3.37 3.37 0 0 1 15 2.5"/></svg>