<svg xmlns="http://www.w3.org/2000/svg" width="30" height="30" fill="none" viewBox="0 0 30 30"><g filter="url(#a)"><path fill="#222" d="M14.99 16.089c2.258.798 4.284 2.406 5.603 4.826l.18.33C21.69 22.931 20.489 25 18.59 25H4.496c-1.899 0-3.1-2.068-2.182-3.755l.18-.33c1.318-2.42 3.345-4.028 5.603-4.826l3.17 3.198c.153.155.4.155.553 0zm6.656-7.862c2.48-.892 5.201.425 6.08 2.941.878 2.516-.42 5.279-2.9 6.17-2.11.758-4.394-.084-5.57-1.902L17.46 15.1a.263.263 0 0 1-.15-.427l1.188-1.411c-.214-2.164 1.039-4.276 3.148-5.034m.668 3.687V12l.117.025q.169.035.231.124a.47.47 0 0 1 .063.269v2.669q0 .17-.063.272-.064.103-.231.154l-.117.034v.085h1.965v-.085l-.084-.025a.4.4 0 0 1-.222-.154.5.5 0 0 1-.064-.273v-2.387l.026-1.21-.084-.086zM11.543 5c2.878 0 5.213 2.368 5.213 5.29s-2.335 5.29-5.213 5.29c-2.878-.001-5.212-2.369-5.212-5.29S8.665 5 11.543 5m11.762 4.663q-.285 0-.484.179a.6.6 0 0 0-.197.468q0 .282.197.465a.7.7 0 0 0 .484.184.67.67 0 0 0 .478-.184.6.6 0 0 0 .194-.465.61.61 0 0 0-.194-.468.68.68 0 0 0-.478-.179"/></g><defs><filter id="a" width="30" height="24" x="0" y="5" color-interpolation-filters="sRGB" filterUnits="userSpaceOnUse"><feFlood flood-opacity="0" result="BackgroundImageFix"/><feColorMatrix in="SourceAlpha" result="hardAlpha" values="0 0 0 0 0 0 0 0 0 0 0 0 0 0 0 0 0 0 127 0"/><feOffset dy="2"/><feGaussianBlur stdDeviation="1"/><feColorMatrix values="0 0 0 0 0 0 0 0 0 0 0 0 0 0 0 0 0 0 0.05 0"/><feBlend in2="BackgroundImageFix" result="effect1_dropShadow_27_1971"/><feBlend in="SourceGraphic" in2="effect1_dropShadow_27_1971" result="shape"/></filter></defs></svg>