<svg xmlns="http://www.w3.org/2000/svg" width="30" height="30" fill="none" viewBox="0 0 30 30"><path fill="#222" fill-rule="evenodd" d="M27.071 6c.511 0 .929.405.929.9v4.5c0 .495-.418.9-.929.9-1.541 0-2.785 1.206-2.785 2.7s1.244 2.7 2.785 2.7c.511 0 .929.405.929.9v4.5c0 .495-.418.9-.929.9H2.93c-.512 0-.93-.405-.93-.9v-4.5c0-.495.418-.9.929-.9 1.541 0 2.785-1.206 2.785-2.7S4.47 12.3 2.93 12.3c-.511 0-.929-.405-.929-.9V6.9c0-.495.418-.9.929-.9zm-6.806 10.067h-1.554a.24.24 0 0 0-.229.15c-.455 1.17-1.585 2.064-2.879 2.275q-.321.052-.645.052a3.83 3.83 0 0 1-2.705-1.09l1.03-.97a.22.22 0 0 0 .053-.25.24.24 0 0 0-.225-.142H9.673c-.135 0-.244.103-.244.23v3.235c0 .093.059.177.15.213a.26.26 0 0 0 .266-.05l1.015-.955c1.088 1.054 2.543 1.635 4.096 1.635.328 0 .66-.027.984-.08 2.21-.361 4-1.918 4.562-3.966a.22.22 0 0 0-.043-.198.25.25 0 0 0-.194-.09M15.045 9.6q-.496 0-.985.08c-2.21.361-4 1.918-4.562 3.966a.22.22 0 0 0 .043.198.25.25 0 0 0 .193.09h1.555a.24.24 0 0 0 .229-.152c.455-1.17 1.585-2.063 2.879-2.274q.321-.053.645-.053a3.83 3.83 0 0 1 2.705 1.09l-1.03.97a.22.22 0 0 0-.053.25.25.25 0 0 0 .225.142h3.438c.135 0 .244-.103.244-.23v-3.235a.23.23 0 0 0-.15-.212.26.26 0 0 0-.266.05l-1.015.955C18.051 10.18 16.597 9.6 15.044 9.6" clip-rule="evenodd"/></svg>