<svg xmlns="http://www.w3.org/2000/svg" width="30" height="30" fill="none" viewBox="0 0 30 30"><g clip-path="url(#a)" filter="url(#b)"><path fill="#222" fill-rule="evenodd" d="M26.774 10.342c-3.82-2.027-7.444-4.729-11.231-6.79-.695-.377-1.216-.549-2.008-.331-1.476.412-1.758 2.049-2.583 3.16-1.421-.287-2.843-1.248-4.199-.195-1.096.858-1.107 2.518-1.508 3.79-.597 0-1.118-.047-1.682.182-.836.332-1.368 1.122-1.563 2.027v12.742c.13 1.099 1.161 2.106 2.214 2.198h21.475c1.215-.092 2.159-1.053 2.311-2.335V12.414a2.61 2.61 0 0 0-1.226-2.084zM14.392 4.869 22 9.45l-9.386-2.6c.51-.64.77-2.209 1.78-1.98m-6.923 3c.12-.23.456-.435.695-.447l9.115 2.576H6.927c.217-.595.282-1.58.553-2.13zm.814 11.322a.95.95 0 0 1-.467.23c-.488.068-2.257.068-2.734-.012-.88-.16-.825-1.569 0-1.695.401-.068 2.485-.057 2.832.058.564.171.792.973.369 1.42m8.432 3.24c-.174.103-.727.286-.803.4-.13.195.043 1.088-.142 1.272a.46.46 0 0 1-.206.08 4 4 0 0 1-.76 0c-.498-.057-.14-1.053-.325-1.248-.065-.069-.835-.206-1.009-.263a3.4 3.4 0 0 1-.434-.172c-.5-.24-.467-.298-.347-.859.032-.16.184-.755.25-.847.151-.183.39.057.553.126.662.286 2.257.756 2.55-.31.271-.972-1.15-1.339-1.726-1.625-1.117-.572-1.866-1.362-1.606-2.839.141-.79.63-1.317 1.27-1.66.141-.069.52-.183.597-.31.152-.251-.044-1.007.13-1.178a.3.3 0 0 1 .174-.058c.152-.022.813-.022.922.046.282.195-.087 1.03.304 1.18.369.137.749.125 1.161.331.141.07.304.126.315.332 0 .115-.282 1.157-.348 1.248-.151.195-.401-.034-.575-.103-.531-.206-1.65-.47-2.05.103-.413.584.206 1.042.629 1.26.727.389 1.552.584 2.094 1.282.966 1.225.651 3.022-.63 3.8zm8.616-3.24a.95.95 0 0 1-.467.23c-.488.068-2.257.068-2.735-.012-.868-.15-.857-1.569.044-1.695.434-.057 2.409-.057 2.778.058.564.171.792.973.369 1.42z" clip-rule="evenodd"/></g><defs><clipPath id="a"><path fill="#fff" d="M0 0h30v30H0z"/></clipPath><filter id="b" width="30" height="28" x="0" y="3.125" color-interpolation-filters="sRGB" filterUnits="userSpaceOnUse"><feFlood flood-opacity="0" result="BackgroundImageFix"/><feColorMatrix in="SourceAlpha" result="hardAlpha" values="0 0 0 0 0 0 0 0 0 0 0 0 0 0 0 0 0 0 127 0"/><feOffset dy="2"/><feGaussianBlur stdDeviation="1"/><feColorMatrix values="0 0 0 0 0 0 0 0 0 0 0 0 0 0 0 0 0 0 0.05 0"/><feBlend in2="BackgroundImageFix" result="effect1_dropShadow_27_1691"/><feBlend in="SourceGraphic" in2="effect1_dropShadow_27_1691" result="shape"/></filter></defs></svg>