<svg xmlns="http://www.w3.org/2000/svg" width="30" height="30" fill="none" viewBox="0 0 30 30"><g clip-path="url(#a)" filter="url(#b)"><path fill="#222" d="M12.348 2c3.24 0 5.876 2.777 5.876 6.19v2.075c1.768.235 3.141 1.753 3.256 3.648h1.595c2.715 0 4.925 2.328 4.925 5.192 0 2.87-2.21 5.198-4.925 5.198H21.48C21.355 26.363 19.747 28 17.756 28H5.749C3.679 28 2 26.23 2 24.05v-9.885c0-2.01 1.43-3.654 3.276-3.9V8.189C5.276 4.777 7.913 2 11.152 2zM9.104 16.394c-1.42 0-2.575 1.216-2.575 2.712 0 1.5 1.155 2.716 2.575 2.716h13.971c1.42 0 2.574-1.216 2.574-2.706 0-1.506-1.154-2.722-2.574-2.722zm2.172 1.14c.825 0 1.494.703 1.494 1.572 0 .867-.67 1.57-1.494 1.57s-1.492-.703-1.492-1.57c0-.869.668-1.573 1.492-1.573m4.816 0c.824 0 1.492.703 1.492 1.572 0 .867-.668 1.57-1.492 1.57s-1.492-.703-1.492-1.57c0-.869.668-1.573 1.492-1.573m4.81 0c.824 0 1.492.703 1.492 1.572 0 .867-.668 1.57-1.492 1.57s-1.493-.702-1.493-1.57.67-1.573 1.493-1.573M11.152 4.47c-1.944 0-3.526 1.665-3.526 3.714v2.026h8.248V8.184c0-2.049-1.582-3.714-3.526-3.714z"/></g><defs><clipPath id="a"><path fill="#fff" d="M0 0h30v30H0z"/></clipPath><filter id="b" width="30" height="30" x="0" y="2" color-interpolation-filters="sRGB" filterUnits="userSpaceOnUse"><feFlood flood-opacity="0" result="BackgroundImageFix"/><feColorMatrix in="SourceAlpha" result="hardAlpha" values="0 0 0 0 0 0 0 0 0 0 0 0 0 0 0 0 0 0 127 0"/><feOffset dy="2"/><feGaussianBlur stdDeviation="1"/><feColorMatrix values="0 0 0 0 0 0 0 0 0 0 0 0 0 0 0 0 0 0 0.05 0"/><feBlend in2="BackgroundImageFix" result="effect1_dropShadow_27_1784"/><feBlend in="SourceGraphic" in2="effect1_dropShadow_27_1784" result="shape"/></filter></defs></svg>